<svg width="53" height="53" viewBox="0 0 53 53" fill="none" xmlns="http://www.w3.org/2000/svg">
<path d="M43 0H10C4.47715 0 0 4.47715 0 10V43C0 48.5228 4.47715 53 10 53H43C48.5228 53 53 48.5228 53 43V10C53 4.47715 48.5228 0 43 0Z" fill="#E6F7FF"/>
<path d="M17.1558 33.8014L23.2898 29.8359C23.2898 29.8359 20.0229 26.4132 18.2204 23.6251C16.418 20.837 16.7803 16.913 19.7543 14.9904C22.7283 13.0678 26.3894 14.6543 28.0717 17.2565C29.754 19.8588 31.654 24.4286 31.654 24.4286L37.9737 20.3431C37.9737 20.3431 36.1392 15.4673 34.9488 12.8107C33.7585 10.154 26.9639 0.0510178 15.068 7.74142C3.1721 15.4317 9.71499 25.961 11.343 28.0712C12.9709 30.1814 17.1558 33.8014 17.1558 33.8014Z" fill="#5A575F" stroke="#5A575F"/>
<path d="M18.1309 35.3122L24.4506 31.2267L26.6749 33.4444L19.7976 37.8904L18.1309 35.3122Z" fill="#5A575F" stroke="#5A575F"/>
<path d="M38.6758 22.0439L32.5269 26.019L33.6451 28.9385L40.3365 24.6127L38.6758 22.0439Z" fill="#5A575F" stroke="#5A575F"/>
<path d="M28.899 44.9423C29.6218 44.4843 29.8364 43.527 29.3784 42.8043C28.9203 42.0815 27.9631 41.8669 27.2404 42.3249C26.5176 42.783 26.303 43.7402 26.761 44.4629C27.2191 45.1857 28.1763 45.4003 28.899 44.9423Z" fill="#5A575F"/>
<path d="M28.2858 45.3305C28.2858 45.3305 27.4891 46.1709 27.4125 46.8088C27.3358 47.4466 29.3638 49.888 29.3638 49.888L33.2382 47.4327C33.2382 47.4327 31.7733 44.6926 31.2869 44.3535C30.8004 44.0144 29.5773 44.5121 29.5773 44.5121L28.2858 45.3305Z" fill="#5A575F" stroke="#5A575F"/>
<path d="M42.733 36.1752C43.4558 35.7172 43.6704 34.7599 43.2124 34.0372C42.7544 33.3144 41.7971 33.0998 41.0744 33.5578C40.3516 34.0159 40.137 34.9731 40.595 35.6958C41.0531 36.4186 42.0103 36.6332 42.733 36.1752Z" fill="#5A575F"/>
<path d="M42.1178 36.5632C42.1178 36.5632 41.3211 37.4036 41.2445 38.0414C41.1679 38.6793 43.1959 41.1207 43.1959 41.1207L47.0702 38.6654C47.0702 38.6654 45.6053 35.9253 45.1189 35.5862C44.6325 35.2471 43.4093 35.7448 43.4093 35.7448L42.1178 36.5632Z" fill="#5A575F" stroke="#5A575F"/>
<path d="M32.4498 34.8315C33.1726 34.3735 33.3872 33.4163 32.9292 32.6935C32.4711 31.9707 31.5139 31.7561 30.7912 32.2141C30.0684 32.6722 29.8538 33.6294 30.3118 34.3521C30.7698 35.0749 31.7271 35.2895 32.4498 34.8315Z" fill="#5A575F"/>
<path d="M31.8366 35.2199C31.8366 35.2199 31.0399 36.0603 30.9633 36.6982C30.8866 37.336 32.9146 39.7774 32.9146 39.7774L36.789 37.3221C36.789 37.3221 35.3241 34.582 34.8376 34.2429C34.3512 33.9038 33.128 34.4015 33.128 34.4015L31.8366 35.2199Z" fill="#5A575F" stroke="#5A575F"/>
</svg>
