<svg width="54" height="53" viewBox="0 0 54 53" fill="none" xmlns="http://www.w3.org/2000/svg">
<rect x="0.03125" width="53" height="53" rx="10" fill="#E6F7FF"/>
<path d="M44.5726 10.5875L44.702 11.8315L42.9622 12.0262C44.6432 11.8385 44.7 11.8315 44.702 11.8315V11.8325C44.702 11.8329 44.7024 11.8335 44.7025 11.834C44.7026 11.8353 44.7027 11.837 44.703 11.8391C44.7034 11.8433 44.7037 11.8494 44.7044 11.8568C44.7059 11.8717 44.7081 11.8931 44.7108 11.9205C44.7162 11.9756 44.7243 12.0554 44.7337 12.1577C44.7527 12.3623 44.7787 12.6571 44.8075 13.0234C44.865 13.7552 44.9338 14.7764 44.9798 15.9371C45.0704 18.2219 45.0789 21.1838 44.6868 23.5395C43.7312 29.2824 40.7311 35.2363 37.5072 39.7492C35.8875 42.0164 34.1682 43.9816 32.5511 45.4123C31.7432 46.1271 30.9306 46.7351 30.1425 47.1796C29.375 47.6125 28.5143 47.9569 27.6371 47.9963C26.7264 48.0372 25.8196 47.7333 25.0189 47.3354C24.1936 46.9252 23.3354 46.3416 22.4784 45.6459C20.7625 44.2529 18.9143 42.2987 17.165 40.0232C13.6855 35.4972 10.3993 29.4391 9.38717 23.5492C8.98165 21.1892 8.99094 18.222 9.08444 15.9361C9.13196 14.7743 9.20281 13.752 9.26217 13.0194C9.29188 12.6527 9.31878 12.3576 9.33834 12.1526C9.34811 12.0502 9.35617 11.9702 9.36178 11.915C9.36459 11.8873 9.36705 11.8657 9.36861 11.8507C9.36939 11.8433 9.36964 11.8372 9.37008 11.833C9.37029 11.831 9.37044 11.8292 9.37057 11.828C9.37062 11.8274 9.37102 11.8268 9.37106 11.8265L9.50631 10.5658L27.5756 6L44.5726 10.5875ZM12.7377 13.48C12.6842 14.161 12.6227 15.0697 12.581 16.0899C12.4894 18.3296 12.4986 20.9652 12.8334 22.914C13.7083 28.0047 16.6348 33.5145 19.9028 37.7654C21.5271 39.8782 23.1865 41.6148 24.6376 42.7929C25.3641 43.3826 26.0043 43.8049 26.5331 44.0677C27.0863 44.3426 27.3894 44.3789 27.4852 44.3746C27.6143 44.3688 27.934 44.2976 28.4682 43.9964C28.9817 43.7067 29.593 43.2621 30.2777 42.6563C31.6462 41.4456 33.1899 39.6985 34.6937 37.5934C37.7167 33.3617 40.4047 27.9293 41.2376 22.9241C41.5633 20.967 41.5716 18.3257 41.4828 16.0858C41.4419 15.0565 41.3812 14.1408 41.3289 13.4578L27.5473 9.73799L12.7377 13.48Z" fill="#5A575F"/>
<path fill-rule="evenodd" clip-rule="evenodd" d="M33.0312 22.4286C33.0312 22.1656 32.8074 21.9524 32.5312 21.9524H22.5312C22.2551 21.9524 22.0313 22.1656 22.0312 22.4286V29.5714C22.0313 29.8344 22.2551 30.0476 22.5312 30.0476H32.5312C32.8074 30.0476 33.0312 29.8344 33.0312 29.5714V22.4286ZM29.4678 25.1276C29.4623 24.1358 28.6768 23.2619 27.6157 23.2619C26.5547 23.2619 25.7691 24.1358 25.7637 25.1276C25.7613 25.5581 26.0119 25.9676 26.188 26.213C26.2591 26.3121 26.3302 26.3996 26.3911 26.4711L25.791 28.7381H29.4409L28.8398 26.4706C28.9007 26.3991 28.9728 26.3121 29.0439 26.213C29.22 25.9676 29.4701 25.558 29.4678 25.1276Z" fill="#5A575F"/>
<path fill-rule="evenodd" clip-rule="evenodd" d="M34.0312 29.5714C34.0312 30.3604 33.3597 31 32.5312 31H22.5312C21.7028 31 21.0313 30.3604 21.0312 29.5714V22.4286C21.0313 21.6396 21.7028 21 22.5312 21H32.5312C33.3597 21 34.0312 21.6396 34.0312 22.4286V29.5714ZM32.5312 21.9524C32.8074 21.9524 33.0312 22.1656 33.0312 22.4286V29.5714C33.0312 29.8344 32.8074 30.0476 32.5312 30.0476H22.5312C22.2551 30.0476 22.0313 29.8344 22.0312 29.5714V22.4286C22.0313 22.1656 22.2551 21.9524 22.5312 21.9524H32.5312Z" fill="#5A575F"/>
<path fill-rule="evenodd" clip-rule="evenodd" d="M33.0312 22.4286C33.0312 22.1656 32.8074 21.9524 32.5312 21.9524H22.5312C22.2551 21.9524 22.0313 22.1656 22.0312 22.4286V29.5714C22.0313 29.8344 22.2551 30.0476 22.5312 30.0476H32.5312C32.8074 30.0476 33.0312 29.8344 33.0312 29.5714V22.4286ZM29.4678 25.1276C29.4623 24.1358 28.6768 23.2619 27.6157 23.2619C26.5547 23.2619 25.7691 24.1358 25.7637 25.1276C25.7613 25.5581 26.0119 25.9676 26.188 26.213C26.2591 26.3121 26.3302 26.3996 26.3911 26.4711L25.791 28.7381H29.4409L28.8398 26.4706C28.9007 26.3991 28.9728 26.3121 29.0439 26.213C29.22 25.9676 29.4701 25.558 29.4678 25.1276Z" stroke="#5A575F" stroke-width="0.5"/>
<path fill-rule="evenodd" clip-rule="evenodd" d="M34.0312 29.5714C34.0312 30.3604 33.3597 31 32.5312 31H22.5312C21.7028 31 21.0313 30.3604 21.0312 29.5714V22.4286C21.0313 21.6396 21.7028 21 22.5312 21H32.5312C33.3597 21 34.0312 21.6396 34.0312 22.4286V29.5714ZM32.5312 21.9524C32.8074 21.9524 33.0312 22.1656 33.0312 22.4286V29.5714C33.0312 29.8344 32.8074 30.0476 32.5312 30.0476H22.5312C22.2551 30.0476 22.0313 29.8344 22.0312 29.5714V22.4286C22.0313 22.1656 22.2551 21.9524 22.5312 21.9524H32.5312Z" stroke="#5A575F" stroke-width="0.5"/>
<path d="M25.7112 21V19.3333C25.7112 19.3333 25.7113 17.8056 27.5312 17.8056C29.3512 17.8056 29.3512 19.3333 29.3512 19.3333V21H31.0312V18.9167C31.0312 18.9167 31.0312 16 27.5312 16C24.0312 16 24.0312 18.9167 24.0312 18.9167V21H25.7112Z" fill="#5A575F"/>
</svg>
