<svg width="54" height="53" viewBox="0 0 54 53" fill="none" xmlns="http://www.w3.org/2000/svg">
<rect x="0.03125" width="53" height="53" rx="10" fill="#E6F7FF"/>
<path d="M26.5098 16.0087C26.5719 16.0123 26.6223 16.0165 26.6602 16.0202C26.6791 16.022 26.695 16.0239 26.7076 16.0253C26.7139 16.026 26.7197 16.0269 26.7243 16.0274C26.7266 16.0277 26.7288 16.0276 26.7306 16.0279C26.7315 16.028 26.7324 16.0282 26.7331 16.0283L26.7344 16.0287C26.735 16.0288 26.7358 16.0288 26.5965 17.1103C26.4603 18.1681 26.4577 18.1918 26.4582 18.1924H26.4574C26.4456 18.1912 26.4222 18.1892 26.3882 18.1873C26.3201 18.1833 26.2093 18.1797 26.0617 18.1838C25.7661 18.1923 25.3248 18.2322 24.7843 18.3628C23.7101 18.6225 22.2221 19.2459 20.6846 20.7366C17.3785 23.942 17.3602 28.8266 20.5194 32.2981C23.838 35.9445 29.7388 35.5421 33.086 31.6648C34.3338 30.2194 34.7414 28.8024 34.8509 27.7675C34.9061 27.2451 34.8857 26.8146 34.8534 26.5231C34.8373 26.3777 34.8186 26.2679 34.8052 26.2C34.7986 26.1663 34.7934 26.143 34.7905 26.131C34.7904 26.1305 34.7902 26.1298 34.7901 26.1293C34.7909 26.1296 34.8156 26.1233 35.8241 25.8387C36.8283 25.5552 36.8575 25.5473 36.8584 25.5476L36.8589 25.5489C36.8591 25.5497 36.859 25.5509 36.8593 25.5518C36.8598 25.5536 36.8604 25.5556 36.8609 25.5578C36.8621 25.5623 36.8636 25.5679 36.8651 25.574C36.8683 25.5864 36.8724 25.6022 36.8769 25.6209C36.8858 25.6585 36.8969 25.7089 36.9091 25.7709C36.9336 25.8948 36.9623 26.0664 36.9858 26.2789C37.0328 26.7033 37.0591 27.2957 36.9846 28.0006C36.8344 29.4204 36.2763 31.2765 34.6988 33.1039C30.6381 37.8078 23.2526 38.5139 18.9444 33.7798C15.0461 29.4962 14.9892 23.2438 19.2034 19.1576C21.0415 17.3755 22.8799 16.5805 24.2881 16.2401C24.9886 16.0708 25.5776 16.0148 26.0018 16.0027C26.214 15.9967 26.3855 16.0015 26.5098 16.0087ZM34.7901 26.1293L34.7897 26.128C34.7896 26.1274 34.7894 26.1268 34.7893 26.1263C34.7895 26.1272 34.7899 26.1282 34.7901 26.1293ZM34.7889 26.1238C34.789 26.1244 34.789 26.1253 34.7893 26.1263C34.7886 26.1233 34.7881 26.1217 34.788 26.1216C34.788 26.1216 34.7885 26.1224 34.7889 26.1238ZM26.4662 18.1932C26.466 18.1932 26.4652 18.1934 26.4641 18.1932C26.4633 18.1931 26.4619 18.1925 26.4607 18.1924C26.464 18.1927 26.4658 18.1932 26.4662 18.1932Z" fill="#5A575F"/>
<path d="M28.0021 12.0017C28.0101 12.0018 28.0167 12.0019 28.0217 12.0021C28.0242 12.0021 28.0266 12.002 28.0283 12.0021C28.0291 12.0021 28.0298 12.0024 28.0304 12.0025H28.0312C28.0315 12.005 28.0303 12.054 27.9967 13.0015C27.9637 13.9312 27.9617 13.996 27.9618 14.0005C27.9604 14.0005 27.9578 14.0006 27.9543 14.0005C27.946 14.0003 27.9319 14.0003 27.9123 14.0001C27.8728 13.9997 27.8109 13.9995 27.7285 14.0005C27.5636 14.0026 27.3173 14.0098 27.0064 14.0302C26.3832 14.0712 25.5063 14.1653 24.5043 14.377C22.4882 14.8031 20.0405 15.6894 18.106 17.5077C16.1681 19.3291 15.1701 21.6832 14.6626 23.6366C14.4107 24.6063 14.2848 25.4581 14.2219 26.0646C14.1905 26.3674 14.1751 26.6077 14.1675 26.7692C14.1637 26.8497 14.1617 26.9106 14.1608 26.9496C14.1604 26.9692 14.1601 26.9834 14.16 26.9918V27L12.0312 26.9977V26.9703C12.0314 26.955 12.0319 26.9338 12.0325 26.907C12.0337 26.8534 12.0362 26.7771 12.0408 26.6805C12.0499 26.4873 12.0678 26.2118 12.1032 25.8709C12.1737 25.1902 12.3141 24.2422 12.5946 23.1624C13.1521 21.0167 14.2832 18.272 16.6001 16.0943C18.9206 13.9133 21.795 12.9 24.0369 12.4262C25.1638 12.1881 26.1498 12.0818 26.8575 12.0353C27.2119 12.012 27.4984 12.0035 27.6994 12.0009C27.8 11.9996 27.8795 11.9999 27.9356 12.0005C27.9636 12.0008 27.9859 12.0013 28.0021 12.0017Z" fill="#5A575F"/>
<path d="M25.0604 40.9982C25.0524 40.998 25.0458 40.9979 25.0408 40.9978C25.0383 40.9977 25.0359 40.9979 25.0342 40.9978C25.0334 40.9978 25.0327 40.9974 25.0321 40.9974H25.0313C25.031 40.9947 25.0322 40.9424 25.0658 39.9318C25.0988 38.94 25.1008 38.8709 25.1007 38.8661C25.1021 38.8662 25.1047 38.866 25.1082 38.8661C25.1165 38.8663 25.1306 38.8663 25.1502 38.8665C25.1897 38.867 25.2516 38.8672 25.334 38.8661C25.4989 38.8639 25.7452 38.8563 26.0561 38.8345C26.6793 38.7908 27.5562 38.6904 28.5582 38.4645C30.5743 38.0101 33.022 37.0646 34.9565 35.1252C36.8944 33.1823 37.8924 30.6713 38.3999 28.5877C38.6518 27.5533 38.7777 26.6447 38.8406 25.9977C38.872 25.6748 38.8874 25.4184 38.895 25.2462C38.8988 25.1603 38.9008 25.0954 38.9017 25.0537C38.9021 25.0329 38.9024 25.0177 38.9025 25.0087V25L41.0312 25.0025V25.0317C41.0311 25.048 41.0306 25.0706 41.03 25.0991C41.0288 25.1564 41.0263 25.2377 41.0217 25.3408C41.0126 25.5468 40.9947 25.8407 40.9593 26.2044C40.8888 26.9305 40.7484 27.9416 40.4679 29.0934C39.9104 31.3822 38.7793 34.3099 36.4624 36.6328C34.1419 38.9592 31.2675 40.04 29.0256 40.5454C27.8987 40.7994 26.9127 40.9128 26.205 40.9624C25.8506 40.9872 25.5641 40.9963 25.3631 40.999C25.2625 41.0004 25.183 41.0001 25.1269 40.9995C25.0989 40.9992 25.0766 40.9986 25.0604 40.9982Z" fill="#5A575F"/>
<path d="M27.9971 8.00217C28.0068 8.00239 28.0146 8.00242 28.0205 8.00258C28.0234 8.00267 28.0259 8.00294 28.0279 8.00299H28.0312C28.0316 8.00301 28.0321 8.00294 27.9971 9.05475C27.9633 10.0706 27.9624 10.1057 27.9626 10.1069H27.9618C27.9598 10.1069 27.9559 10.1066 27.9503 10.1065C27.9387 10.1063 27.9195 10.106 27.8932 10.1057C27.8407 10.1051 27.7594 10.1051 27.6523 10.1065C27.4378 10.1094 27.1197 10.1191 26.7188 10.1472C25.9159 10.2035 24.7873 10.3324 23.4978 10.6229C20.9067 11.2067 17.7395 12.4256 15.2295 14.941C12.7161 17.4597 11.4311 20.7046 10.7798 23.3773C10.456 24.7063 10.2939 25.8736 10.213 26.7057C10.1726 27.1211 10.1527 27.4515 10.1428 27.6748C10.1378 27.7862 10.1353 27.8709 10.1341 27.926C10.1336 27.9534 10.133 27.9737 10.1329 27.986V28C10.1319 27.9997 10.1004 27.9996 9.08208 27.9992C8.03125 27.9988 8.03125 27.9983 8.03125 27.9979V27.9873C8.03128 27.9814 8.03156 27.9736 8.03166 27.9638C8.03187 27.9441 8.03214 27.9164 8.03289 27.8812C8.0344 27.8107 8.03746 27.7098 8.04315 27.5814C8.05453 27.3247 8.07685 26.9573 8.12115 26.5017C8.20963 25.5915 8.38602 24.323 8.7381 22.8781C9.43872 20.0029 10.8555 16.3468 13.7431 13.453C16.6342 10.5558 20.2224 9.20322 23.0364 8.56917C24.4493 8.25081 25.6859 8.10953 26.5723 8.0474C27.016 8.0163 27.3739 8.00477 27.624 8.00135C27.749 7.99965 27.8474 7.99978 27.9162 8.00053C27.9506 8.0009 27.9777 8.00174 27.9971 8.00217Z" fill="#5A575F"/>
<path d="M25.0671 44.9978C25.0569 44.9976 25.0487 44.9976 25.0426 44.9974C25.0395 44.9973 25.0368 44.9971 25.0348 44.997H25.0313C25.0309 44.997 25.0304 44.9971 25.0671 43.9452C25.1026 42.9294 25.1036 42.8943 25.1033 42.8931H25.1042C25.1063 42.8931 25.1103 42.8934 25.1163 42.8935C25.1284 42.8937 25.1486 42.894 25.1762 42.8943C25.2313 42.8949 25.3166 42.8949 25.4292 42.8935C25.6544 42.8906 25.9884 42.8809 26.4093 42.8528C27.2523 42.7965 28.4374 42.6676 29.7914 42.3771C32.512 41.7933 35.8376 40.5744 38.4731 38.059C41.1121 35.5403 42.4614 32.2954 43.1452 29.6227C43.4853 28.2937 43.6555 27.1264 43.7405 26.2943C43.7829 25.8789 43.8038 25.5485 43.8142 25.3252C43.8193 25.2138 43.822 25.1291 43.8232 25.074C43.8238 25.0466 43.8244 25.0263 43.8245 25.014V25C43.8255 25.0003 43.8586 25.0004 44.9279 25.0008C46.0312 25.0012 46.0313 25.0017 46.0312 25.0021V25.0127C46.0312 25.0186 46.0309 25.0264 46.0308 25.0362C46.0306 25.0559 46.0303 25.0836 46.0295 25.1188C46.0279 25.1893 46.0247 25.2902 46.0188 25.4186C46.0068 25.6753 45.9834 26.0427 45.9369 26.4983C45.8439 27.4085 45.6587 28.677 45.2891 30.1219C44.5534 32.9971 43.0658 36.6532 40.0338 39.547C36.9982 42.4442 33.2305 43.7968 30.2758 44.4308C28.7923 44.7492 27.4939 44.8905 26.5631 44.9526C26.0972 44.9837 25.7215 44.9952 25.4589 44.9986C25.3276 45.0004 25.2243 45.0002 25.152 44.9995C25.1159 44.9991 25.0875 44.9983 25.0671 44.9978Z" fill="#5A575F"/>
<path d="M27.9922 4.00194C28.0035 4.00219 28.0125 4.00258 28.0191 4.00277C28.0225 4.00286 28.0253 4.00312 28.0274 4.00318H28.0312C28.0316 4.0032 28.0321 4.00336 27.9968 5.06468C27.9629 6.08286 27.9618 6.12409 27.962 6.12577C27.9616 6.12576 27.9607 6.12579 27.9599 6.12577C27.9571 6.12569 27.9518 6.12552 27.9446 6.12535C27.9297 6.12502 27.9058 6.12446 27.8733 6.12411C27.8081 6.1234 27.7079 6.12314 27.5763 6.12494C27.313 6.12854 26.924 6.14082 26.4343 6.17513C25.4536 6.24385 24.0757 6.40129 22.5016 6.75587C19.3415 7.46773 15.4637 8.95643 12.3858 12.0401C9.30444 15.1273 7.7348 19.0975 6.9412 22.3536C6.54623 23.9741 6.34857 25.3974 6.24985 26.4125C6.20054 26.9195 6.17624 27.3236 6.16411 27.5972C6.15805 27.7339 6.15479 27.838 6.15334 27.9063C6.15261 27.9404 6.15226 27.9656 6.15209 27.9813V28C6.15119 27.9997 6.12071 27.9996 5.09167 27.9992C4.03125 27.9988 4.03125 27.9983 4.03125 27.9979V27.9859C4.03129 27.9792 4.03154 27.97 4.03166 27.9585C4.03191 27.9354 4.03243 27.9025 4.03332 27.8606C4.03511 27.7769 4.03853 27.6566 4.04533 27.5031C4.05896 27.1957 4.0857 26.7543 4.13895 26.2068C4.24533 25.1128 4.45736 23.5875 4.88083 21.85C5.72425 18.3895 7.4268 14.0045 10.8859 10.5389C14.3484 7.06995 18.6513 5.44642 22.0365 4.68389C23.7349 4.3013 25.2211 4.1309 26.286 4.05628C26.8191 4.01893 27.2485 4.00561 27.5478 4.00152C27.6974 3.99948 27.8148 3.9998 27.8965 4.00069C27.9374 4.00114 27.9695 4.00143 27.9922 4.00194Z" fill="#5A575F"/>
<path d="M25.0703 49.998C25.059 49.9977 25.05 49.9973 25.0434 49.9971C25.04 49.997 25.0372 49.9968 25.0351 49.9967H25.0313C25.0309 49.9967 25.0304 49.9965 25.0657 48.891C25.0996 47.8304 25.1007 47.7874 25.1005 47.7857C25.1009 47.7857 25.1018 47.7856 25.1026 47.7857C25.1054 47.7857 25.1107 47.7859 25.1179 47.7861C25.1328 47.7864 25.1567 47.787 25.1892 47.7874C25.2544 47.7881 25.3546 47.7884 25.4862 47.7865C25.7495 47.7828 26.1385 47.77 26.6282 47.7342C27.6089 47.6627 28.9868 47.4987 30.5609 47.1293C33.721 46.3878 37.5988 44.837 40.6767 41.6248C43.7581 38.4091 45.3277 34.2734 46.1213 30.8817C46.5163 29.1936 46.7139 27.7111 46.8126 26.6536C46.862 26.1255 46.8863 25.7046 46.8984 25.4196C46.9045 25.2772 46.9077 25.1687 46.9092 25.0977C46.9099 25.0621 46.9102 25.0358 46.9104 25.0194V25C46.9113 25.0003 46.9418 25.0005 47.9708 25.0009C49.0312 25.0013 49.0313 25.0017 49.0312 25.0022V25.0147C49.0312 25.0217 49.031 25.0312 49.0308 25.0432C49.0306 25.0673 49.0301 25.1016 49.0292 25.1452C49.0274 25.2324 49.024 25.3577 49.0172 25.5176C49.0035 25.8378 48.9768 26.2976 48.9236 26.8679C48.8172 28.0075 48.6051 29.5964 48.1817 31.4062C47.3382 35.0109 45.6357 39.5786 42.1766 43.1886C38.7141 46.8021 34.4112 48.4933 31.026 49.2876C29.3276 49.6861 27.8414 49.8636 26.7765 49.9414C26.2434 49.9803 25.814 49.9942 25.5147 49.9984C25.3651 50.0005 25.2477 50.0002 25.166 49.9993C25.1251 49.9988 25.093 49.9985 25.0703 49.998Z" fill="#5A575F"/>
</svg>
