<svg width="54" height="53" viewBox="0 0 54 53" fill="none" xmlns="http://www.w3.org/2000/svg">
<rect x="0.0292969" width="53" height="53" rx="10" fill="#E6F7FF"/>
<path d="M6.24233 23.1331C7.32712 31.2245 11.282 38.4595 17.3455 43.3983L18.3104 44.2151C20.5179 46.0838 23.7736 45.9434 26.0248 43.8823L28.133 41.9522C28.8184 41.3246 28.9599 40.2767 28.4591 39.5379L24.719 34.0215C24.1696 33.2112 23.0622 33.0795 22.2824 33.7318L20.1354 35.5275C16.7972 32.455 14.5717 28.2459 13.8165 23.5764L16.3367 22.4866C17.2521 22.0908 17.709 20.9921 17.3419 20.0691L14.8428 13.7851C14.5081 12.9438 13.6015 12.544 12.7538 12.8641L10.1284 13.8555C7.32667 14.9135 5.56053 17.9037 5.95415 20.9228L6.24189 23.1298L6.24233 23.1331Z" fill="#5D5A62"/>
<path d="M26.4355 20.5017V25.4822H34.481V29.1218L44.8251 22.9919L34.481 16.8621V20.5017H26.4355Z" fill="#5A575F" stroke="#5A575F" stroke-width="5"/>
</svg>
