<svg width="73" height="70" viewBox="0 0 73 70" fill="none" xmlns="http://www.w3.org/2000/svg">
<path d="M41.5198 10.3087C40.1504 9.51604 38.5135 9.33116 37.0026 9.79854L19.8404 15.1072C16.9987 15.9862 15.3133 18.9131 15.9749 21.8201L19.9706 39.3766C20.3224 40.9222 21.3005 42.2511 22.6699 43.0438L48.2493 57.851C50.9676 59.4245 54.4435 58.4907 56.0129 55.7652L69.1794 32.9001C70.7488 30.1746 69.8175 26.6895 67.0991 25.1159L41.5198 10.3087Z" fill="#003CFF"/>
<g filter="url(#filter0_b_6581_12185)">
<path d="M38.6782 34.3889C38.6782 32.8035 38.0195 31.2898 36.8603 30.2115L23.6939 17.9637C21.5138 15.9358 18.143 15.9358 15.9629 17.9637L2.79642 30.2115C1.63725 31.2898 0.978516 32.8035 0.978516 34.3889V64.0033C0.978516 67.1504 3.52306 69.7017 6.66192 69.7017H32.9948C36.1337 69.7017 38.6782 67.1504 38.6782 64.0033V34.3889Z" fill="url(#paint0_linear_6581_12185)" fill-opacity="0.3"/>
</g>
<g filter="url(#filter1_b_6581_12185)">
<path fill-rule="evenodd" clip-rule="evenodd" d="M36.7637 30.3159L23.5972 18.0682C21.4716 16.0909 18.1851 16.0909 16.0595 18.0682L2.89305 30.3159C1.76287 31.3673 1.1206 32.8431 1.1206 34.3889V64.0033C1.1206 67.0718 3.60153 69.5592 6.66192 69.5592H32.9948C36.0552 69.5592 38.5362 67.0718 38.5362 64.0033V34.3889C38.5362 32.8431 37.8939 31.3673 36.7637 30.3159ZM36.8603 30.2115C38.0195 31.2898 38.6782 32.8035 38.6782 34.3889V64.0033C38.6782 67.1504 36.1337 69.7017 32.9948 69.7017H6.66192C3.52306 69.7017 0.978516 67.1504 0.978516 64.0033V34.3889C0.978516 32.8035 1.63725 31.2898 2.79642 30.2115L15.9629 17.9637C18.143 15.9358 21.5138 15.9358 23.6939 17.9637L36.8603 30.2115Z" fill="url(#paint1_linear_6581_12185)"/>
<path fill-rule="evenodd" clip-rule="evenodd" d="M36.7637 30.3159L23.5972 18.0682C21.4716 16.0909 18.1851 16.0909 16.0595 18.0682L2.89305 30.3159C1.76287 31.3673 1.1206 32.8431 1.1206 34.3889V64.0033C1.1206 67.0718 3.60153 69.5592 6.66192 69.5592H32.9948C36.0552 69.5592 38.5362 67.0718 38.5362 64.0033V34.3889C38.5362 32.8431 37.8939 31.3673 36.7637 30.3159ZM36.8603 30.2115C38.0195 31.2898 38.6782 32.8035 38.6782 34.3889V64.0033C38.6782 67.1504 36.1337 69.7017 32.9948 69.7017H6.66192C3.52306 69.7017 0.978516 67.1504 0.978516 64.0033V34.3889C0.978516 32.8035 1.63725 31.2898 2.79642 30.2115L15.9629 17.9637C18.143 15.9358 21.5138 15.9358 23.6939 17.9637L36.8603 30.2115Z" fill="url(#paint2_radial_6581_12185)"/>
</g>
<path d="M12.9238 42.3478C12.9238 41.4339 13.1986 40.7081 13.7482 40.1705C14.2978 39.6195 15.0015 39.344 15.8594 39.344C16.7173 39.344 17.421 39.6195 17.9706 40.1705C18.5201 40.7081 18.7949 41.4339 18.7949 42.3478C18.7949 43.2751 18.5201 44.0143 17.9706 44.5653C17.421 45.1029 16.7173 45.3717 15.8594 45.3717C15.0015 45.3717 14.2978 45.1029 13.7482 44.5653C13.1986 44.0143 12.9238 43.2751 12.9238 42.3478ZM23.3081 39.5657C23.9112 39.5657 24.288 40.219 23.9859 40.7411L16.7491 53.2462C16.6091 53.4881 16.3508 53.6371 16.0713 53.6371C15.4681 53.6371 15.0914 52.9838 15.3935 52.4618L22.6303 39.9566C22.7702 39.7147 23.0286 39.5657 23.3081 39.5657ZM15.8594 40.4729C15.4036 40.4729 15.0417 40.6342 14.7736 40.9568C14.5189 41.2659 14.3916 41.7295 14.3916 42.3478C14.3916 42.966 14.5189 43.4364 14.7736 43.7589C15.0417 44.0815 15.4036 44.2428 15.8594 44.2428C16.3151 44.2428 16.677 44.0815 16.9451 43.7589C17.2132 43.4229 17.3473 42.9526 17.3473 42.3478C17.3473 41.7295 17.2132 41.2659 16.9451 40.9568C16.677 40.6342 16.3151 40.4729 15.8594 40.4729ZM20.6246 50.8551C20.6246 49.9278 20.8994 49.1953 21.449 48.6577C21.9986 48.1067 22.7023 47.8312 23.5602 47.8312C24.4181 47.8312 25.1151 48.1067 25.6513 48.6577C26.2008 49.1953 26.4756 49.9278 26.4756 50.8551C26.4756 51.769 26.2008 52.5015 25.6513 53.0525C25.1151 53.6035 24.4181 53.879 23.5602 53.879C22.7023 53.879 21.9986 53.6102 21.449 53.0726C20.8994 52.5216 20.6246 51.7824 20.6246 50.8551ZM23.5401 48.9803C23.0843 48.9803 22.7224 49.1415 22.4543 49.4641C22.1862 49.7732 22.0522 50.2369 22.0522 50.8551C22.0522 51.4599 22.1862 51.9235 22.4543 52.2461C22.7224 52.5552 23.0843 52.7098 23.5401 52.7098C23.9958 52.7098 24.3577 52.5552 24.6258 52.2461C24.8939 51.9235 25.028 51.4599 25.028 50.8551C25.028 50.2369 24.8939 49.7732 24.6258 49.4641C24.3577 49.1415 23.9958 48.9803 23.5401 48.9803Z" fill="white"/>
<ellipse cx="19.8283" cy="20.4578" rx="1.88499" ry="1.88996" fill="white"/>
<defs>
<filter id="filter0_b_6581_12185" x="-29.0215" y="-13.5573" width="97.7002" height="113.259" filterUnits="userSpaceOnUse" color-interpolation-filters="sRGB">
<feFlood flood-opacity="0" result="BackgroundImageFix"/>
<feGaussianBlur in="BackgroundImageFix" stdDeviation="15"/>
<feComposite in2="SourceAlpha" operator="in" result="effect1_backgroundBlur_6581_12185"/>
<feBlend mode="normal" in="SourceGraphic" in2="effect1_backgroundBlur_6581_12185" result="shape"/>
</filter>
<filter id="filter1_b_6581_12185" x="-29.0215" y="-13.5573" width="97.7002" height="113.259" filterUnits="userSpaceOnUse" color-interpolation-filters="sRGB">
<feFlood flood-opacity="0" result="BackgroundImageFix"/>
<feGaussianBlur in="BackgroundImageFix" stdDeviation="15"/>
<feComposite in2="SourceAlpha" operator="in" result="effect1_backgroundBlur_6581_12185"/>
<feBlend mode="normal" in="SourceGraphic" in2="effect1_backgroundBlur_6581_12185" result="shape"/>
</filter>
<linearGradient id="paint0_linear_6581_12185" x1="5.0128" y1="21.3565" x2="50.5033" y2="38.0297" gradientUnits="userSpaceOnUse">
<stop stop-color="#5A81FF" stop-opacity="0.9"/>
<stop offset="0.447036" stop-color="#567DFF" stop-opacity="0.955296"/>
<stop offset="1" stop-color="#4E78FF" stop-opacity="0.9"/>
</linearGradient>
<linearGradient id="paint1_linear_6581_12185" x1="6.40394" y1="14.5406" x2="46.8746" y2="31.2669" gradientUnits="userSpaceOnUse">
<stop offset="0.188941" stop-color="#E7F0FF" stop-opacity="0.523483"/>
<stop offset="0.526042" stop-color="#88A4FF"/>
<stop offset="1" stop-color="#B4D2FF" stop-opacity="0.1"/>
</linearGradient>
<radialGradient id="paint2_radial_6581_12185" cx="0" cy="0" r="1" gradientUnits="userSpaceOnUse" gradientTransform="translate(6.61261 67.9581) rotate(-60.1582) scale(37.4616 54.0499)">
<stop stop-color="white"/>
<stop offset="1" stop-color="white" stop-opacity="0"/>
</radialGradient>
</defs>
</svg>
