<svg width="88" height="82" viewBox="0 0 88 82" fill="none" xmlns="http://www.w3.org/2000/svg">
<path d="M0 10.5128C0 4.70675 4.71279 0 10.5263 0H45.4737C51.2872 0 56 4.70675 56 10.5128V59.2923C56 65.0984 51.2872 69.8052 45.4737 69.8052H10.5263C4.71279 69.8052 0 65.0984 0 59.2923V10.5128Z" fill="#003CFF"/>
<g filter="url(#filter0_b_6463_88179)">
<path fill-rule="evenodd" clip-rule="evenodd" d="M77.4569 65.8291C86.4399 54.0996 85.5606 37.2522 74.8192 26.5245C63.1201 14.8404 44.1521 14.8404 32.453 26.5245C20.7539 38.2086 20.7539 57.1522 32.453 68.8363C43.1945 79.564 60.0635 80.4421 71.8081 71.4707L80.8623 80.5132C81.6844 81.3343 83.0174 81.3343 83.8396 80.5132L86.5111 77.8451C87.3332 77.024 87.3332 75.6928 86.5111 74.8717L77.4569 65.8291Z" fill="url(#paint0_linear_6463_88179)" fill-opacity="0.3"/>
</g>
<g filter="url(#filter1_b_6463_88179)">
<path fill-rule="evenodd" clip-rule="evenodd" d="M77.1777 65.8476L77.2897 65.7014C86.2094 54.0544 85.3361 37.3253 74.6703 26.6732C63.0534 15.0712 44.2188 15.0712 32.6019 26.6732C20.985 38.2751 20.985 57.0856 32.6019 68.6876C43.2677 79.3398 60.0183 80.2119 71.6802 71.3037L71.8266 71.1918L81.0111 80.3646C81.7511 81.1036 82.9508 81.1036 83.6907 80.3646L86.3622 77.6965C87.1022 76.9575 87.1022 75.7593 86.3622 75.0203L77.1777 65.8476ZM71.8081 71.4707C60.0635 80.4421 43.1945 79.564 32.453 68.8363C20.7539 57.1522 20.7539 38.2086 32.453 26.5245C44.1521 14.8404 63.1201 14.8404 74.8192 26.5245C85.5606 37.2522 86.4399 54.0996 77.4569 65.8291L86.5111 74.8717C87.3332 75.6928 87.3332 77.024 86.5111 77.8451L83.8396 80.5132C83.0174 81.3343 81.6844 81.3343 80.8623 80.5132L71.8081 71.4707Z" fill="url(#paint1_linear_6463_88179)"/>
<path fill-rule="evenodd" clip-rule="evenodd" d="M77.1777 65.8476L77.2897 65.7014C86.2094 54.0544 85.3361 37.3253 74.6703 26.6732C63.0534 15.0712 44.2188 15.0712 32.6019 26.6732C20.985 38.2751 20.985 57.0856 32.6019 68.6876C43.2677 79.3398 60.0183 80.2119 71.6802 71.3037L71.8266 71.1918L81.0111 80.3646C81.7511 81.1036 82.9508 81.1036 83.6907 80.3646L86.3622 77.6965C87.1022 76.9575 87.1022 75.7593 86.3622 75.0203L77.1777 65.8476ZM71.8081 71.4707C60.0635 80.4421 43.1945 79.564 32.453 68.8363C20.7539 57.1522 20.7539 38.2086 32.453 26.5245C44.1521 14.8404 63.1201 14.8404 74.8192 26.5245C85.5606 37.2522 86.4399 54.0996 77.4569 65.8291L86.5111 74.8717C87.3332 75.6928 87.3332 77.024 86.5111 77.8451L83.8396 80.5132C83.0174 81.3343 81.6844 81.3343 80.8623 80.5132L71.8081 71.4707Z" fill="url(#paint2_radial_6463_88179)"/>
</g>
<defs>
<filter id="filter0_b_6463_88179" x="-6.32129" y="-12.2386" width="123.449" height="123.368" filterUnits="userSpaceOnUse" color-interpolation-filters="sRGB">
<feFlood flood-opacity="0" result="BackgroundImageFix"/>
<feGaussianBlur in="BackgroundImageFix" stdDeviation="15"/>
<feComposite in2="SourceAlpha" operator="in" result="effect1_backgroundBlur_6463_88179"/>
<feBlend mode="normal" in="SourceGraphic" in2="effect1_backgroundBlur_6463_88179" result="shape"/>
</filter>
<filter id="filter1_b_6463_88179" x="-6.32129" y="-12.2386" width="123.449" height="123.368" filterUnits="userSpaceOnUse" color-interpolation-filters="sRGB">
<feFlood flood-opacity="0" result="BackgroundImageFix"/>
<feGaussianBlur in="BackgroundImageFix" stdDeviation="15"/>
<feComposite in2="SourceAlpha" operator="in" result="effect1_backgroundBlur_6463_88179"/>
<feBlend mode="normal" in="SourceGraphic" in2="effect1_backgroundBlur_6463_88179" result="shape"/>
</filter>
<linearGradient id="paint0_linear_6463_88179" x1="30.4685" y1="23.6078" x2="98.9161" y2="59.0946" gradientUnits="userSpaceOnUse">
<stop stop-color="#5A81FF" stop-opacity="0.9"/>
<stop offset="0.447036" stop-color="#567DFF" stop-opacity="0.955296"/>
<stop offset="1" stop-color="#4E78FF" stop-opacity="0.9"/>
</linearGradient>
<linearGradient id="paint1_linear_6463_88179" x1="32.8097" y1="15.4983" x2="92.2437" y2="50.2442" gradientUnits="userSpaceOnUse">
<stop offset="0.188941" stop-color="#E7F0FF" stop-opacity="0.523483"/>
<stop offset="0.526042" stop-color="#88A4FF"/>
<stop offset="1" stop-color="#B4D2FF" stop-opacity="0.1"/>
</linearGradient>
<radialGradient id="paint2_radial_6463_88179" cx="0" cy="0" r="1" gradientUnits="userSpaceOnUse" gradientTransform="translate(33.1609 79.0545) rotate(-50.9413) scale(49.7898 81.4335)">
<stop stop-color="white"/>
<stop offset="1" stop-color="white" stop-opacity="0"/>
</radialGradient>
</defs>
</svg>
