<svg width="1560" height="581" viewBox="0 0 1560 581" fill="none" xmlns="http://www.w3.org/2000/svg">
<mask id="mask0_6469_91125" style="mask-type:alpha" maskUnits="userSpaceOnUse" x="0" y="0" width="1560" height="581">
<rect width="1560" height="581" rx="40" fill="white"/>
</mask>
<g mask="url(#mask0_6469_91125)">
<mask id="mask1_6469_91125" style="mask-type:alpha" maskUnits="userSpaceOnUse" x="0" y="-34" width="1560" height="615">
<rect y="-34" width="1560" height="615" rx="40" fill="white"/>
</mask>
<g mask="url(#mask1_6469_91125)">
</g>
<g clip-path="url(#clip0_6469_91125)">
<path d="M1533.9 630.5C1533.51 628.986 1533.17 627.473 1532.78 626.008C1517 563.267 1493.61 503.553 1463.59 447.891C1462.76 446.378 1461.97 444.913 1461.14 443.399C1429.16 385.101 1389.9 331.344 1344.59 283.348C1343.17 281.834 1341.76 280.37 1340.34 278.856C1284.97 221.144 1220.81 171.927 1150.01 133.453C1147.62 132.134 1145.13 130.865 1142.68 129.595C1053.77 82.5273 954.646 52.2553 849.616 43.0272C832.282 41.0742 814.703 40 796.979 40V40.1465C795.27 40.1465 793.512 40 791.803 40V40.1465C790.729 40.1465 789.654 40.1465 788.58 40.1465C787.945 40.1465 787.311 40.0488 786.627 40.0488C784.918 40.0976 783.16 40.0488 781.451 40.0488C779.742 40.0488 777.984 40.0976 776.275 40.0976C775.641 40.0488 775.006 40.0976 774.322 40.0976C773.248 40.0976 772.174 40.0976 771.099 40.0976V39.9512C769.391 39.9512 767.633 40.0488 765.924 40.0976V39.9512C748.15 39.9512 730.621 41.0253 713.238 42.9784C608.159 52.2065 509.086 82.4297 420.169 129.547C417.728 130.816 415.286 132.086 412.845 133.404C342.044 171.879 277.834 221.095 222.511 278.807C221.095 280.272 219.679 281.786 218.263 283.299C172.95 331.295 133.692 385.052 101.71 443.35C100.88 444.864 100.05 446.378 99.2194 447.94C69.2388 503.553 45.8499 563.218 30.0783 625.91C29.6877 627.424 29.3459 628.889 28.9552 630.402C14.502 689.433 6.78711 751.051 6.78711 814.427C6.78711 819.114 6.88477 823.752 6.98242 828.391C6.98242 829.953 6.98242 831.565 7.03125 833.127C8.64259 901.093 19.0919 966.861 37.2073 1029.46C37.6467 1030.97 38.0862 1032.43 38.5745 1033.95C57.0805 1096.4 83.2525 1155.57 115.968 1210.4C116.847 1211.87 117.725 1213.38 118.604 1214.85C154.005 1273.19 196.876 1326.56 245.9 1373.53C247.463 1375.05 249.025 1376.51 250.637 1377.97C313.674 1437.4 386.673 1486.37 466.8 1522.11C469.73 1523.43 472.709 1524.7 475.638 1525.97C549.613 1557.85 629.497 1578.5 713.14 1585.88C730.523 1587.83 748.052 1588.9 765.826 1588.9V1588.76C767.535 1588.76 769.293 1588.9 771.002 1588.9V1588.76C772.076 1588.76 773.15 1588.76 774.224 1588.76C774.859 1588.76 775.494 1588.85 776.178 1588.85C777.887 1588.8 779.645 1588.85 781.354 1588.85C783.062 1588.85 784.82 1588.8 786.529 1588.8C787.164 1588.85 787.799 1588.8 788.482 1588.8C789.557 1588.8 790.631 1588.8 791.705 1588.8V1588.95C793.414 1588.95 795.172 1588.85 796.881 1588.8V1588.95C814.606 1588.95 832.184 1587.88 849.518 1585.92C933.161 1578.6 1013.04 1557.95 1087.02 1526.01C1090 1524.75 1092.93 1523.43 1095.86 1522.16C1175.99 1486.42 1248.98 1437.44 1312.02 1378.02C1313.58 1376.56 1315.2 1375.05 1316.76 1373.58C1365.78 1326.61 1408.7 1273.29 1444.05 1214.9C1444.98 1213.38 1445.86 1211.87 1446.74 1210.36C1479.45 1155.57 1505.58 1096.4 1524.08 1034C1524.52 1032.48 1525.01 1031.02 1525.45 1029.5C1543.57 966.91 1554.02 901.141 1555.63 833.176C1555.63 831.613 1555.63 830.002 1555.68 828.44C1555.77 823.801 1555.87 819.163 1555.87 814.476C1555.87 751.1 1548.16 689.481 1533.7 630.451L1533.9 630.5ZM1528.14 626.935C1504.06 631.574 1460.22 637.287 1380.38 642.755C1369.59 581.381 1353.18 522.79 1331.85 467.861C1331.89 467.861 1331.94 467.861 1331.99 467.861C1374.13 463.027 1419.49 456.777 1458.7 448.916C1488.83 504.529 1512.32 564.243 1528.09 626.984L1528.14 626.935ZM1390.39 828.489H1191.37C1191.37 823.85 1191.46 819.212 1191.46 814.524C1191.46 760.621 1188.58 708.035 1183.16 657.208C1236.63 655.352 1286.58 653.155 1331.89 650.567C1347.81 649.64 1362.61 648.712 1376.43 647.784C1385.61 701.493 1390.49 757.3 1390.49 814.524C1390.49 819.212 1390.44 823.85 1390.34 828.489H1390.39ZM172.462 814.524C172.462 757.3 177.345 701.493 186.525 647.784C200.343 648.712 215.138 649.64 231.056 650.567C276.369 653.155 326.321 655.401 379.788 657.208C374.368 708.035 371.487 760.621 371.487 814.524C371.487 819.212 371.536 823.85 371.585 828.489H172.56C172.511 823.85 172.413 819.212 172.413 814.524H172.462ZM1186.63 828.489H987.605C987.605 823.85 987.605 819.163 987.605 814.524C987.605 762.72 986.287 711.746 983.748 662.041C1052.11 661.016 1117.49 659.405 1178.38 657.354C1183.8 708.084 1186.68 760.669 1186.68 814.524C1186.68 819.212 1186.63 823.85 1186.58 828.489H1186.63ZM779.156 1507.17C749.615 1507.17 720.318 1507.61 691.363 1508.34C669.829 1467.62 650.444 1411.86 634.136 1344.63C681.45 1343.06 729.937 1342.28 779.107 1342.23V1507.17H779.156ZM376.272 814.524C376.272 760.669 379.153 708.133 384.573 657.354C445.413 659.405 510.844 661.016 579.204 662.041C576.664 711.697 575.346 762.72 575.346 814.524C575.346 819.212 575.346 823.85 575.346 828.489H376.321C376.321 823.85 376.224 819.212 376.224 814.524H376.272ZM783.893 154.545C818.658 154.545 853.034 153.96 886.921 152.934C905.622 196.633 922.273 252.148 936.286 316.843C886.628 318.551 835.651 319.43 783.893 319.479V154.545ZM982.918 814.524C982.918 819.212 982.918 823.85 982.918 828.489H783.893V663.555C850.641 663.555 916.12 663.067 979.06 662.139C981.599 711.404 982.918 762.378 982.918 814.524ZM779.156 1337.5C729.058 1337.5 680.279 1338.33 633.061 1339.84C621.294 1290.48 611.137 1235.06 602.983 1174.91C660.063 1173.39 719.097 1172.61 779.156 1172.56V1337.5ZM580.082 814.524C580.082 762.378 581.401 711.404 583.94 662.139C646.929 663.067 712.359 663.555 779.156 663.555V828.489H580.131C580.131 823.85 580.131 819.212 580.131 814.524H580.082ZM783.893 324.215C836.578 324.215 887.848 323.288 937.312 321.627C947.956 371.674 957.038 427.091 964.216 486.708C905.817 488.319 845.416 489.149 783.893 489.149V324.215ZM783.893 493.885C845.612 493.885 906.208 493.006 964.802 491.395C971.003 543.834 975.74 599.398 978.816 657.354C915.925 658.282 850.543 658.77 783.893 658.77V493.836V493.885ZM779.156 658.819C712.457 658.819 647.124 658.331 584.233 657.403C587.309 599.398 592.045 543.785 598.295 491.346C657.817 493.006 718.658 493.885 779.205 493.934V658.868L779.156 658.819ZM779.156 833.225V998.158C713.042 998.158 648.247 998.647 585.844 999.574C582.475 946.11 580.522 890.449 580.18 833.225H779.205H779.156ZM779.156 1002.89V1167.83C718.853 1167.83 659.624 1168.66 602.348 1170.17C595.415 1118.07 589.897 1062.51 586.137 1004.31C648.442 1003.38 713.14 1002.89 779.156 1002.89ZM783.893 1002.89C849.909 1002.89 914.606 1003.38 976.912 1004.31C973.152 1062.56 967.634 1118.17 960.701 1170.27C902.497 1168.66 843.024 1167.83 783.893 1167.83V1002.89ZM783.893 998.158V833.225H982.869C982.527 890.4 980.574 946.061 977.205 999.574C914.802 998.647 850.006 998.158 783.893 998.158ZM969.538 491.248C1031.84 489.491 1091.85 486.854 1148.3 483.388C1161.39 536.705 1171.4 593.392 1177.94 652.569C1117.15 654.62 1051.86 656.182 983.601 657.256C980.574 599.788 975.837 544.176 969.587 491.248H969.538ZM969.001 486.561C961.921 427.726 952.839 372.309 941.999 321.481C994.002 319.674 1043.95 316.989 1091.41 313.474C1113.44 363.422 1132.23 418.937 1147.18 478.749C1090.88 482.167 1031.11 484.803 969.001 486.561ZM940.925 316.647C937.263 299.9 933.454 283.592 929.401 267.919C917.927 223.292 905.231 184.769 891.657 152.739C924.763 151.665 957.38 150.151 989.363 148.149C1027.01 190.725 1060.75 245.117 1089.22 308.64C1041.61 312.155 992 314.841 940.876 316.647H940.925ZM889.655 148.1C865.876 93.5131 839.313 58.6515 811.334 45.7126C874.274 51.7182 933.405 86.6287 985.261 143.657C954.109 145.561 922.175 147.075 889.606 148.1H889.655ZM779.156 489.149C717.632 489.149 657.183 488.27 598.784 486.708C605.962 427.091 615.044 371.674 625.688 321.627C675.151 323.288 726.421 324.215 779.107 324.215V489.149H779.156ZM621.05 321.432C610.161 372.26 601.128 427.677 594.047 486.512C531.938 484.755 472.171 482.167 415.872 478.7C430.814 418.889 449.613 363.374 471.634 313.425C519.096 316.891 569.047 319.577 621.05 321.432ZM473.734 308.64C502.201 245.117 535.941 190.725 573.588 148.149C605.522 150.151 638.188 151.714 671.294 152.739C657.72 184.769 645.024 223.292 633.55 267.919C629.497 283.592 625.688 299.9 622.026 316.647C570.952 314.841 521.293 312.155 473.734 308.64ZM593.461 491.151C587.163 544.127 582.475 599.788 579.448 657.305C511.185 656.28 445.902 654.717 385.11 652.618C391.653 593.392 401.663 536.657 414.749 483.29C471.683 486.757 531.84 489.393 593.461 491.151ZM575.395 833.225C575.737 889.96 577.641 945.671 581.059 999.623C513.432 1000.65 448.734 1002.16 388.431 1004.21C381.253 949.333 377.151 892.06 376.419 833.225H575.395ZM581.352 1004.36C585.063 1062.02 590.532 1117.64 597.563 1170.32C536.82 1171.98 478.324 1174.47 423.099 1177.79C408.499 1124.91 397.024 1068.32 389.065 1008.95C449.32 1006.95 513.871 1005.38 581.352 1004.36ZM598.198 1175.01C606.255 1234.28 616.362 1289.7 628.374 1339.99C579.106 1341.65 531.645 1344.04 486.332 1347.17C462.113 1298 441.214 1242.63 424.368 1182.43C479.447 1179.16 537.699 1176.67 598.198 1175.01ZM629.497 1344.72C630.815 1350.24 632.182 1355.66 633.55 1361.08C649.175 1421.87 667.046 1471.33 686.431 1508.44C658.55 1509.22 631.059 1510.34 603.96 1511.76C560.698 1472.21 521.732 1417.82 488.724 1351.9C534.037 1348.73 581.157 1346.34 629.497 1344.72ZM688.921 1513.12C708.501 1549.4 729.644 1573.13 751.617 1583.34C700.982 1578.5 652.788 1555.02 608.891 1516.25C635.112 1514.88 661.772 1513.86 688.921 1513.12ZM783.893 1172.56C843.952 1172.56 902.985 1173.39 960.066 1174.91C951.911 1235.06 941.755 1290.48 929.987 1339.84C882.77 1338.33 833.942 1337.5 783.893 1337.5V1172.56ZM933.503 1344.72C981.843 1346.34 1028.96 1348.78 1074.28 1351.9C1041.27 1417.77 1002.3 1472.16 959.04 1511.76C931.941 1510.34 904.45 1509.22 876.569 1508.44C895.954 1471.28 913.776 1421.82 929.45 1361.08C930.818 1355.71 932.185 1350.24 933.503 1344.72ZM934.626 1339.99C946.638 1289.75 956.745 1234.28 964.802 1175.01C1025.3 1176.67 1083.55 1179.16 1138.63 1182.43C1121.74 1242.68 1100.84 1298.05 1076.67 1347.17C1031.4 1344.04 983.943 1341.6 934.675 1339.99H934.626ZM965.437 1170.42C972.468 1117.73 977.937 1062.12 981.648 1004.36C1049.13 1005.38 1113.73 1006.9 1173.93 1008.95C1165.98 1068.37 1154.45 1125.01 1139.85 1177.94C1084.14 1174.66 1025.45 1172.12 965.388 1170.42H965.437ZM981.941 999.623C985.359 945.671 987.263 889.96 987.605 833.225H1186.58C1185.85 892.06 1181.75 949.333 1174.57 1004.21C1114.27 1002.21 1049.57 1000.65 981.941 999.623ZM1152.99 483.143C1215.98 479.237 1274.52 474.306 1327.06 468.398C1348.45 523.229 1364.9 581.772 1375.69 643.097C1362.07 644.025 1347.42 644.903 1331.65 645.831C1286.24 648.419 1236.24 650.665 1182.63 652.52C1176.08 593.294 1166.07 536.559 1152.99 483.192V483.143ZM1151.86 478.456C1136.92 418.644 1118.17 363.178 1096.15 313.083C1146.4 309.323 1193.76 304.734 1237.61 299.314C1272.03 348.775 1301.57 404.046 1325.25 463.808C1272.91 469.667 1214.56 474.55 1151.82 478.456H1151.86ZM1094.05 308.298C1065.78 245.02 1032.33 190.677 994.978 147.807C1025.2 145.854 1054.79 143.462 1083.7 140.728C1140.15 181.302 1190.98 233.399 1234.29 294.627C1190.24 300.046 1143.27 304.636 1094.05 308.347V308.298ZM991.072 143.315C947.761 94.8314 899.323 61.6787 847.76 47.6657C848.248 47.6657 848.737 47.7633 849.274 47.8121C931.355 57.1379 1008.7 88.1911 1077.84 136.529C1049.71 139.165 1020.76 141.46 991.072 143.315ZM884.87 148.247C851.813 149.223 818.121 149.76 783.844 149.809V44.7849C785.357 44.7849 786.871 44.7849 788.434 44.8338C823.541 46.0544 856.452 83.5527 884.87 148.247ZM779.156 319.479C727.398 319.479 676.421 318.551 626.762 316.843C640.776 252.148 657.476 196.633 676.128 152.934C710.015 153.96 744.39 154.545 779.156 154.545V319.479ZM577.69 143.657C629.546 86.5799 688.677 51.6694 751.617 45.7126C723.687 58.6515 697.124 93.5131 673.296 148.1C640.727 147.075 608.794 145.561 577.641 143.657H577.69ZM715.24 47.6168C663.677 61.6787 615.239 94.7826 571.928 143.267C542.24 141.362 513.285 139.116 485.16 136.48C554.301 88.1423 631.645 57.089 713.677 47.7633C714.165 47.7633 714.703 47.6657 715.191 47.6168H715.24ZM568.022 147.807C530.668 190.725 497.22 245.02 468.949 308.347C419.73 304.636 372.805 300.046 328.713 294.627C372.024 233.399 422.855 181.302 479.3 140.728C508.158 143.511 537.797 145.854 568.022 147.807ZM466.849 313.083C444.876 363.129 426.077 418.644 411.136 478.456C348.391 474.55 290.09 469.667 237.697 463.808C261.379 404.046 290.969 348.775 325.344 299.314C369.192 304.734 416.556 309.323 466.8 313.083H466.849ZM410.062 482.997C396.927 536.412 386.917 593.197 380.374 652.471C326.809 650.616 276.76 648.37 231.349 645.782C215.578 644.903 200.978 643.976 187.306 643.048C198.097 581.723 214.552 523.229 235.939 468.398C288.332 474.208 347.171 479.091 410.062 482.948V482.997ZM371.634 833.225C372.366 892.109 376.516 949.43 383.694 1004.36C328.762 1006.21 277.492 1008.51 231.056 1011.15C217.433 1011.93 204.64 1012.71 192.58 1013.49C180.665 955.729 173.781 895.38 172.609 833.176H371.634V833.225ZM231.349 1015.88C277.883 1013.25 329.25 1010.95 384.329 1009.1C392.288 1068.47 403.812 1125.06 418.411 1178.03C357.376 1181.69 300.393 1186.33 248.879 1191.9C225.295 1137.7 206.593 1079.5 193.605 1018.23C205.421 1017.44 217.97 1016.66 231.349 1015.93V1015.88ZM419.632 1182.67C436.478 1242.82 457.328 1298.24 481.449 1347.51C434.134 1350.83 389.31 1354.93 347.415 1359.71C309.866 1311.28 277.297 1256.35 250.783 1196.39C302.102 1190.92 358.841 1186.33 419.632 1182.67ZM483.841 1352.29C516.459 1417.72 554.936 1472.06 597.612 1512.15C572.514 1513.52 547.807 1515.18 523.539 1517.13C459.183 1479.63 400.882 1427.63 351.077 1364.45C393.069 1359.67 437.503 1355.61 483.793 1352.29H483.841ZM602.544 1516.59C637.651 1548.38 675.493 1570.54 715.24 1581.38C714.751 1581.38 714.214 1581.29 713.726 1581.24C649.321 1573.91 587.846 1553.21 530.961 1521.23C554.35 1519.42 578.276 1517.86 602.592 1516.54L602.544 1516.59ZM693.902 1513.03C721.88 1512.29 750.299 1511.9 779.107 1511.9V1584.26C777.594 1584.26 776.031 1584.26 774.517 1584.21C745.758 1583.19 718.462 1557.8 693.853 1513.03H693.902ZM783.893 1342.23C833.112 1342.23 881.55 1343.06 928.864 1344.63C912.556 1411.86 893.171 1467.62 871.637 1508.34C842.682 1507.56 813.434 1507.17 783.893 1507.17V1342.23ZM954.109 1516.25C910.212 1554.97 862.018 1578.5 811.383 1583.34C833.356 1573.18 854.499 1549.4 874.079 1513.12C901.179 1513.86 927.888 1514.88 954.109 1516.25ZM847.76 1581.38C887.458 1570.54 925.349 1548.38 960.456 1516.59C984.773 1517.91 1008.7 1519.47 1032.09 1521.28C975.203 1553.21 913.679 1573.96 849.274 1581.29C848.786 1581.29 848.297 1581.38 847.76 1581.43V1581.38ZM965.339 1512.1C1008.02 1472.06 1046.49 1417.67 1079.11 1352.24C1125.4 1355.51 1169.83 1359.57 1211.83 1364.4C1162.02 1427.58 1103.72 1479.58 1039.36 1517.08C1015.1 1515.13 990.388 1513.47 965.29 1512.1H965.339ZM1081.5 1347.51C1105.62 1298.24 1126.47 1242.87 1143.32 1182.67C1204.06 1186.33 1260.8 1190.92 1312.17 1196.39C1285.65 1256.35 1253.09 1311.23 1215.54 1359.71C1173.64 1354.93 1128.77 1350.83 1081.5 1347.51ZM1144.59 1178.18C1159.19 1125.15 1170.71 1068.52 1178.72 1009.1C1233.8 1010.95 1285.17 1013.25 1331.7 1015.88C1345.08 1016.66 1357.63 1017.4 1369.44 1018.18C1356.46 1079.45 1337.8 1137.65 1314.22 1191.85C1262.8 1186.38 1205.53 1181.84 1144.64 1178.18H1144.59ZM1331.89 1011.15C1285.46 1008.51 1234.24 1006.21 1179.26 1004.36C1186.43 949.381 1190.59 892.109 1191.32 833.225H1390.34C1389.17 895.429 1382.29 955.778 1370.37 1013.54C1358.31 1012.76 1345.52 1011.98 1331.89 1011.19V1011.15ZM1456.31 444.424C1422.23 451.211 1380.23 457.559 1331.5 463.125C1331.06 463.174 1330.58 463.222 1330.14 463.271C1306.55 403.508 1277.11 348.238 1242.88 298.679C1277.26 294.383 1309.43 289.549 1339.12 284.325C1384.73 332.272 1424.18 386.029 1456.31 444.424ZM1334.78 279.881C1333.65 280.077 1332.53 280.272 1331.41 280.467C1302.6 285.399 1271.88 289.891 1239.61 293.943C1196.79 232.96 1146.54 180.863 1090.78 139.995C1108.06 138.286 1125.11 136.431 1141.85 134.429C1213.68 172.611 1278.77 221.876 1334.82 279.833L1334.78 279.881ZM1134.48 130.572C1118.32 132.427 1101.77 134.185 1084.97 135.796C1036.43 101.13 983.845 75.0081 928.327 58.8468C1001.23 72.9574 1070.47 97.4192 1134.48 130.572ZM779.156 44.7849V149.809C744.927 149.809 711.236 149.272 678.13 148.247C706.548 83.5527 739.459 46.0544 774.566 44.8338C776.08 44.8338 777.594 44.7849 779.156 44.7849ZM634.624 58.8468C579.106 75.0081 526.518 101.179 477.982 135.796C461.185 134.185 444.632 132.427 428.47 130.572C492.484 97.4192 561.723 73.0063 634.624 58.8468ZM421.195 134.429C437.943 136.431 454.935 138.286 472.269 139.995C416.507 180.863 366.262 232.96 323.44 293.943C291.164 289.891 260.451 285.399 231.642 280.467C230.519 280.272 229.396 280.077 228.273 279.881C284.328 221.876 349.417 172.66 421.243 134.478L421.195 134.429ZM223.879 284.325C253.566 289.549 285.744 294.334 320.12 298.679C285.842 348.238 256.447 403.508 232.863 463.271C232.424 463.222 231.935 463.174 231.496 463.125C182.765 457.559 140.772 451.211 106.69 444.424C138.819 386.078 178.322 332.272 223.879 284.325ZM104.151 449.014C139.356 456.094 182.374 462.392 231.105 467.91C209.816 522.79 193.361 581.43 182.57 642.755C102.735 637.287 58.8871 631.574 34.8147 626.935C50.5863 564.243 74.0239 504.578 104.102 449.014H104.151ZM11.67 814.524C11.67 751.441 19.336 690.165 33.7404 631.476C58.8871 636.505 103.321 642.072 181.788 647.491C172.609 701.297 167.726 757.203 167.726 814.573C167.726 819.26 167.775 823.899 167.872 828.537H11.8653C11.7676 823.899 11.67 819.26 11.67 814.573V814.524ZM11.9141 833.225H167.921C169.044 895.526 175.929 955.973 187.843 1013.83C113.77 1018.81 69.0434 1023.94 42.0413 1028.67C23.9747 966.373 13.5254 900.849 11.9141 833.225ZM43.4085 1033.22C69.5806 1028.77 113.917 1023.55 188.869 1018.52C201.808 1079.84 220.461 1138.14 243.996 1192.39C239.65 1192.88 235.304 1193.36 231.008 1193.85C194.777 1198 156.153 1203.23 121.095 1209.57C88.233 1154.79 61.9633 1095.66 43.4085 1033.22ZM123.731 1214.02C154.444 1208.45 190.578 1203.23 231.496 1198.54C236.232 1198 241.066 1197.47 245.9 1196.93C272.268 1256.84 304.641 1311.77 341.995 1360.35C310.159 1364.06 280.08 1368.16 251.906 1372.65C202.541 1325.78 159.327 1272.46 123.683 1214.02H123.731ZM256.691 1377.1C284.817 1372.7 314.553 1368.65 345.657 1365.04C394.729 1427.83 452.152 1479.73 515.482 1517.71C502.396 1518.79 489.408 1519.96 476.566 1521.23C395.022 1485.93 320.754 1436.91 256.691 1377.1ZM485.697 1525.14C497.855 1524.01 510.111 1522.94 522.562 1521.91C558.207 1542.57 595.708 1558.83 634.624 1570.15C582.963 1560.14 533.109 1544.96 485.697 1525.14ZM783.893 1584.21V1511.86C812.701 1511.86 841.12 1512.25 869.098 1512.98C844.538 1557.75 817.242 1583.14 788.434 1584.17C786.92 1584.17 785.406 1584.21 783.844 1584.21H783.893ZM928.327 1570.15C967.244 1558.83 1004.74 1542.57 1040.39 1521.91C1052.84 1522.89 1065.14 1523.96 1077.25 1525.14C1029.79 1544.96 979.988 1560.14 928.278 1570.15H928.327ZM1086.39 1521.23C1073.54 1519.96 1060.6 1518.84 1047.47 1517.71C1110.85 1479.73 1168.22 1427.83 1217.29 1365.04C1248.4 1368.65 1278.09 1372.65 1306.26 1377.1C1242.2 1436.91 1167.93 1485.93 1086.39 1521.23ZM1311.09 1372.65C1282.92 1368.16 1252.84 1364.06 1221.01 1360.35C1258.31 1311.77 1290.68 1256.84 1317.1 1196.93C1321.93 1197.47 1326.77 1198 1331.5 1198.54C1372.42 1203.23 1408.56 1208.45 1439.27 1214.02C1403.62 1272.46 1360.46 1325.78 1311.04 1372.65H1311.09ZM1442 1209.48C1406.94 1203.08 1365.44 1197.37 1319.05 1192.39C1342.59 1138.09 1361.19 1079.84 1374.13 1018.52C1449.08 1023.55 1493.42 1028.72 1519.59 1033.22C1501.09 1095.61 1474.82 1154.74 1442 1209.48ZM1520.96 1028.67C1493.96 1023.94 1449.23 1018.76 1375.16 1013.83C1387.07 955.973 1393.96 895.478 1395.08 833.225H1551.09C1549.47 900.897 1539.03 966.422 1520.96 1028.67ZM1395.13 828.489C1395.18 823.85 1395.27 819.212 1395.27 814.524C1395.27 757.203 1390.39 701.297 1381.21 647.442C1459.68 642.072 1504.11 636.457 1529.26 631.427C1543.61 690.116 1551.33 751.441 1551.33 814.476C1551.33 819.163 1551.23 823.801 1551.13 828.44H1395.13V828.489Z" fill="#F8F8F8"/>
</g>
</g>
<defs>
<clipPath id="clip0_6469_91125">
<rect width="1563" height="1549" fill="white" transform="translate(0 40)"/>
</clipPath>
</defs>
</svg>
