<svg viewBox="0 0 221 230" fill="none" xmlns="http://www.w3.org/2000/svg">
<path fill-rule="evenodd" clip-rule="evenodd" d="M0.00390625 8.80377V229.689H146.716C146.716 229.689 171.347 225.28 184.269 218.26C196.57 211.577 203.93 206.601 211.326 194.702C218.918 182.486 220.422 159.015 220.422 159.015V8.80377H146.716C146.716 8.80377 148.349 43.0911 117.327 43.0911C86.3053 43.0911 88.1713 8.80377 88.1713 8.80377H0.00390625ZM40.3556 88.1077V78.3114L184.736 79.7109L184.269 88.1077H40.3556ZM40.3556 124.728V115.398L184.269 117.497V126.827L40.3556 124.728ZM40.3556 161.347V151.551H184.269V161.347H40.3556Z" fill="#5A575F"/>
<circle cx="118.034" cy="17.2009" r="16.3273" fill="#5A575F"/>
</svg>