<svg viewBox="0 0 256 246" fill="none" xmlns="http://www.w3.org/2000/svg">
<path fill-rule="evenodd" clip-rule="evenodd" d="M0.132812 87.3064V235.423H87.4392V32.1426H180.827V77.7504H190.382V20.8493H148.25V0H77.0145V66.0227H14.4667V87.3064H0.132812ZM87.4392 20.8493V10.4246H137.391V20.8493H87.4392ZM77.0145 87.3064H25.3257V75.5786H77.0145V87.3064ZM21.8508 127.267V116.408H66.5899V127.267H21.8508ZM21.8508 155.501V144.642H66.5899V155.501H21.8508ZM21.8508 185.906V175.481H66.5899V185.906H21.8508ZM21.8508 216.311V204.149H66.5899V216.311H21.8508Z" fill="#5A575F"/>
<path d="M98.7325 59.9417V70.8007H170.836V59.9417H98.7325Z" fill="#5A575F"/>
<path d="M98.7325 94.2561V103.812H137.391V94.2561H98.7325Z" fill="#5A575F"/>
<path d="M98.7325 129.439V139.43H120.885V129.439H98.7325Z" fill="#5A575F"/>
<path d="M110.46 194.593V235.423H120.885V204.149H141.734V194.593H110.46Z" fill="#5A575F"/>
<path d="M87.4392 235.423H0.132812V245.413H201.714V235.423H195.773H120.885H110.46H87.4392Z" fill="#5A575F"/>
<path d="M201.714 235.423V245.413L248.587 171.572L201.714 182.431L154.765 171.572L195.773 235.423H201.714Z" fill="#5A575F"/>
<path d="M255.536 145.076C255.536 174.823 231.422 198.937 201.675 198.937C171.929 198.937 147.814 174.823 147.814 145.076C147.814 115.33 171.929 91.2155 201.675 91.2155C231.422 91.2155 255.536 115.33 255.536 145.076ZM178.879 145.076C178.879 157.666 189.085 167.872 201.675 167.872C214.265 167.872 224.471 157.666 224.471 145.076C224.471 132.486 214.265 122.28 201.675 122.28C189.085 122.28 178.879 132.486 178.879 145.076Z" fill="#5A575F"/>
</svg>