<svg viewBox="0 0 293 230" fill="none" xmlns="http://www.w3.org/2000/svg">
	<path fill-rule="evenodd" clip-rule="evenodd" d="M27.5935 106.442V230H264.482V106.442C264.482 106.442 280.041 101.423 285.535 94.1395C290.946 86.9666 294.492 75.4186 292.383 69.5349C290.273 63.6512 232.897 0 232.897 0H59.1786C59.1786 0 1.26855 62.0465 0.219637 69.5349C-0.829273 77.0233 2.00622 82.062 6.01025 88.7907C11.6085 98.1985 27.5935 106.442 27.5935 106.442ZM43.386 106.442C53.0325 105.01 57.3484 102.128 63.39 94.1395C63.39 94.1395 79.753 106.699 91.8166 106.442C103.316 106.196 118.664 94.1395 118.664 94.1395C118.664 94.1395 135.713 107.063 148.143 106.442C159.258 105.886 173.938 94.1395 173.938 94.1395C173.938 94.1395 190.643 106.878 202.891 106.442C214.198 106.039 229.212 94.1395 229.212 94.1395C234.201 102.833 238.282 105.738 248.69 106.442V161.535H43.386V106.442ZM129.192 8.02326H96.5544L63.39 73.2791C63.39 73.2791 61.8107 92.6309 84.9732 96.814C108.136 100.997 117.085 79.6977 117.085 79.6977L129.192 8.02326ZM196.048 8.02326H162.357L176.044 79.6977C176.044 79.6977 188.151 103.767 209.208 96.814C230.265 89.8605 229.212 73.2791 229.212 73.2791L196.048 8.02326Z" fill="#5A575F"/>
</svg>