<svg viewBox="0 0 263 238" fill="none" xmlns="http://www.w3.org/2000/svg">
<path d="M237.751 165.417C244.241 158.432 268.833 59.5 261.722 47.6717C254.612 35.8434 72.423 45.5211 72.423 45.5211L61.4344 1.43374C61.4344 1.43374 3.49307 -1.79217 1.49661 1.43374C-0.499852 4.65964 -0.497886 14.3374 1.49661 18.1009C3.4911 21.8644 47.9484 18.1009 47.9484 18.1009L94.8996 200.364H229.256V184.235L109.381 183.16L104.889 165.417C104.889 165.417 231.262 172.402 237.751 165.417Z" fill="#5A575F"/>
<path d="M141.347 211.117C141.347 225.964 130.166 238 116.373 238C102.581 238 91.3992 225.964 91.3992 211.117C91.3992 196.271 102.581 184.235 116.373 184.235C130.166 184.235 141.347 196.271 141.347 211.117ZM107.783 211.117C107.783 216.224 111.629 220.364 116.373 220.364C121.118 220.364 124.964 216.224 124.964 211.117C124.964 206.011 121.118 201.871 116.373 201.871C111.629 201.871 107.783 206.011 107.783 211.117Z" fill="#5A575F"/>
<path d="M254.23 211.117C254.23 225.964 243.049 238 229.256 238C215.463 238 204.282 225.964 204.282 211.117C204.282 196.271 215.463 184.235 229.256 184.235C243.049 184.235 254.23 196.271 254.23 211.117ZM220.666 211.117C220.666 216.224 224.512 220.364 229.256 220.364C234 220.364 237.847 216.224 237.847 211.117C237.847 206.011 234 201.871 229.256 201.871C224.512 201.871 220.666 206.011 220.666 211.117Z" fill="#5A575F"/>
</svg>