<svg viewBox="0 0 201 218" fill="none" xmlns="http://www.w3.org/2000/svg">
<path d="M111.495 217.617H200.888V116.813C200.888 116.813 195.816 78.7736 158.41 78.7736C121.005 78.7736 112.747 109.839 112.747 109.839C112.747 109.839 114.031 78.7736 81.6978 78.7736C54.0798 78.7736 49.5895 100.513 48.8672 106.855C48.8167 107.935 48.7303 108.571 48.7303 108.571C48.7303 108.571 48.7438 107.937 48.8672 106.855C49.151 100.782 48.3025 80.6755 24.619 80.6755C-3.27735 80.6755 1.18386 116.813 1.18386 116.813L1.18112 154.218H48.7303V178.944H111.495V217.617Z" fill="#5A575F"/>
<circle cx="158.399" cy="35.6626" r="34.8694" fill="#5A575F"/>
<circle cx="82.3135" cy="45.806" r="24.7256" fill="#5A575F"/>
<circle cx="25.8806" cy="57.8525" r="17.7517" fill="#5A575F"/>
</svg>