<svg width="19" height="16" viewBox="0 0 19 16" fill="none" xmlns="http://www.w3.org/2000/svg">
<path d="M5.13397 0.907491C8.26861 0.635003 11.421 0.635003 14.5556 0.907491L16.0659 1.03877C17.0712 1.12617 17.9323 1.72584 18.3784 2.58361C18.4355 2.69335 18.3927 2.82621 18.2876 2.89132L12.0216 6.77025C10.6777 7.60216 8.98322 7.61962 7.62251 6.81556L1.31468 3.0882C1.21277 3.02799 1.16599 2.90402 1.21192 2.79492C1.62008 1.82536 2.53771 1.13318 3.62374 1.03877L5.13397 0.907491Z" fill="#5A575F"/>
<path d="M1.20679 4.76676C1.05082 4.6746 0.851818 4.77377 0.833638 4.95402C0.579903 7.46965 0.641314 10.0091 1.01787 12.5132C1.21639 13.8333 2.29379 14.8454 3.62374 14.961L5.13397 15.0923C8.26861 15.3647 11.421 15.3647 14.5556 15.0923L16.0659 14.961C17.3958 14.8454 18.4732 13.8333 18.6717 12.5132C19.0593 9.93613 19.113 7.32162 18.833 4.73415C18.8133 4.55264 18.6109 4.45529 18.4557 4.55139L12.8111 8.04564C10.993 9.17118 8.70038 9.19479 6.85941 8.10695L1.20679 4.76676Z" fill="#5A575F"/>
</svg>
