<svg width="17" height="17" viewBox="0 0 17 17" fill="none" xmlns="http://www.w3.org/2000/svg">
<path d="M0.844893 6.86053C2.76129 11.0344 6.1713 14.3529 10.4108 16.1519L11.0904 16.4547C12.6452 17.1475 14.473 16.6212 15.4213 15.2077L16.3094 13.884C16.5982 13.4536 16.5103 12.8739 16.1069 12.5485L13.095 10.1187C12.6527 9.76184 12.0021 9.84496 11.6637 10.3016L10.732 11.5589C8.34119 10.3795 6.40014 8.43849 5.22079 6.04768L6.47804 5.11596C6.93471 4.77754 7.01783 4.12702 6.66094 3.68464L4.23107 0.672698C3.90573 0.269416 3.32622 0.181449 2.89586 0.470018L1.56302 1.36372C0.140673 2.31742 -0.382708 4.16027 0.326024 5.71922L0.844113 6.85884L0.844893 6.86053Z" fill="#5A575F"/>
</svg>