<svg width="25" height="26" viewBox="0 0 25 26" fill="none" xmlns="http://www.w3.org/2000/svg">
    <path fill-rule="evenodd" clip-rule="evenodd" d="M12.895 24.8506H12.89C10.8901 24.8499 8.9249 24.3481 7.17951 23.3961L0.844727 25.0578L2.54002 18.8655C1.49428 17.0533 0.944018 14.9976 0.944914 12.8915C0.947536 6.30279 6.30823 0.942383 12.8949 0.942383C16.0916 0.943762 19.0919 2.18823 21.348 4.447C23.6042 6.70565 24.846 9.70795 24.8447 12.9009C24.8421 19.488 19.4835 24.8479 12.895 24.8506ZM7.47304 21.2326L7.83573 21.4479C9.36068 22.3528 11.1087 22.8316 12.891 22.8323H12.895C18.3693 22.8323 22.8249 18.3766 22.8271 12.9C22.8281 10.2461 21.796 7.75073 19.9208 5.87333C18.0456 3.99593 15.5518 2.96151 12.8989 2.96059C7.42034 2.96059 2.96472 7.41581 2.96255 12.892C2.96178 14.7687 3.48688 16.5964 4.48111 18.1778L4.71727 18.5536L3.7139 22.2187L7.47304 21.2326ZM18.5063 15.4737C18.7145 15.5744 18.8551 15.6424 18.9152 15.7426C18.9898 15.8671 18.9898 16.4649 18.7411 17.1625C18.4922 17.8599 17.2994 18.4965 16.7256 18.5822C16.2112 18.6591 15.5603 18.6912 14.845 18.4639C14.4113 18.3263 13.8552 18.1426 13.1428 17.8349C10.3436 16.6262 8.45198 13.9132 8.09446 13.4005C8.06942 13.3645 8.0519 13.3394 8.04213 13.3264L8.03972 13.3232C7.8817 13.1123 6.82293 11.6997 6.82293 10.2376C6.82293 8.86225 7.49853 8.14135 7.80951 7.80952C7.83081 7.78679 7.85041 7.76588 7.86795 7.74671C8.14164 7.44778 8.46514 7.37305 8.66418 7.37305C8.86321 7.37305 9.06248 7.37489 9.23645 7.38362C9.25791 7.3847 9.28024 7.38457 9.30332 7.38444C9.47732 7.38342 9.69425 7.38214 9.90825 7.89618C9.99058 8.09401 10.1111 8.38731 10.2381 8.69665C10.495 9.32214 10.7789 10.0132 10.8288 10.1132C10.9035 10.2627 10.9533 10.437 10.8537 10.6363C10.8388 10.6662 10.825 10.6944 10.8118 10.7214C10.737 10.874 10.682 10.9863 10.5552 11.1344C10.5053 11.1927 10.4537 11.2555 10.4021 11.3182C10.2994 11.4433 10.1967 11.5684 10.1073 11.6575C9.95779 11.8064 9.80218 11.968 9.97636 12.2669C10.1505 12.5658 10.7498 13.5436 11.6374 14.3353C12.5916 15.1864 13.4209 15.5461 13.8412 15.7284C13.9233 15.7641 13.9898 15.7929 14.0386 15.8173C14.3371 15.9668 14.5113 15.9418 14.6854 15.7426C14.8596 15.5433 15.4318 14.8707 15.6309 14.5718C15.8299 14.273 16.029 14.3228 16.3027 14.4224C16.5764 14.5221 18.0444 15.2444 18.343 15.3938C18.4013 15.423 18.4558 15.4493 18.5063 15.4737Z" fill="#5A575F"/>
</svg>
