<svg width="51" height="37" viewBox="0 0 51 37" fill="none" xmlns="http://www.w3.org/2000/svg" style="color: #5A575F;">
<path fill-rule="evenodd" clip-rule="evenodd" d="M19.1628 28.5737V29.9398V31.3059H18.6048V30.9742C18.4278 31.2202 18.1593 31.3746 17.7942 31.3746C17.0746 31.3746 16.5104 30.7747 16.5104 29.9398C16.5104 29.1056 17.0746 28.505 17.7942 28.505C18.1593 28.505 18.4278 28.6594 18.6048 28.9054V28.5737H19.1628ZM17.8637 29.0651C17.3806 29.0651 17.085 29.4596 17.085 29.9398C17.085 30.4201 17.3806 30.8146 17.8637 30.8146C18.3252 30.8146 18.6368 30.4371 18.6368 29.9398C18.6368 29.4426 18.3252 29.0651 17.8637 29.0651ZM38.0196 29.9398C38.0196 29.4596 38.3152 29.0651 38.7983 29.0651C39.2604 29.0651 39.5714 29.4426 39.5714 29.9398C39.5714 30.4371 39.2604 30.8146 38.7983 30.8146C38.3152 30.8146 38.0196 30.4201 38.0196 29.9398ZM40.098 27.4765V29.9398V31.3059H39.5394V30.9742C39.3624 31.2202 39.0939 31.3746 38.7288 31.3746C38.0092 31.3746 37.445 30.7747 37.445 29.9398C37.445 29.1056 38.0092 28.505 38.7288 28.505C39.0939 28.505 39.3624 28.6594 39.5394 28.9054V27.4765H40.098ZM26.0894 29.0369C26.4489 29.0369 26.68 29.2771 26.739 29.6997L25.4073 29.6997C25.4669 29.3052 25.6918 29.0369 26.0894 29.0369ZM24.8222 29.9398C24.8222 29.088 25.3482 28.505 26.1005 28.505C26.8195 28.505 27.3136 29.088 27.3191 29.9398C27.3191 30.0197 27.3136 30.0942 27.308 30.1682L25.4023 30.1682C25.4828 30.6602 25.8104 30.8375 26.1699 30.8375C26.4274 30.8375 26.7015 30.7341 26.9166 30.5516L27.19 30.9919C26.8785 31.2719 26.5245 31.3746 26.1379 31.3746C25.3698 31.3746 24.8222 30.8087 24.8222 29.9398ZM32.8384 29.9398C32.8384 29.4596 33.134 29.0651 33.617 29.0651C34.0785 29.0651 34.3901 29.4426 34.3901 29.9398C34.3901 30.4371 34.0785 30.8146 33.617 30.8146C33.134 30.8146 32.8384 30.4201 32.8384 29.9398ZM34.9162 28.5737V29.9398V31.3059H34.3582V30.9742C34.1806 31.2202 33.9126 31.3746 33.5476 31.3746C32.8279 31.3746 32.2638 30.7747 32.2638 29.9398C32.2638 29.1056 32.8279 28.505 33.5476 28.505C33.9126 28.505 34.1806 28.6594 34.3582 28.9054V28.5737H34.9162ZM29.6869 29.9398C29.6869 30.7688 30.229 31.3746 31.0562 31.3746C31.4427 31.3746 31.7002 31.283 31.9792 31.0488L31.7113 30.5686C31.5017 30.7289 31.2817 30.8146 31.0396 30.8146C30.594 30.8087 30.2665 30.4659 30.2665 29.9398C30.2665 29.4138 30.594 29.071 31.0396 29.0651C31.2817 29.0651 31.5017 29.1508 31.7113 29.3111L31.9792 28.8309C31.7002 28.5966 31.4427 28.505 31.0562 28.505C30.229 28.505 29.6869 29.1109 29.6869 29.9398ZM36.2048 28.9054C36.3498 28.6653 36.5594 28.505 36.8814 28.505C36.9945 28.505 37.1555 28.5279 37.279 28.5796L37.1069 29.1397C36.9889 29.088 36.8709 29.071 36.7579 29.071C36.3928 29.071 36.2103 29.3222 36.2103 29.7743V31.3059H35.6517V28.5737H36.2048V28.9054ZM21.9227 28.7909C21.6542 28.6025 21.2842 28.505 20.8761 28.505C20.226 28.505 19.8074 28.8367 19.8074 29.3798C19.8074 29.8253 20.119 30.1001 20.693 30.1858L20.9566 30.2257C21.2627 30.2715 21.4071 30.3573 21.4071 30.5117C21.4071 30.723 21.2031 30.8434 20.8221 30.8434C20.4355 30.8434 20.1565 30.7119 19.9685 30.5575L19.7054 31.02C20.0115 31.2601 20.398 31.3746 20.8165 31.3746C21.5577 31.3746 21.9872 31.003 21.9872 30.4829C21.9872 30.0026 21.6492 29.7514 21.0906 29.6657L20.8276 29.6251C20.5861 29.5911 20.3925 29.5401 20.3925 29.3569C20.3925 29.1567 20.575 29.0369 20.8811 29.0369C21.2086 29.0369 21.5257 29.1685 21.6812 29.2712L21.9227 28.7909ZM28.4468 28.9054C28.5912 28.6653 28.8008 28.505 29.1228 28.505C29.2359 28.505 29.3969 28.5279 29.5204 28.5796L29.3483 29.1397C29.2304 29.088 29.1124 29.071 28.9993 29.071C28.6342 29.071 28.4517 29.3222 28.4517 29.7743V31.3059H27.8937V28.5737H28.4468V28.9054ZM24.3606 28.5737H23.448V27.7448H22.8838V28.5737H22.3633V29.1168H22.8838V30.3631C22.8838 30.9971 23.1149 31.3746 23.7749 31.3746C24.017 31.3746 24.2961 31.2948 24.473 31.1633L24.312 30.6543C24.1455 30.757 23.963 30.8087 23.8179 30.8087C23.5389 30.8087 23.448 30.6255 23.448 30.3514V29.1168H24.3606V28.5737ZM16.0169 29.5911V31.3059H15.4528V29.7854C15.4528 29.3222 15.2703 29.0651 14.8892 29.0651C14.5187 29.0651 14.2612 29.317 14.2612 29.7913V31.3059H13.697V29.7854C13.697 29.3222 13.5096 29.0651 13.139 29.0651C12.7574 29.0651 12.5103 29.317 12.5103 29.7913V31.3059H11.9468V28.5737H12.5054V28.9107C12.715 28.5907 12.9829 28.505 13.257 28.505C13.6491 28.505 13.9281 28.6882 14.1051 28.9912C14.3417 28.6078 14.6797 28.4991 15.0072 28.505C15.6304 28.5109 16.0169 28.9454 16.0169 29.5911Z" fill="currentColor"/>
<circle cx="20.8447" cy="16" r="9" fill="currentColor"/>
<circle cx="30.8447" cy="16" r="9" fill="currentColor" fill-opacity="0.2"/>
</svg>
