<svg width="51" height="37" viewBox="0 0 51 37" fill="none" xmlns="http://www.w3.org/2000/svg" style="color: #5A575F;">
<path fill-rule="evenodd" clip-rule="evenodd" d="M8.93266 12.952C8.95031 12.9519 8.96966 12.9515 8.99053 12.9511C9.4011 12.9436 10.4045 12.9253 10.8417 14.5086C11.1512 15.6293 11.6441 17.4652 12.3206 20.016H12.5961C13.3216 17.3267 13.82 15.4909 14.0912 14.5086C14.5276 12.9281 15.5796 12.9436 16.0897 12.9511C16.1221 12.9516 16.1524 12.952 16.1802 12.952L19.7617 12.952V24.9065H16.1113V17.8615H15.8665L13.8316 24.9065H11.0851L9.05022 17.8563H8.80543V24.9065H5.15503V12.952L8.93266 12.952ZM25.0037 12.9521V20.0024H25.2949L27.7702 14.205C28.2507 13.0513 29.2748 12.9521 29.2748 12.9521H32.8073V24.9066H29.0806V17.8564H28.7894L26.3627 23.6538C25.8822 24.8022 24.8095 24.9066 24.8095 24.9066H21.277V12.9521H25.0037ZM41.7285 21.3455C43.5358 21.3455 45.1683 20.2135 45.6881 18.6329H34.2765V24.9065H37.8203V21.3455H41.7285Z" fill="currentColor"/>
<path d="M41.8995 12.952H34.0908C34.2767 15.6135 36.4127 17.8919 38.624 17.8919H45.9345C46.3564 15.6799 44.9041 12.952 41.8995 12.952Z" fill="currentColor"/>
</svg>
