<svg width="41" height="22" viewBox="0 0 41 22" fill="none" xmlns="http://www.w3.org/2000/svg" style="color: #5A575F;">
<g clip-path="url(#clip0_6429_100210)">
<path d="M20.3465 0.84978C23.8258 0.84978 27.3052 0.84978 30.7845 0.84978C30.9454 0.84978 31.1068 0.844556 31.2674 0.854351C31.4441 0.865125 31.6202 0.890264 31.7963 0.908874C31.8169 0.911159 31.8378 0.911812 31.8584 0.914097C32.0625 0.936951 32.2686 0.949684 32.4709 0.985924C32.6994 1.02673 32.9241 1.08975 33.151 1.141C33.5002 1.22001 33.8371 1.33983 34.1738 1.46324C34.68 1.64836 35.1641 1.88538 35.626 2.16681C35.9736 2.3787 36.3074 2.61671 36.6347 2.86157C36.8629 3.03199 37.0783 3.22429 37.285 3.42345C37.5481 3.67647 37.8059 3.93701 38.0487 4.21092C38.3769 4.58148 38.6681 4.98436 38.9352 5.40651C39.1777 5.7898 39.3962 6.1868 39.5851 6.60078C39.7198 6.89625 39.8304 7.20412 39.9458 7.50873C40.0118 7.68373 40.0708 7.86199 40.1241 8.04155C40.1649 8.179 40.1923 8.32069 40.2257 8.46043C40.2646 8.62334 40.3045 8.78593 40.3416 8.94917C40.3569 9.01676 40.3685 9.08564 40.3778 9.15453C40.3918 9.25835 40.4015 9.3625 40.4146 9.46665C40.4433 9.69258 40.4775 9.91785 40.5009 10.1444C40.5128 10.26 40.504 10.3782 40.5084 10.4947C40.5156 10.6972 40.5333 10.8996 40.5321 11.1017C40.5305 11.3312 40.5178 11.561 40.5012 11.7899C40.4875 11.9802 40.4669 12.1706 40.4392 12.3593C40.4065 12.581 40.3635 12.801 40.3223 13.0214C40.2908 13.1918 40.2628 13.3636 40.2204 13.5307C40.1683 13.7361 40.106 13.9388 40.0415 14.1403C39.9691 14.3668 39.8984 14.5947 39.8108 14.8151C39.7142 15.0583 39.6007 15.2944 39.4913 15.5317C39.2902 15.9673 39.0477 16.3776 38.784 16.7737C38.6425 16.9862 38.4838 17.1867 38.3308 17.3904C38.0474 17.7678 37.7298 18.1126 37.3891 18.4319C37.1438 18.6617 36.891 18.8854 36.6248 19.0878C36.3162 19.3225 35.9964 19.5439 35.6681 19.7473C35.4025 19.9122 35.1208 20.0493 34.8399 20.1851C34.5983 20.302 34.3505 20.4061 34.1011 20.5037C33.9253 20.5726 33.743 20.6226 33.5628 20.6784C33.387 20.7326 33.2109 20.7878 33.0329 20.8335C32.9067 20.8658 32.7764 20.8818 32.6482 20.9073C32.4977 20.937 32.3481 20.9706 32.1972 20.9984C32.109 21.0147 32.0195 21.0268 31.9301 21.033C31.6932 21.049 31.4559 21.0705 31.2187 21.0725C24.0409 21.1329 16.8631 21.0829 9.68493 21.0979C9.48917 21.0983 9.29342 21.0816 9.09797 21.065C8.90596 21.0486 8.71394 21.0277 8.52286 20.9997C8.36358 20.9765 8.20585 20.9406 8.0475 20.9102C7.92188 20.8864 7.79532 20.8671 7.67095 20.8371C7.52725 20.8025 7.3848 20.7607 7.24297 20.7173C7.06685 20.6634 6.89073 20.6085 6.71742 20.5462C6.53039 20.4789 6.34149 20.4136 6.16163 20.3284C5.80036 20.1573 5.43846 19.985 5.0884 19.7907C4.83498 19.65 4.59184 19.4851 4.35868 19.3098C4.03544 19.0666 3.71562 18.8158 3.41388 18.5442C3.15952 18.3153 2.92605 18.059 2.69631 17.8024C2.34003 17.4044 2.02457 16.9728 1.73593 16.5177C1.48655 16.1243 1.26867 15.7129 1.07416 15.2885C0.95446 15.0273 0.854088 14.7563 0.754028 14.486C0.674541 14.2709 0.602847 14.0521 0.540192 13.8311C0.486578 13.642 0.44699 13.4484 0.407402 13.2555C0.36158 13.0305 0.319499 12.8046 0.281782 12.5777C0.25591 12.422 0.242818 12.2636 0.219439 12.1072C0.131224 11.5202 0.160214 10.9293 0.164266 10.3393C0.165513 10.1738 0.197619 10.0086 0.216322 9.84341C0.226609 9.75265 0.236895 9.66221 0.24874 9.57178C0.271184 9.39907 0.28864 9.22538 0.319499 9.05463C0.350359 8.8842 0.393687 8.71639 0.433898 8.54825C0.464758 8.41929 0.496864 8.29033 0.532088 8.16235C0.572922 8.0138 0.613133 7.8646 0.661449 7.71899C0.730961 7.51036 0.800161 7.30109 0.883389 7.09834C0.98189 6.85838 1.09224 6.62396 1.20227 6.38922C1.41299 5.93965 1.66766 5.51686 1.94228 5.10843C2.09627 4.87924 2.26334 4.65821 2.43884 4.44665C2.66296 4.17697 2.89176 3.90958 3.13677 3.66145C3.45066 3.34346 3.78295 3.04505 4.14454 2.78648C4.42258 2.58798 4.70032 2.38784 4.9899 2.20958C5.26733 2.03883 5.55348 1.88049 5.84711 1.74304C6.14823 1.602 6.46181 1.48838 6.77259 1.37052C6.95868 1.3 7.14883 1.2383 7.3396 1.18312C7.48922 1.1397 7.64321 1.11195 7.79532 1.07767C7.93248 1.04665 8.06932 1.01433 8.2071 0.985924C8.28503 0.969926 8.36389 0.960132 8.44244 0.949358C8.60515 0.927483 8.76818 0.906588 8.93121 0.885693C8.939 0.884714 8.94679 0.884714 8.95459 0.884387C9.28251 0.872634 9.61074 0.85076 9.93867 0.850433C13.4077 0.847821 16.8765 0.848801 20.3455 0.848801L20.3465 0.84978ZM14.8516 9.8741C14.8167 9.89826 14.7908 9.91459 14.7668 9.9332C14.7029 9.98217 14.6396 10.0318 14.5763 10.0817C14.3027 10.2976 14.029 10.513 13.7568 10.7308C13.7335 10.7494 13.7123 10.784 13.7082 10.814C13.6951 10.9123 13.6858 11.0116 13.6833 11.1108C13.6786 11.2999 13.6624 11.4863 13.6181 11.6704C13.5807 11.8261 13.5658 11.9897 13.5121 12.1383C13.4115 12.4168 13.3014 12.693 13.173 12.9584C13.0779 13.1546 12.9564 13.3394 12.8301 13.5163C12.6253 13.803 12.3887 14.0626 12.1122 14.2738C11.9074 14.4305 11.6917 14.5748 11.4695 14.7025C11.2267 14.8419 10.9655 14.9428 10.6933 15.0058C10.5091 15.0485 10.3255 15.1138 10.1397 15.1226C9.93867 15.1321 9.73792 15.1781 9.53344 15.1399C9.39223 15.1135 9.24604 15.1177 9.10327 15.0995C8.97142 15.0825 8.83707 15.0681 8.71114 15.0273C8.47112 14.9496 8.22985 14.8696 8.00137 14.7622C7.61079 14.5784 7.26261 14.3234 6.95183 14.0126C6.60302 13.6639 6.31656 13.2676 6.09929 12.8173C5.96962 12.5487 5.85927 12.2711 5.79911 11.9753C5.75547 11.7612 5.69469 11.5467 5.68315 11.3299C5.66507 10.9903 5.64201 10.6475 5.70435 10.3087C5.73427 10.1464 5.75485 9.98119 5.79942 9.8235C5.86613 9.58647 5.93439 9.34748 6.0304 9.12254C6.19031 8.74806 6.40415 8.4046 6.66225 8.0951C6.92034 7.78559 7.20681 7.50612 7.54564 7.29554C7.7467 7.17049 7.95399 7.05198 8.16907 6.95763C8.3695 6.8698 8.58271 6.81136 8.79312 6.75227C8.94025 6.71081 9.09205 6.66967 9.24323 6.66379C9.68867 6.64551 10.1366 6.62266 10.5733 6.75423C10.7931 6.8205 11.0188 6.87339 11.2288 6.96514C11.4508 7.0621 11.6606 7.19237 11.8688 7.32035C11.9427 7.36573 11.9913 7.37455 12.053 7.31056C12.0979 7.26419 12.1509 7.22567 12.202 7.18584C12.4576 6.98701 12.7132 6.78884 12.9695 6.59066C13.0072 6.56128 13.005 6.53646 12.9663 6.51067C12.7478 6.36277 12.5356 6.20345 12.3096 6.06959C12.0848 5.93671 11.8495 5.82081 11.6123 5.71373C11.433 5.63276 11.2451 5.5704 11.0574 5.51261C10.9109 5.46756 10.7597 5.4372 10.6092 5.40846C10.4206 5.37255 10.2307 5.32423 10.0406 5.31901C9.64098 5.30823 9.23949 5.28375 8.8433 5.37549C8.67155 5.41532 8.49387 5.43197 8.32586 5.48454C8.08802 5.5593 7.85143 5.64517 7.62357 5.74833C7.26977 5.90864 6.93905 6.11497 6.62858 6.35527C6.28538 6.6207 5.97305 6.92171 5.69656 7.26224C5.38297 7.64879 5.11739 8.06734 4.90855 8.52736C4.777 8.81728 4.66104 9.11242 4.58374 9.42127C4.51641 9.68996 4.46996 9.96486 4.42882 10.2394C4.40388 10.4063 4.39889 10.578 4.39765 10.7474C4.39671 10.9143 4.40762 11.0814 4.42102 11.2476C4.43692 11.4429 4.45282 11.6391 4.48368 11.832C4.51516 12.0292 4.55475 12.2261 4.60899 12.4177C4.67445 12.6489 4.74645 12.8804 4.83841 13.1011C5.07843 13.6776 5.39981 14.2023 5.80379 14.6685C5.9983 14.8928 6.21431 15.0926 6.43875 15.2852C6.73051 15.5353 7.05251 15.7325 7.3823 15.916C7.58616 16.0293 7.80249 16.1201 8.01882 16.2056C8.17032 16.2657 8.32991 16.3065 8.48857 16.3447C8.62043 16.3767 8.7554 16.3949 8.88944 16.4145C9.04904 16.4377 9.20957 16.473 9.36979 16.4733C9.70083 16.474 10.0316 16.4563 10.3623 16.4423C10.4387 16.439 10.5156 16.426 10.5898 16.407C10.7797 16.3587 10.9707 16.313 11.1565 16.2503C11.3744 16.1769 11.5926 16.0988 11.8008 16.0002C12.0047 15.9036 12.2023 15.7887 12.3912 15.663C12.6079 15.5187 12.8236 15.3678 13.0178 15.1932C13.2385 14.9947 13.4423 14.7736 13.6393 14.5487C13.7771 14.3916 13.8993 14.2176 14.0137 14.0407C14.2057 13.7439 14.3606 13.4253 14.5056 13.0998C14.6549 12.7641 14.7556 12.4135 14.8291 12.055C14.8765 11.8248 14.9149 11.5885 14.9189 11.354C14.9264 10.9456 14.9064 10.5362 14.8934 10.1275C14.8909 10.0484 14.8675 9.97041 14.851 9.87508L14.8516 9.8741ZM20.1657 12.0067C20.2037 12.0067 20.2293 12.0073 20.2548 12.0067C20.7517 11.9959 21.2483 11.9848 21.7451 11.9737C21.7657 11.9734 21.7869 11.9721 21.8072 11.9685C21.9783 11.9388 22.15 11.9107 22.3206 11.8781C22.4259 11.8578 22.5341 11.8418 22.6338 11.8033C22.8327 11.7259 23.0322 11.6459 23.2211 11.5457C23.5328 11.3808 23.7869 11.1396 23.9627 10.8229C24.0549 10.6567 24.1294 10.4765 24.188 10.294C24.2444 10.1183 24.2949 9.93287 24.3034 9.74938C24.3186 9.41343 24.3414 9.07324 24.2482 8.74218C24.2036 8.58351 24.1737 8.41799 24.1107 8.2678C23.9527 7.89072 23.6834 7.61353 23.3473 7.40687C22.9879 7.18584 22.5933 7.0732 22.1843 7.01476C21.968 6.98375 21.7498 6.96187 21.5319 6.95175C21.1367 6.93379 20.7411 6.92465 20.3452 6.91878C20.199 6.91649 20.0525 6.93934 19.9063 6.9413C19.6105 6.94522 19.3144 6.94228 19.0183 6.94261C18.8852 6.94261 18.8842 6.94261 18.8852 7.07875C18.8929 8.46337 18.9064 9.84831 18.9076 11.2329C18.9085 12.2016 18.8929 13.1706 18.8852 14.1393C18.8842 14.2584 18.8864 14.2598 18.9964 14.2598C19.3496 14.2598 19.7028 14.2598 20.0556 14.2598C20.1632 14.2598 20.1635 14.2597 20.1635 14.1471C20.1641 13.4703 20.1647 12.7935 20.1654 12.1167C20.1654 12.0847 20.1654 12.0524 20.1654 12.0073L20.1657 12.0067ZM27.7628 14.2594C27.7999 14.2594 27.8301 14.2594 27.8603 14.2594C28.1589 14.2594 28.4576 14.2594 28.7559 14.2594C28.8837 14.2594 28.8846 14.2594 28.8837 14.1236C28.8756 13.0028 28.8662 11.8816 28.8597 10.7608C28.8581 10.5072 28.8578 10.2558 28.7668 10.0132C28.6561 9.71772 28.4819 9.47743 28.2359 9.29362C28.0505 9.15486 27.8491 9.05822 27.62 9.02623C27.4376 9.00076 27.2568 8.9446 27.0748 8.94003C26.7603 8.93252 26.4436 8.9002 26.1297 8.96387C25.9916 8.99194 25.8488 8.99913 25.7145 9.03896C25.4645 9.11307 25.2192 9.20318 24.9972 9.35238C24.9467 9.38634 24.9246 9.41768 24.9249 9.4784C24.9259 9.93222 24.9243 10.3864 24.9243 10.8402C24.9243 10.8679 24.928 10.896 24.9321 10.9502C24.972 10.9002 24.9941 10.8692 25.0197 10.8415C25.1328 10.719 25.2363 10.5839 25.3632 10.4794C25.5764 10.3034 25.8142 10.167 26.0851 10.1101C26.2503 10.0755 26.4162 10.036 26.5832 10.0236C26.7968 10.0076 27.0062 10.0537 27.2138 10.1115C27.3666 10.1539 27.475 10.2473 27.5471 10.3854C27.6736 10.628 27.6926 10.896 27.6929 11.1663C27.6929 11.1706 27.687 11.1748 27.6795 11.1846C27.653 11.1846 27.6222 11.1846 27.5913 11.1846C27.1761 11.1866 26.7606 11.1826 26.3454 11.1934C26.1562 11.1983 25.9673 11.2313 25.7787 11.2541C25.7204 11.2613 25.6596 11.2688 25.6054 11.2904C25.4583 11.3492 25.3089 11.406 25.1696 11.4817C24.9876 11.5806 24.8464 11.7302 24.736 11.9133C24.6085 12.1246 24.5817 12.3635 24.5583 12.6009C24.5306 12.88 24.583 13.1504 24.6724 13.4145C24.7616 13.6773 24.9068 13.897 25.126 14.0534C25.3969 14.2467 25.7089 14.3198 26.0293 14.3489C26.1403 14.359 26.2541 14.3299 26.3666 14.328C26.5178 14.3254 26.6577 14.2787 26.7992 14.2313C27.0804 14.1373 27.3232 13.9816 27.5193 13.7508C27.605 13.6499 27.6783 13.5376 27.7628 13.423V14.2601V14.2594ZM34.3945 9.0419C34.3689 9.03635 34.3567 9.03112 34.3443 9.03112C33.9627 9.03047 33.5812 9.02916 33.1993 9.0321C33.1744 9.0321 33.1358 9.06246 33.127 9.08728C33.0694 9.25444 33.0173 9.42388 32.9649 9.593C32.9182 9.74449 32.8742 9.89663 32.8278 10.0484C32.7704 10.2362 32.71 10.4229 32.6539 10.611C32.5977 10.799 32.5482 10.989 32.4899 11.1761C32.4238 11.3877 32.3512 11.597 32.281 11.8072C32.2059 12.0325 32.1308 12.2574 32.0529 12.4905C32.0332 12.4723 32.017 12.4641 32.0117 12.451C31.9572 12.3133 31.9036 12.1755 31.8518 12.0367C31.7835 11.8532 31.7187 11.6685 31.6498 11.4853C31.5837 11.31 31.513 11.1366 31.4469 10.9613C31.3646 10.7439 31.2861 10.5248 31.2041 10.3073C31.1305 10.1118 31.0541 9.9172 30.9793 9.72229C30.8977 9.5104 30.8138 9.29916 30.7368 9.08532C30.7187 9.03471 30.6935 9.02851 30.6514 9.02851C30.2646 9.02949 29.8777 9.02884 29.4909 9.02949C29.4672 9.02949 29.4432 9.03569 29.4155 9.03961C29.5018 9.26848 29.5825 9.48657 29.6667 9.70335C29.7459 9.90773 29.8297 10.1101 29.9102 10.3139C29.9984 10.5378 30.0838 10.7628 30.1726 10.9864C30.2593 11.2045 30.3503 11.4207 30.4363 11.6391C30.547 11.9192 30.6533 12.2013 30.7636 12.4814C30.8515 12.7047 30.9425 12.9267 31.0323 13.1497C31.1645 13.4785 31.2976 13.8066 31.4276 14.136C31.4606 14.2196 31.4955 14.3042 31.4394 14.3975C31.4089 14.4485 31.397 14.5111 31.3736 14.567C31.2867 14.7749 31.2 14.9816 31.0049 15.1119C30.8603 15.2085 30.7007 15.2268 30.5464 15.1837C30.4061 15.1445 30.2745 15.0652 30.1442 14.9934C30.0785 14.9568 30.0666 14.978 30.0666 15.0404C30.0666 15.3855 30.0657 15.7306 30.0682 16.0756C30.0682 16.1011 30.0903 16.1403 30.1112 16.1491C30.2474 16.2069 30.3824 16.2787 30.5252 16.3065C30.6957 16.3398 30.8737 16.3453 31.0479 16.3411C31.1639 16.3381 31.2832 16.3094 31.3933 16.2696C31.5716 16.2049 31.7196 16.0858 31.8468 15.9398C32.0775 15.6754 32.2215 15.3577 32.3468 15.0299C32.4226 14.8324 32.4908 14.6316 32.56 14.4315C32.6258 14.2415 32.6878 14.0501 32.752 13.8595C32.8103 13.6864 32.8696 13.5137 32.9282 13.341C32.9946 13.1455 33.0606 12.9496 33.127 12.754C33.1931 12.5584 33.2589 12.3629 33.3259 12.1673C33.3935 11.9695 33.4634 11.7726 33.5304 11.5744C33.5974 11.3763 33.6594 11.1761 33.7274 10.9779C33.8268 10.6877 33.9291 10.3984 34.0307 10.1088C34.1008 9.90904 34.1725 9.70988 34.2411 9.50942C34.2932 9.35695 34.3412 9.20318 34.3941 9.04059L34.3945 9.0419ZM7.67033 9.39025C7.66659 9.43759 7.66191 9.46894 7.66191 9.49995C7.66191 9.9838 7.66409 10.4676 7.66191 10.9515C7.66191 11.0145 7.68092 11.0534 7.7308 11.0824C7.76852 11.1043 7.80499 11.1288 7.84177 11.1526C8.1273 11.3384 8.41376 11.5222 8.69773 11.7102C9.00103 11.9114 9.30059 12.118 9.60482 12.3175C9.63287 12.3361 9.69272 12.3368 9.71891 12.3175C9.91965 12.1706 10.1167 12.0175 10.3133 11.8643C10.5714 11.6636 10.8277 11.4605 11.0855 11.2597C11.3987 11.0158 11.7136 10.7739 12.0262 10.529C12.251 10.3534 12.4723 10.1728 12.6973 9.99719C12.9598 9.79248 13.2257 9.59235 13.4885 9.38764C13.8077 9.13919 14.1247 8.88812 14.4432 8.63869C14.4822 8.60833 14.494 8.58123 14.4654 8.5316C14.3987 8.41537 14.3419 8.29262 14.2746 8.17672C14.1518 7.96483 14.0259 7.75457 13.8974 7.54595C13.8507 7.47021 13.8264 7.47282 13.7568 7.52832C13.5761 7.6723 13.394 7.81432 13.2117 7.95634C12.9433 8.16562 12.6736 8.37326 12.4059 8.58351C12.1796 8.76112 11.957 8.9433 11.7298 9.1196C11.3445 9.41866 10.957 9.71445 10.5708 10.0125C10.2999 10.2215 10.0266 10.4272 9.76255 10.6453C9.68462 10.7096 9.63755 10.6952 9.56742 10.6462C9.35514 10.4983 9.13943 10.3557 8.92404 10.2127C8.62729 10.0155 8.33022 9.81925 8.03254 9.62336C7.91658 9.54697 7.79938 9.47285 7.6697 9.38927L7.67033 9.39025Z" fill="currentColor"/>
<path d="M20.1643 10.7465V10.3799C20.1643 9.68447 20.1643 8.98873 20.1643 8.29332C20.1643 8.2215 20.198 8.18548 20.2653 8.18526C20.3404 8.18526 20.4159 8.18722 20.491 8.18493C20.7516 8.17742 21.0122 8.15849 21.2721 8.16306C21.4688 8.16632 21.6649 8.20289 21.8619 8.2166C22.0608 8.23031 22.2491 8.28843 22.4339 8.35731C22.6736 8.44644 22.8332 8.63058 22.9261 8.87348C22.9981 9.06154 23.0355 9.26233 23.0199 9.46409C22.9962 9.76805 22.9336 10.0655 22.7275 10.2979C22.5913 10.4514 22.4208 10.5604 22.2297 10.63C22.0443 10.6975 21.8535 10.7308 21.6571 10.7338C21.168 10.741 20.6793 10.7495 20.1902 10.757C20.1855 10.757 20.1808 10.7534 20.1637 10.7465H20.1643Z" fill="currentColor"/>
<path d="M27.0768 12.0067C27.261 12.0067 27.4449 12.0077 27.6291 12.0061C27.6743 12.0057 27.6968 12.0146 27.7046 12.0701C27.7551 12.4191 27.6182 12.6878 27.3776 12.9098C27.2261 13.0495 27.049 13.1475 26.8483 13.1739C26.6706 13.1974 26.487 13.2209 26.3109 13.1997C26.0862 13.1726 25.8895 13.0747 25.7916 12.8265C25.689 12.5666 25.7835 12.2313 26.0307 12.1181C26.1183 12.0779 26.2165 12.0534 26.3118 12.0439C26.5659 12.0188 26.8209 12.0057 27.0755 11.9878C27.0755 11.994 27.0762 12.0005 27.0765 12.0067H27.0768Z" fill="currentColor"/>
</g>
<defs>
<clipPath id="clip0_6429_100210">
<rect width="40.375" height="20.2553" fill="white" transform="translate(0.157227 0.848511)"/>
</clipPath>
</defs>
</svg>
