<svg width="51" height="37" viewBox="0 0 51 37" fill="none" xmlns="http://www.w3.org/2000/svg" style="color: #5A575F;">
<g clip-path="url(#clip0_6429_100216)">
<path d="M6.0531 12.4867L8.44987 17.0979V19.9106L6.0559 24.5128L6.0531 12.4867Z" fill="currentColor"/>
<path d="M15.2556 15.4182L17.5015 13.9366L22.0978 13.932L15.2556 18.4436V15.4182Z" fill="currentColor"/>
<path d="M15.2431 12.4583L15.2557 18.5634L12.8534 16.9746V7.84851L15.2431 12.4583Z" fill="currentColor"/>
<path d="M22.0979 13.9325L17.5015 13.9371L15.2431 12.4583L12.8534 7.84851L22.0979 13.9325Z" fill="currentColor"/>
<path d="M15.2557 24.5383V21.5762L12.8534 20.0176L12.8547 29.1527L15.2557 24.5383Z" fill="currentColor"/>
<path d="M17.496 23.0702L8.44971 17.0979L6.0531 12.4867L22.0881 23.0642L17.496 23.0702Z" fill="currentColor"/>
<path d="M12.855 29.1523L15.2557 24.5379L17.496 23.0697L22.0881 23.0637L12.855 29.1523Z" fill="currentColor"/>
<path d="M6.05615 24.5107L12.8732 20.0158L10.5813 18.5022L8.45011 19.9086L6.05615 24.5107Z" fill="currentColor"/>
<path fill-rule="evenodd" clip-rule="evenodd" d="M32.2581 19.2243C33.8048 19.2243 34.9534 18.2036 34.9534 16.6561C34.9534 15.1582 34.106 14.1858 32.6897 14.1858C32.0361 14.1858 31.4967 14.4334 31.0905 14.8607C31.1875 13.9776 31.8814 13.3327 32.6453 13.3327C32.8217 13.3327 34.149 13.3298 34.149 13.3298L34.8996 11.7837C34.8996 11.7837 33.2332 11.8246 32.4585 11.8246C30.6885 11.8577 29.4929 13.5894 29.4929 15.6927C29.4929 18.1432 30.6589 19.2243 32.2581 19.2243ZM32.2675 15.5552C32.8418 15.5552 33.2399 15.9614 33.2399 16.6559C33.2399 17.2809 32.8862 17.796 32.2675 17.7973C31.6757 17.7973 31.2776 17.3201 31.2776 16.6665C31.2776 15.9718 31.6757 15.5552 32.2675 15.5552ZM40.9258 13.8299V19.0381H39.198V15.3846H37.5344V19.0381H35.8065V13.8296L40.9258 13.8299ZM27.069 17.5956C27.6785 17.5477 28.0864 17.2944 28.0864 17.2944L28.7259 18.5678C28.3164 18.8509 27.6445 19.035 27.1574 19.0544C25.415 19.0889 24.2029 17.9477 24.2029 16.2849C24.2029 14.6432 25.4924 13.4747 27.1574 13.4747C27.8172 13.4747 28.3843 13.6652 28.8102 14.0126C28.7206 14.1836 28.5987 14.4204 28.4829 14.647L28.2975 15.0107L28.1288 15.3429C28.1288 15.3429 27.5152 14.9968 27.0514 14.9968C26.295 14.9968 25.7442 15.4699 25.7442 16.2953C25.7442 17.1417 26.3684 17.6179 27.069 17.5956ZM25.7447 22.5432C25.6919 22.6157 25.6225 22.6705 25.5392 22.7074C25.4537 22.7448 25.3623 22.7639 25.27 22.7634C25.1783 22.7647 25.087 22.7483 25.0007 22.7149C24.9231 22.6845 24.8523 22.6372 24.7925 22.576C24.7336 22.5146 24.6873 22.4406 24.6567 22.3586C24.6235 22.2689 24.607 22.1731 24.608 22.0765C24.608 21.9806 24.6233 21.8919 24.6551 21.8078C24.6856 21.7235 24.73 21.6512 24.7856 21.5906C24.8108 21.5625 24.8383 21.5373 24.8677 21.5148L24.8858 21.5016C24.9047 21.4883 24.9244 21.4758 24.9449 21.4644L24.9669 21.4526L24.9828 21.4444C25.0591 21.4089 25.1424 21.3896 25.2339 21.3896C25.3325 21.3896 25.4241 21.403 25.5073 21.4295C25.5599 21.4462 25.6074 21.4699 25.6499 21.5007C25.6749 21.519 25.6981 21.5396 25.7196 21.5627L25.6184 21.7473C25.5693 21.6994 25.5117 21.6632 25.4489 21.6407C25.3894 21.62 25.327 21.6097 25.2644 21.6098C25.209 21.6098 25.1562 21.6216 25.1049 21.6438C25.0544 21.6656 25.0082 21.6977 24.9689 21.7384C24.9286 21.78 24.897 21.8305 24.8758 21.8862C24.8523 21.9436 24.8412 22.0072 24.8412 22.0781C24.8412 22.1504 24.8536 22.2154 24.8771 22.2715C24.9009 22.3291 24.9327 22.378 24.973 22.4193C25.0132 22.4607 25.0604 22.4916 25.1145 22.5123C25.1366 22.5214 25.1591 22.5285 25.1821 22.5336C25.2157 22.5413 25.2505 22.5449 25.2867 22.5449C25.3616 22.5449 25.4297 22.5285 25.4879 22.4974C25.5184 22.4815 25.5474 22.4624 25.5742 22.4404C25.5981 22.4208 25.6203 22.399 25.6406 22.375L25.7447 22.5432ZM26.0306 22.7324V21.4177H26.2499V22.3972L26.9632 21.4177H27.1826V22.7325H26.9632V21.7532L26.2499 22.7325L26.0306 22.7324ZM28.6356 22.5432C28.5817 22.6163 28.5109 22.6729 28.4303 22.7074C28.3813 22.7287 28.3303 22.7441 28.2784 22.7533C28.2396 22.7601 28.2003 22.7636 28.1609 22.7634C28.1242 22.7639 28.0874 22.7616 28.0511 22.7564C27.9968 22.7488 27.9434 22.735 27.8917 22.7149C27.874 22.7079 27.8566 22.7001 27.8396 22.6914C27.8191 22.6809 27.7991 22.6691 27.7798 22.6562C27.7453 22.6332 27.713 22.6063 27.6835 22.576C27.6244 22.5146 27.5782 22.4406 27.5475 22.3586C27.5144 22.2689 27.4978 22.1731 27.4989 22.0765C27.4989 21.9806 27.5142 21.8919 27.5461 21.8078C27.5768 21.7235 27.6211 21.6512 27.6766 21.5906C27.7321 21.5285 27.7987 21.4814 27.8736 21.4444C27.9527 21.407 28.0384 21.3883 28.1248 21.3896C28.1821 21.3896 28.237 21.3941 28.2892 21.4031L28.3199 21.4089C28.3315 21.4113 28.343 21.4141 28.3544 21.417L28.3746 21.4224L28.3983 21.4295C28.4816 21.456 28.5523 21.5004 28.6106 21.5627L28.5093 21.7473C28.4604 21.6994 28.4027 21.6632 28.3401 21.6407C28.325 21.6355 28.3098 21.6308 28.2944 21.6268C28.2838 21.6242 28.2732 21.622 28.2625 21.6199C28.2524 21.618 28.2423 21.6162 28.2321 21.6148L28.2097 21.6122C28.1917 21.6105 28.1736 21.6097 28.1555 21.6098C28.0452 21.6102 27.9393 21.6563 27.8597 21.7384C27.8495 21.7494 27.8397 21.7606 27.8305 21.7726C27.8196 21.7866 27.8096 21.8015 27.8004 21.817C27.7874 21.839 27.7761 21.862 27.7667 21.8862C27.7616 21.8986 27.7571 21.9115 27.7531 21.9246C27.7486 21.9397 27.7448 21.9551 27.7417 21.9709C27.7353 22.0047 27.7321 22.0403 27.7321 22.0781C27.7321 22.1122 27.7349 22.1447 27.7402 22.1753C27.7435 22.1935 27.7476 22.2109 27.7526 22.2277C27.7571 22.2429 27.7623 22.2575 27.7682 22.2715C27.7831 22.308 27.8013 22.3409 27.8228 22.3706C27.8354 22.3878 27.8491 22.404 27.8639 22.4193C27.9041 22.4607 27.9515 22.4916 28.0055 22.5123C28.0596 22.533 28.1166 22.5449 28.1775 22.5449C28.2031 22.5449 28.2278 22.543 28.2515 22.5392C28.2973 22.5321 28.3396 22.5179 28.3788 22.4974C28.4364 22.4674 28.4883 22.4259 28.5315 22.375L28.6356 22.5432ZM28.7494 21.4177H29.8735V21.6512H29.4211V22.7324H29.2018V21.6512H28.7494V21.4177ZM31.1129 22.5892C31.0519 22.6481 30.9812 22.6911 30.8978 22.7192C30.8175 22.7471 30.7338 22.7615 30.6495 22.762C30.6157 22.7625 30.5819 22.7606 30.5484 22.7564C30.4897 22.749 30.4319 22.7346 30.3761 22.7133C30.2941 22.6809 30.2249 22.6349 30.1679 22.5744C30.1097 22.513 30.0643 22.439 30.0346 22.3573C30.0041 22.2731 29.9874 22.1786 29.9874 22.0751C29.9866 21.9834 30.0012 21.8924 30.0305 21.8064C30.0572 21.7255 30.0992 21.6516 30.1539 21.5892C30.18 21.5602 30.2085 21.5339 30.239 21.5106C30.2744 21.4838 30.3124 21.461 30.3525 21.4428C30.3982 21.4224 30.4477 21.4073 30.5013 21.3983C30.5402 21.3917 30.5812 21.3883 30.6244 21.3883C30.6499 21.3881 30.6753 21.3896 30.7003 21.3929C30.723 21.3959 30.7456 21.4002 30.7678 21.4057C30.7949 21.4127 30.8217 21.4217 30.8479 21.4326C30.916 21.4598 30.9783 21.5015 31.0311 21.5552C31.0447 21.5693 31.0574 21.5838 31.0694 21.5992C31.0793 21.6119 31.0887 21.6249 31.0975 21.6384C31.1112 21.659 31.1236 21.6809 31.1345 21.7033C31.1413 21.7171 31.1475 21.7313 31.1532 21.7457C31.1658 21.7762 31.1758 21.808 31.1832 21.8411C31.1937 21.888 31.199 21.938 31.199 21.991C31.199 22.0516 31.1949 22.1032 31.1852 22.149H30.2359C30.2456 22.2733 30.2886 22.3706 30.3676 22.44C30.4468 22.5096 30.5467 22.5434 30.6674 22.5434C30.7086 22.5434 30.748 22.5399 30.7853 22.533C30.8209 22.5264 30.8548 22.5167 30.8868 22.5037C30.952 22.477 31.0061 22.4446 31.0464 22.4061L31.1129 22.5892ZM30.6147 21.6084C30.5009 21.6084 30.4107 21.6408 30.3427 21.7072C30.2755 21.7726 30.2326 21.8619 30.222 21.9584H30.9714C30.9658 21.8492 30.9327 21.7636 30.8701 21.7015C30.8598 21.6911 30.8487 21.6817 30.8371 21.6733C30.8262 21.6651 30.8146 21.6578 30.8026 21.6512C30.7935 21.6462 30.784 21.6417 30.7742 21.6376C30.7278 21.6181 30.6745 21.6084 30.6147 21.6084ZM31.4974 21.4177H31.6973L32.172 22.0692L32.6215 21.4177H32.8159V22.7325H32.5967V21.7738L32.1691 22.3839H32.1608L31.7168 21.7736V22.7324H31.4974V21.4177ZM33.3167 21.4574C33.3478 21.4432 33.3798 21.4314 33.4125 21.4222C33.4834 21.4016 33.5569 21.3898 33.6347 21.3898C33.7105 21.3898 33.7766 21.3987 33.8329 21.4163C33.8706 21.4281 33.9038 21.4439 33.9325 21.4635C33.96 21.482 33.9834 21.5042 34.0025 21.5301C34.0334 21.5708 34.0575 21.6192 34.0747 21.675C34.0969 21.7469 34.1079 21.8312 34.1079 21.9276V22.7341H33.9026V22.5642C33.8664 22.6145 33.8165 22.6587 33.7539 22.6972C33.6916 22.7355 33.6096 22.7547 33.5069 22.7547C33.4325 22.7547 33.3677 22.7396 33.3124 22.7094C33.3003 22.7029 33.2887 22.6956 33.2775 22.6876C33.2699 22.6821 33.2625 22.6762 33.2554 22.6701C33.2474 22.6633 33.2396 22.6561 33.2322 22.6484C33.1628 22.5775 33.128 22.477 33.128 22.3485C33.1274 22.2866 33.1397 22.2256 33.1642 22.1696C33.1871 22.1186 33.2202 22.0737 33.2613 22.0384C33.3016 22.0028 33.3515 21.9761 33.4097 21.9584C33.4212 21.955 33.4329 21.9517 33.4447 21.9488L33.4624 21.9446L33.4823 21.9407C33.5184 21.934 33.5557 21.9303 33.5945 21.9303C33.6476 21.9311 33.7005 21.937 33.7526 21.9482C33.8065 21.9583 33.8577 21.981 33.9026 22.0148C33.9026 21.9886 33.902 21.9633 33.9009 21.9389L33.8987 21.903C33.8973 21.8836 33.8953 21.8646 33.8928 21.8463C33.8859 21.7946 33.8734 21.7504 33.8539 21.7149C33.8447 21.6982 33.8338 21.6828 33.8209 21.6693C33.8149 21.6629 33.8085 21.6568 33.8015 21.6512C33.7969 21.6476 33.7919 21.6439 33.7868 21.6407C33.7812 21.637 33.7754 21.6337 33.7693 21.6306C33.7319 21.61 33.6832 21.5994 33.6222 21.5994C33.5458 21.5994 33.482 21.6084 33.4321 21.6277L33.4055 21.6382L33.383 21.6474L33.3566 21.659C33.3318 21.6703 33.307 21.6825 33.2821 21.6956L33.2238 21.5093C33.2536 21.4895 33.2846 21.4722 33.3167 21.4574ZM33.5835 22.5434C33.6639 22.5434 33.7292 22.5259 33.7792 22.4874C33.8242 22.4551 33.8653 22.4168 33.9012 22.3735V22.2065C33.877 22.1878 33.8511 22.1722 33.8237 22.1596C33.8083 22.1525 33.7924 22.1464 33.7761 22.1413C33.7647 22.1379 33.7531 22.1348 33.7413 22.132C33.7277 22.1288 33.7139 22.1264 33.6997 22.1245C33.6753 22.1212 33.65 22.1195 33.6237 22.1195C33.5903 22.1195 33.5586 22.1238 33.5265 22.1327C33.5106 22.1368 33.4952 22.1426 33.4803 22.1499C33.4671 22.1562 33.4542 22.1639 33.4419 22.1727C33.4184 22.1904 33.3976 22.2126 33.3822 22.2407L33.379 22.2467C33.3767 22.2514 33.3746 22.2561 33.3728 22.261C33.3707 22.2663 33.3689 22.2719 33.3674 22.2776C33.3659 22.2828 33.3647 22.2882 33.3637 22.2937C33.3612 22.3071 33.36 22.3213 33.36 22.3366C33.36 22.3986 33.3794 22.4489 33.4184 22.4872C33.4407 22.5085 33.4687 22.524 33.502 22.5331C33.5263 22.5399 33.5535 22.5434 33.5835 22.5434ZM36.169 20.8418C36.1301 20.8964 36.0886 20.9333 36.0442 20.9553C35.9997 20.9775 35.9512 20.9925 35.8984 21.0043C35.8588 21.0131 35.8174 21.0212 35.774 21.0297L35.7305 21.0384C35.6647 21.0514 35.6008 21.0738 35.5403 21.1048C35.5173 21.1154 35.4954 21.1282 35.4747 21.1429C35.4598 21.1535 35.4457 21.165 35.4322 21.1775L35.416 21.1932L35.4062 21.2038L35.396 21.2154C35.3885 21.225 35.3813 21.2346 35.3743 21.2445C35.3605 21.2641 35.3477 21.2844 35.3361 21.3056C35.3245 21.3269 35.3139 21.3491 35.3045 21.3721C35.2808 21.4295 35.2628 21.4904 35.2502 21.5538C35.2378 21.6174 35.2309 21.6793 35.2266 21.7398H35.2323C35.2517 21.6927 35.2794 21.6512 35.3127 21.6141C35.3468 21.5767 35.3855 21.5445 35.4279 21.5183C35.4371 21.5126 35.4465 21.507 35.456 21.5016C35.4667 21.4957 35.4776 21.4902 35.4886 21.485C35.5139 21.473 35.54 21.463 35.5667 21.4548C35.6167 21.4401 35.668 21.4326 35.7208 21.4326C35.7723 21.4319 35.8236 21.438 35.8736 21.4506C35.9027 21.4581 35.9313 21.4678 35.9594 21.4798C36.0284 21.5093 36.0905 21.5549 36.1413 21.6129C36.192 21.6722 36.2309 21.7421 36.2551 21.8182C36.2815 21.8981 36.2954 21.9881 36.2954 22.0869C36.2954 22.1786 36.2801 22.2657 36.2482 22.3469C36.2351 22.382 36.2193 22.4154 36.2011 22.447C36.1772 22.4886 36.1492 22.5267 36.1177 22.5612C36.0607 22.6236 35.9927 22.6732 35.9178 22.7074C35.8402 22.7429 35.7541 22.7621 35.6611 22.7621C35.5598 22.7621 35.4696 22.7429 35.3891 22.7046C35.3086 22.6663 35.2405 22.6129 35.1836 22.542C35.1267 22.4725 35.0838 22.387 35.0531 22.2849C35.0226 22.183 35.0074 22.0694 35.0074 21.9437C35.0074 21.8463 35.0129 21.7445 35.0241 21.6381C35.0349 21.5337 35.0569 21.4313 35.0892 21.3322C35.1212 21.2346 35.1684 21.1461 35.2281 21.0679C35.2878 20.9895 35.3668 20.9276 35.4655 20.8817L35.487 20.8716C35.4975 20.8669 35.5082 20.8624 35.5189 20.8583C35.5384 20.8507 35.558 20.8437 35.5779 20.8375C35.5898 20.8338 35.6018 20.8303 35.6139 20.8272C35.629 20.8233 35.6443 20.8198 35.6597 20.8168L35.7357 20.8028L35.7763 20.7952L35.8179 20.7872C35.8423 20.7827 35.8665 20.7766 35.8902 20.769C35.9089 20.7631 35.9273 20.7563 35.9456 20.7487C35.9556 20.7445 35.9654 20.7392 35.9749 20.7331L35.9873 20.7244C36.0097 20.7076 36.0305 20.6851 36.0497 20.6572L36.169 20.8418ZM35.242 21.9881C35.2407 22.0661 35.251 22.1439 35.2724 22.2185C35.2908 22.2816 35.3195 22.3406 35.3571 22.3929C35.393 22.4397 35.438 22.4775 35.489 22.5037C35.5403 22.5302 35.596 22.5435 35.6569 22.5435C35.7031 22.5435 35.7454 22.5368 35.7849 22.5231L35.7992 22.5179C35.8069 22.5149 35.8146 22.5117 35.8222 22.508C35.8701 22.4862 35.9136 22.4539 35.9498 22.4137C35.986 22.3733 36.0144 22.3255 36.0332 22.2731C36.0524 22.2201 36.0637 22.1623 36.0637 22.0989C36.0637 21.9704 36.0303 21.864 35.9622 21.7785C35.9394 21.7501 35.9133 21.7265 35.8838 21.7076C35.8595 21.692 35.8329 21.6797 35.804 21.6705C35.7634 21.6577 35.7181 21.6512 35.668 21.6512C35.5644 21.6504 35.4636 21.6873 35.3821 21.7561C35.3461 21.7873 35.3155 21.8227 35.2919 21.8626C35.2837 21.8758 35.2763 21.8894 35.2698 21.9037C35.2646 21.9151 35.2598 21.9267 35.2557 21.9385C35.2501 21.9546 35.2455 21.9713 35.242 21.9881ZM37.7582 21.4179H37.9775V22.7327H37.7582V21.4179ZM36.8311 21.4179H36.6117H36.6104V22.7341H37.0087C37.0287 22.7341 37.0479 22.7334 37.0664 22.7322C37.0781 22.7315 37.0894 22.7304 37.1005 22.7292C37.1105 22.7282 37.1203 22.727 37.1299 22.7254C37.1754 22.7185 37.2163 22.7074 37.253 22.6928C37.2684 22.6866 37.2832 22.68 37.2972 22.6729L37.3151 22.6632L37.3293 22.655C37.3393 22.6488 37.3489 22.6422 37.358 22.6353C37.3639 22.6309 37.3695 22.6264 37.375 22.6219C37.3817 22.6162 37.3881 22.6103 37.3943 22.6042C37.4002 22.5985 37.4058 22.5924 37.4111 22.5864C37.45 22.542 37.4793 22.4933 37.496 22.4373C37.5066 22.404 37.5139 22.3707 37.518 22.3369C37.5209 22.3135 37.5223 22.2897 37.5223 22.2657C37.5223 22.253 37.5219 22.2405 37.5211 22.228C37.5204 22.2171 37.5195 22.2063 37.5182 22.1956C37.5144 22.1616 37.5078 22.1285 37.4987 22.0957C37.4834 22.0413 37.457 21.9926 37.4195 21.9512C37.3821 21.9097 37.3322 21.8759 37.2697 21.8506C37.2071 21.8257 37.1295 21.8123 37.0338 21.8123H36.8311V21.4179ZM36.9907 22.5139H36.8311V22.0323V22.0292H36.9935C37.0139 22.0292 37.0333 22.0299 37.0516 22.0315C37.0796 22.0338 37.105 22.0382 37.1278 22.0443C37.1449 22.0487 37.1605 22.0545 37.1747 22.0611C37.1927 22.0696 37.2081 22.0796 37.2212 22.0914C37.2359 22.1053 37.2483 22.1211 37.2583 22.1391C37.2693 22.1588 37.2775 22.1812 37.2826 22.206C37.2869 22.2266 37.2891 22.249 37.2891 22.2731C37.2891 22.3515 37.267 22.4104 37.2225 22.4518C37.203 22.4699 37.1773 22.4841 37.1454 22.4943C37.1042 22.5073 37.0525 22.5139 36.9907 22.5139ZM39.4279 22.5432C39.3752 22.6157 39.3057 22.6705 39.2225 22.7074C39.137 22.7446 39.0456 22.7637 38.9533 22.7634C38.8615 22.7647 38.7703 22.7483 38.684 22.7149C38.6064 22.6845 38.5355 22.6372 38.4758 22.576C38.4532 22.5524 38.4324 22.5269 38.4136 22.4999L38.3984 22.4768C38.3929 22.4681 38.3877 22.4593 38.3826 22.4503L38.3756 22.4376C38.371 22.4291 38.3667 22.4204 38.3625 22.4116C38.3569 22.4 38.3515 22.3882 38.3465 22.3761L38.3398 22.3586C38.3067 22.2689 38.2902 22.1731 38.2913 22.0765C38.2913 21.9806 38.3064 21.8919 38.3384 21.8078C38.3689 21.7235 38.4133 21.6512 38.4689 21.5906C38.5244 21.5285 38.5909 21.4814 38.666 21.4444C38.7451 21.407 38.8308 21.3883 38.9172 21.3896C39.0156 21.3896 39.1073 21.403 39.1906 21.4295C39.274 21.456 39.3447 21.5004 39.4029 21.5627L39.3016 21.7473C39.2811 21.7272 39.259 21.7091 39.2357 21.6934C39.2242 21.6856 39.2123 21.6783 39.2002 21.6715C39.1907 21.6663 39.181 21.6615 39.1711 21.6568L39.1526 21.6486L39.1322 21.6407C39.0726 21.62 39.0103 21.6097 38.9477 21.6098C38.9254 21.6098 38.9035 21.6117 38.8819 21.6154C38.8499 21.6209 38.8188 21.6306 38.788 21.6438C38.7375 21.6656 38.6914 21.6979 38.6521 21.7384C38.6393 21.752 38.6272 21.7664 38.6162 21.7814L38.6066 21.7951C38.5875 21.8234 38.5716 21.8539 38.559 21.8862C38.5355 21.9436 38.5244 22.0072 38.5244 22.0781C38.5244 22.1504 38.5368 22.2154 38.5604 22.2715C38.584 22.3291 38.616 22.378 38.6563 22.4193C38.6964 22.4607 38.7436 22.4916 38.7978 22.5123C38.852 22.533 38.9089 22.5449 38.9699 22.5449C39.015 22.5449 39.0571 22.5391 39.0964 22.5274C39.1064 22.5245 39.1161 22.5212 39.1257 22.5175C39.1413 22.5118 39.1564 22.5051 39.1712 22.4974C39.2288 22.4674 39.2807 22.4259 39.3239 22.375L39.4279 22.5432ZM39.5417 21.4177H40.6659V21.6512H40.2134V22.7324H39.9941V21.6512H39.5417V21.4177ZM40.9046 21.4181H41.1239V21.5731C41.1655 21.5197 41.2252 21.4772 41.3016 21.4417C41.3779 21.4061 41.4584 21.3884 41.5443 21.3884C41.5582 21.3881 41.5721 21.3884 41.5859 21.3893C41.6139 21.391 41.6416 21.3948 41.6689 21.4007C41.7075 21.4091 41.7452 21.4217 41.7816 21.4385C41.8502 21.4694 41.9115 21.5164 41.9608 21.576C42.0111 21.6372 42.0497 21.7085 42.0746 21.7856C42.0874 21.8251 42.0972 21.8666 42.104 21.9101C42.1112 21.9562 42.1148 22.0044 42.1148 22.0547C42.1148 22.1535 42.0995 22.2467 42.069 22.3336C42.0385 22.4208 41.9954 22.4947 41.9385 22.5584C41.8807 22.6219 41.8119 22.6725 41.736 22.7076C41.6568 22.7429 41.5694 22.762 41.4722 22.762C41.4069 22.762 41.3431 22.7547 41.2821 22.74C41.2211 22.7252 41.1683 22.703 41.1239 22.672V23.3174H40.9046V21.4181ZM41.4807 21.6084C41.4071 21.6084 41.3391 21.6263 41.2766 21.6618C41.2143 21.6972 41.1628 21.74 41.1241 21.7901V22.4416C41.1738 22.4775 41.2286 22.5045 41.2864 22.5215C41.3391 22.5362 41.3948 22.5435 41.4543 22.5435C41.5157 22.5448 41.5767 22.5321 41.6334 22.5066C41.6842 22.4843 41.7301 22.4504 41.7679 22.4076C41.8056 22.3643 41.8346 22.313 41.8527 22.257C41.8721 22.1979 41.8833 22.1344 41.8833 22.0635C41.8833 22.0486 41.8829 22.0338 41.882 22.0195L41.8801 21.996L41.8783 21.9794L41.8759 21.9623L41.8731 21.9458L41.8692 21.9266C41.8658 21.9107 41.8617 21.8953 41.8568 21.8802C41.8402 21.8243 41.8139 21.7769 41.7792 21.7355C41.7444 21.6942 41.7028 21.6632 41.6529 21.641C41.6014 21.6188 41.5445 21.6084 41.4807 21.6084ZM43.5776 21.4179H43.7969V22.7325H43.5776V21.4179ZM42.6492 21.4179H42.4299H42.4286V22.7339H42.8268C42.924 22.7339 43.0045 22.7192 43.0711 22.6928C43.1377 22.6661 43.1905 22.6307 43.2293 22.5864C43.2682 22.542 43.2973 22.4933 43.314 22.4371C43.332 22.3811 43.3403 22.3247 43.3403 22.2657C43.3403 22.2065 43.332 22.1505 43.3167 22.0957C43.3015 22.0413 43.2751 21.9924 43.2377 21.9512C43.2002 21.9097 43.1503 21.8758 43.0877 21.8506C43.0252 21.8257 42.9476 21.8123 42.8517 21.8123H42.6492V21.4179ZM42.8104 22.5139H42.6507V22.0323V22.0292H42.8131C42.9185 22.0292 42.9949 22.05 43.0407 22.0914C43.0851 22.1329 43.1086 22.1932 43.1086 22.2731C43.1086 22.3515 43.0864 22.4104 43.0421 22.4517C42.9977 22.4933 42.9199 22.5139 42.8104 22.5139ZM44.849 22.0516L45.3181 22.7325H45.0489L44.6866 22.2006L44.3188 22.7325H44.0635L44.5297 22.0631L44.0911 21.4177H44.3605L44.695 21.9141L45.0349 21.4177H45.2903L44.849 22.0516ZM25.5824 24.3573H24.9093V25.4535H24.6899V24.1388H25.8016V25.4535H25.5824V24.3573ZM27.0465 24.372H26.6135L26.5995 24.5936C26.5899 24.7116 26.5782 24.8149 26.5635 24.9041C26.5548 24.9566 26.5451 25.0043 26.5343 25.0471C26.5051 25.1624 26.469 25.251 26.4275 25.3131C26.3859 25.3751 26.3372 25.4179 26.2816 25.4387C26.2243 25.4611 26.1637 25.472 26.1027 25.4712L26.086 25.2435C26.1096 25.2449 26.1373 25.2392 26.1678 25.2244C26.1986 25.2097 26.2291 25.1771 26.258 25.1286C26.2873 25.0781 26.3137 25.0072 26.3372 24.9157C26.3608 24.8226 26.3762 24.7016 26.3844 24.5492L26.4067 24.1401H27.2658V25.4548H27.0465V24.372ZM27.6682 24.2288C27.7223 24.1919 27.7862 24.1624 27.857 24.1418C27.9293 24.1203 28.004 24.1094 28.079 24.1094C28.2539 24.1094 28.3774 24.1563 28.4468 24.2496C28.5175 24.3427 28.5524 24.4757 28.5524 24.647V25.4535H28.3469V25.2836C28.3107 25.3338 28.2608 25.3782 28.1985 25.4165C28.1359 25.455 28.0542 25.4743 27.9514 25.4743C27.8376 25.4743 27.7459 25.4387 27.6766 25.3678C27.6385 25.3292 27.611 25.2815 27.5937 25.2252C27.5796 25.1785 27.5725 25.1261 27.5725 25.0681C27.5724 25.0587 27.5726 25.0494 27.573 25.04C27.5741 25.0194 27.5766 24.9991 27.5806 24.9792C27.5866 24.9481 27.5959 24.9179 27.6085 24.8892C27.6314 24.8382 27.6646 24.7933 27.7056 24.7579C27.7275 24.7385 27.7522 24.7219 27.7796 24.7078C27.8027 24.696 27.8275 24.6861 27.8542 24.678C27.9124 24.6602 27.9736 24.6499 28.0388 24.6499C28.0919 24.6506 28.1448 24.6565 28.197 24.6676C28.2169 24.6714 28.2365 24.677 28.2555 24.6841C28.2879 24.6962 28.3186 24.713 28.3469 24.734C28.3469 24.6735 28.3441 24.6175 28.3372 24.5657C28.3334 24.5383 28.3282 24.513 28.3212 24.4899C28.3176 24.4781 28.3136 24.4669 28.3091 24.4563C28.3057 24.4487 28.3022 24.4412 28.2984 24.4343C28.2789 24.3987 28.2512 24.3692 28.2136 24.35C28.1892 24.3367 28.1602 24.3274 28.126 24.3228L28.1092 24.3209C28.0957 24.3197 28.0815 24.319 28.0665 24.319C27.9903 24.319 27.9263 24.328 27.8763 24.347C27.8618 24.3526 27.8474 24.3585 27.8329 24.3646C27.7975 24.3795 27.7621 24.3961 27.7266 24.415L27.6682 24.2288ZM28.0292 25.2629C28.0795 25.2629 28.1239 25.256 28.1622 25.2414C28.1853 25.2326 28.2061 25.2212 28.2248 25.2066C28.2699 25.1745 28.311 25.1362 28.3471 25.0929V24.9259C28.2707 24.867 28.1776 24.8391 28.0695 24.8391C28.0568 24.8391 28.0442 24.8396 28.0316 24.8408C28.0116 24.8429 27.9918 24.8467 27.9723 24.8521C27.9403 24.8611 27.9113 24.8743 27.8877 24.8921C27.8641 24.9098 27.8432 24.932 27.828 24.9601C27.8126 24.9881 27.8057 25.0192 27.8057 25.0561C27.8057 25.118 27.8252 25.1683 27.8641 25.2066C27.9029 25.2437 27.957 25.2629 28.0292 25.2629ZM28.7688 24.1388H29.893V24.3722H29.4404V25.4535H29.2213V24.3724H28.7688V24.1388ZM31.0164 25.3964C30.9854 25.4138 30.9525 25.4283 30.9173 25.4401C30.8341 25.4682 30.7508 25.4831 30.6688 25.4831C30.5757 25.4843 30.4832 25.4678 30.3955 25.4342C30.3136 25.4018 30.2441 25.3559 30.1872 25.2954C30.1303 25.2349 30.0846 25.1624 30.0539 25.0783C30.0234 24.9939 30.0067 24.8996 30.0067 24.7961C30.006 24.7043 30.0206 24.6133 30.0499 24.5272C30.0623 24.4896 30.0781 24.4535 30.097 24.4193C30.1185 24.3802 30.1441 24.3434 30.1734 24.3102C30.2297 24.2474 30.2972 24.1976 30.372 24.1638C30.451 24.1283 30.5412 24.1092 30.6439 24.1092C30.7204 24.1087 30.7961 24.1237 30.8674 24.1536C30.9355 24.1808 30.9977 24.2226 31.0504 24.2761C31.1027 24.3303 31.1443 24.3951 31.1727 24.4667C31.2032 24.5405 31.2185 24.6219 31.2185 24.7118C31.2185 24.7725 31.2142 24.8243 31.2047 24.8699H30.2554C30.2651 24.9941 30.3079 25.0917 30.3871 25.161C30.4663 25.2304 30.5662 25.2643 30.6869 25.2643C30.7675 25.2643 30.841 25.2511 30.9061 25.2246C30.9714 25.1979 31.0256 25.1655 31.0658 25.1269L31.1324 25.3101C31.0971 25.3441 31.0587 25.3729 31.0164 25.3964ZM30.6329 24.3278C30.519 24.3278 30.4288 24.3604 30.3609 24.4268C30.2937 24.492 30.2508 24.5813 30.2401 24.678H30.9896C30.984 24.5686 30.9507 24.483 30.8883 24.4209C30.8258 24.3604 30.7412 24.3278 30.6329 24.3278ZM31.603 24.1388H31.3254L31.7791 24.7725L31.3046 25.4535H31.5737L32.0262 24.7727L31.603 24.1388ZM32.2997 24.1388H32.0803V25.4535H32.2997V24.1388ZM32.6008 24.7725L33.0837 25.4535H32.8118L32.3537 24.7725L32.7797 24.1387H33.0519L32.6008 24.7725ZM34.3009 25.3101C34.2399 25.369 34.1691 25.412 34.0858 25.4401C34.0055 25.4678 33.9217 25.4824 33.8374 25.4831C33.7443 25.4843 33.6517 25.4678 33.564 25.4342C33.482 25.4018 33.4128 25.3559 33.3559 25.2954C33.2989 25.2349 33.2531 25.1624 33.2226 25.0783C33.1921 24.9939 33.1755 24.8996 33.1755 24.7961C33.1746 24.7043 33.1892 24.6133 33.2185 24.5272C33.2451 24.4464 33.2873 24.3724 33.342 24.3102C33.3982 24.2474 33.4658 24.1976 33.5404 24.1638C33.6196 24.1283 33.7098 24.1092 33.8124 24.1092C33.8888 24.1087 33.9646 24.1237 34.0359 24.1536C34.104 24.1808 34.1662 24.2226 34.2191 24.2761C34.2713 24.3303 34.3127 24.3951 34.3412 24.4667C34.3718 24.5405 34.387 24.6219 34.387 24.7118C34.387 24.7725 34.3829 24.8243 34.3731 24.8699H33.4238C33.4336 24.9941 33.4766 25.0917 33.5556 25.161C33.6347 25.2304 33.7347 25.2643 33.8554 25.2643C33.9359 25.2643 34.0095 25.2511 34.0748 25.2246C34.1399 25.1979 34.194 25.1655 34.2343 25.1269L34.3009 25.3101ZM33.8015 24.3278C33.6877 24.3278 33.5975 24.3604 33.5294 24.4268C33.4622 24.492 33.4192 24.5813 33.4086 24.678H34.1581C34.1526 24.5686 34.1193 24.483 34.0568 24.4209C33.9943 24.3604 33.9084 24.3278 33.8015 24.3278ZM35.1247 23.6368C35.1599 23.677 35.2108 23.6971 35.2768 23.6971C35.3989 23.6971 35.4669 23.6203 35.4767 23.4667H35.682C35.682 23.5256 35.6723 23.5789 35.6529 23.6291C35.6336 23.6794 35.6057 23.7223 35.5711 23.7576C35.5555 23.7729 35.5389 23.7871 35.5211 23.7999C35.4976 23.8169 35.4719 23.8315 35.4434 23.8433C35.4151 23.8558 35.3851 23.8644 35.353 23.8698C35.3283 23.8738 35.3025 23.8757 35.2753 23.8757C35.2492 23.8757 35.2242 23.8741 35.2005 23.871C35.1627 23.866 35.128 23.8569 35.0964 23.8433C35.0451 23.8212 35.0006 23.7932 34.9659 23.7576C34.945 23.7363 34.927 23.712 34.9122 23.6852C34.9024 23.6677 34.8939 23.6489 34.8868 23.6291C34.8767 23.6012 34.8693 23.5723 34.8647 23.542C34.861 23.5178 34.8591 23.4929 34.8591 23.4667H35.0659C35.0713 23.5418 35.0909 23.5985 35.1247 23.6368ZM34.9034 25.4535H34.6841V24.1387H34.9034V25.118L35.6167 24.1387H35.8361V25.4535H35.6167V24.474L34.9034 25.4535Z" fill="currentColor"/>
</g>
<defs>
<clipPath id="clip0_6429_100216">
<rect width="39.5833" height="21.303" fill="white" transform="translate(6.0531 7.84851)"/>
</clipPath>
</defs>
</svg>
