<svg width="52" height="37" viewBox="0 0 52 37" fill="none" xmlns="http://www.w3.org/2000/svg" style="color: #5A575F">
<path d="M23.4886 25.3757H20.0931L22.2169 12.425H25.6122L23.4886 25.3757Z" fill="currentColor"/>
<path d="M35.7971 12.7417C35.1274 12.4796 34.0651 12.1903 32.7517 12.1903C29.3985 12.1903 27.0373 13.9537 27.0228 16.4748C26.995 18.3349 28.7134 19.3681 29.9986 19.9883C31.3123 20.622 31.7588 21.0357 31.7588 21.6006C31.7455 22.4682 30.6973 22.8681 29.7198 22.8681C28.3641 22.8681 27.6378 22.6619 26.5339 22.1793L26.0868 21.9723L25.6117 24.8795C26.4081 25.2373 27.8753 25.5548 29.3985 25.5687C32.9613 25.5687 35.2807 23.8326 35.3082 21.1459C35.3218 19.6717 34.4144 18.542 32.4581 17.6189C31.2705 17.0264 30.5432 16.6268 30.5432 16.0205C30.5572 15.4694 31.1584 14.9048 32.4989 14.9048C33.6028 14.8772 34.4138 15.1388 35.0282 15.4007L35.3353 15.5382L35.7971 12.7417Z" fill="currentColor"/>
<path fill-rule="evenodd" clip-rule="evenodd" d="M41.8751 12.425H44.5014L47.2407 25.3755H44.0969C44.0969 25.3755 43.7892 23.8875 43.6917 23.4328H39.3322C39.2062 23.7771 38.6196 25.3755 38.6196 25.3755H35.0569L40.1004 13.4996C40.4498 12.6591 41.0652 12.425 41.8751 12.425ZM41.6659 17.1643C41.6659 17.1643 40.5899 20.0437 40.3103 20.7877H43.1325C42.9929 20.1402 42.3499 17.0403 42.3499 17.0403L42.1126 15.9244C42.0127 16.2117 41.8682 16.6068 41.7707 16.8733C41.7046 17.0539 41.6602 17.1754 41.6659 17.1643Z" fill="currentColor"/>
<path fill-rule="evenodd" clip-rule="evenodd" d="M5.38108 12.425H10.844C11.5845 12.4523 12.1853 12.6865 12.3809 13.5137L13.568 19.4634C13.5682 19.4639 13.5683 19.4645 13.5685 19.4651L13.9319 21.2562L17.2571 12.425H20.8475L15.5105 25.362H11.9199L8.89354 14.109C7.84934 13.507 6.65762 13.0227 5.3252 12.6867L5.38108 12.425Z" fill="currentColor"/>
</svg>