<svg width="44" height="32" viewBox="0 0 44 32" fill="none" xmlns="http://www.w3.org/2000/svg">
<path fill-rule="evenodd" clip-rule="evenodd" d="M20.0365 2.81957C20.7451 3.4238 21.3673 4.13989 21.8447 4.94223C22.3221 4.13989 22.9443 3.4238 23.6529 2.81957C25.2848 1.42793 27.4551 0.555542 29.6225 0.555542C31.1387 0.555542 32.7623 0.983008 34.1645 1.70857C35.5594 2.43029 36.8297 3.49717 37.5271 4.85252C37.5442 4.88567 37.5594 4.91975 37.5726 4.9546L41.8326 16.1552C42.792 17.7288 43.3447 19.5776 43.3447 21.5555C43.3447 27.2931 38.6935 31.9444 32.9558 31.9444C27.5556 31.9444 23.1176 27.824 22.6145 22.5555H21.075C20.5718 27.824 16.1339 31.9444 10.7336 31.9444C4.99599 31.9444 0.344727 27.2931 0.344727 21.5555C0.344727 19.5778 0.897376 17.7291 1.85667 16.1555L6.11677 4.9546C6.13003 4.91975 6.14522 4.88567 6.16228 4.85252C6.85973 3.49717 8.13003 2.43029 9.52486 1.70857C10.9271 0.983008 12.5507 0.555542 14.0669 0.555542C16.2343 0.555542 18.4046 1.42793 20.0365 2.81957ZM3.34473 21.5555C3.34473 17.4747 6.65284 14.1666 10.7336 14.1666C14.8144 14.1666 18.1225 17.4747 18.1225 21.5555C18.1225 25.6363 14.8144 28.9444 10.7336 28.9444C6.65284 28.9444 3.34473 25.6363 3.34473 21.5555ZM25.567 21.5555C25.567 17.4747 28.8751 14.1666 32.9558 14.1666C37.0366 14.1666 40.3447 17.4747 40.3447 21.5555C40.3447 25.6363 37.0366 28.9444 32.9558 28.9444C28.8751 28.9444 25.567 25.6363 25.567 21.5555Z" fill="white" fill-opacity="0.4"/>
</svg>
