<svg width="29" height="32" viewBox="0 0 29 32" fill="none" xmlns="http://www.w3.org/2000/svg">
<path fill-rule="evenodd" clip-rule="evenodd" d="M5.20215 0C4.92601 0 4.70215 0.223858 4.70215 0.5V14.8219H1.47852C1.20237 14.8219 0.978516 15.0458 0.978516 15.3219V19.4755C0.978516 19.7516 1.20237 19.9755 1.47852 19.9755H4.70215V22.847H1.47852C1.20237 22.847 0.978516 23.0709 0.978516 23.347V27.5006C0.978516 27.7768 1.20237 28.0006 1.47852 28.0006H4.70215V31.5C4.70215 31.7761 4.92601 32 5.20215 32H11.3291C11.6052 32 11.8291 31.7761 11.8291 31.5V28.0006H15.0532C15.3294 28.0006 15.5532 27.7768 15.5532 27.5006V23.347C15.5532 23.0709 15.3294 22.847 15.0532 22.847H11.8291V20H24.7109C26.9201 20 28.7109 18.2091 28.7109 16V4C28.7109 1.79086 26.9201 0 24.7109 0H11.3291H10.7109H5.20215ZM11.8291 4.46759V14.8219L20.6659 14.8219C21.7705 14.8219 22.6659 13.9265 22.6659 12.8219V9.64474V6.46759C22.6659 5.36302 21.7705 4.46759 20.6659 4.46759H11.8291Z" fill="white" fill-opacity="0.4"/>
</svg>
