<svg width="40" height="38" viewBox="0 0 40 38" fill="none" xmlns="http://www.w3.org/2000/svg">
<path d="M36.2955 5.5H8.67029L6.30993 1.26919C6.04499 0.794307 5.54379 0.5 5 0.5H2C1.17157 0.5 0.5 1.17157 0.5 2C0.5 2.82843 1.17157 3.5 2 3.5H4.1192L6.44859 7.6753L11.8207 19.5618L11.8262 19.5739L12.2994 20.6208L6.90573 26.3741C6.51791 26.7878 6.39651 27.3848 6.59197 27.9171C6.78743 28.4494 7.26634 28.8259 7.82972 28.8903L12.746 29.4522C18.8953 30.1549 25.1047 30.1549 31.2541 29.4522L36.1704 28.8903C36.9934 28.7962 37.5844 28.0528 37.4903 27.2297C37.3963 26.4066 36.6528 25.8156 35.8297 25.9097L30.9134 26.4716C24.9905 27.1485 19.0096 27.1485 13.0866 26.4716L11.1356 26.2486L15.0943 22.0259C15.1326 21.9851 15.1682 21.9427 15.201 21.8989L16.7067 22.0948C18.8165 22.3693 20.9492 22.4231 23.0702 22.2554C28.0172 21.8641 32.602 19.5102 35.8029 15.7181L36.9591 14.3485C36.9979 14.3025 37.0339 14.2542 37.067 14.2039L39.2217 10.9202C40.749 8.59265 39.0794 5.5 36.2955 5.5Z" fill="white" fill-opacity="0.4"/>
<path d="M11 32C9.34315 32 8 33.3431 8 35C8 36.6569 9.34315 38 11 38C12.6569 38 14 36.6569 14 35C14 33.3431 12.6569 32 11 32Z" fill="white" fill-opacity="0.4"/>
<path d="M30 35C30 33.3431 31.3431 32 33 32C34.6569 32 36 33.3431 36 35C36 36.6569 34.6569 38 33 38C31.3431 38 30 36.6569 30 35Z" fill="white" fill-opacity="0.4"/>
</svg>
