<svg width="31" height="38" viewBox="0 0 31 38" fill="none" xmlns="http://www.w3.org/2000/svg">
<path fill-rule="evenodd" clip-rule="evenodd" d="M24.7577 0.765348C18.8461 -0.0841361 12.8434 -0.0841361 6.93178 0.765348C4.0008 1.18652 1.74261 3.56531 1.47436 6.51422L1.22042 9.30568C0.633719 15.7552 0.63372 22.2447 1.22042 28.6943L1.47436 31.4858C1.74262 34.4347 4.0008 36.8134 6.93178 37.2346C12.8434 38.0841 18.8461 38.0841 24.7577 37.2346C27.6887 36.8134 29.9469 34.4347 30.2151 31.4858L30.4691 28.6943C31.0558 22.2447 31.0558 15.7552 30.4691 9.30568L30.2151 6.51421C29.9469 3.5653 27.6887 1.18652 24.7577 0.765348ZM11.8447 13C11.8447 10.7909 13.6356 9 15.8447 9C18.0539 9 19.8447 10.7909 19.8447 13C19.8447 15.2091 18.0539 17 15.8447 17C13.6356 17 11.8447 15.2091 11.8447 13ZM7.84473 26C7.84473 22.6863 10.531 20 13.8447 20H17.8447C21.1584 20 23.8447 22.6863 23.8447 26C23.8447 27.1046 22.9493 28 21.8447 28H9.84473C8.74016 28 7.84473 27.1046 7.84473 26Z" fill="white" fill-opacity="0.6"/>
</svg>
