<svg width="35" height="30" viewBox="0 0 35 30" fill="none" xmlns="http://www.w3.org/2000/svg">
<path fill-rule="evenodd" clip-rule="evenodd" d="M9.84861 1.10579C15.2413 0.699349 20.6578 0.726017 26.0462 1.18554L29.2937 1.46248C31.7467 1.67167 33.7375 3.5333 34.1105 5.9668L34.3153 7.30345C35.0106 11.8393 34.9456 16.4592 34.1231 20.9737C33.7172 23.2012 31.7768 24.82 29.5127 24.82H11.5598C11.1468 24.82 10.7402 24.9223 10.3764 25.1178L2.5548 29.3212C2.08994 29.5711 1.52799 29.5582 1.07502 29.2874C0.622058 29.0166 0.344727 28.5277 0.344727 28V10.9654C0.344727 5.80817 4.31954 1.52251 9.46215 1.13492L9.84861 1.10579ZM9.84473 11C8.46402 11 7.34473 12.1193 7.34473 13.5C7.34473 14.8807 8.46402 16 9.84473 16C11.2254 16 12.3447 14.8807 12.3447 13.5C12.3447 12.1193 11.2254 11 9.84473 11ZM17.8447 11C16.464 11 15.3447 12.1193 15.3447 13.5C15.3447 14.8807 16.464 16 17.8447 16C19.2254 16 20.3447 14.8807 20.3447 13.5C20.3447 12.1193 19.2254 11 17.8447 11ZM23.3447 13.5C23.3447 12.1193 24.464 11 25.8447 11C27.2254 11 28.3447 12.1193 28.3447 13.5C28.3447 14.8807 27.2254 16 25.8447 16C24.464 16 23.3447 14.8807 23.3447 13.5Z" fill="white" fill-opacity="0.6"/>
</svg>
