<svg width="36" height="36" viewBox="0 0 36 36" fill="none" xmlns="http://www.w3.org/2000/svg">
<path fill-rule="evenodd" clip-rule="evenodd" d="M22.6148 24.8915C17.3142 29.1368 9.55537 28.8027 4.6418 23.8891C-0.630275 18.617 -0.630275 10.0693 4.6418 4.7972C9.91388 -0.47488 18.4616 -0.474879 23.7337 4.7972C28.6472 9.71076 28.9814 17.4696 24.7361 22.7702L35.0474 33.0814C35.6331 33.6672 35.6331 34.617 35.0474 35.2027C34.4616 35.7885 33.5118 35.7885 32.926 35.2027L22.6148 24.8915ZM6.76312 21.7678C2.66262 17.6673 2.66262 11.019 6.76312 6.91852C10.8636 2.81801 17.5119 2.81801 21.6124 6.91852C25.7099 11.016 25.7129 17.6575 21.6214 21.7587C21.6184 21.7617 21.6153 21.7647 21.6123 21.7677C21.6093 21.7707 21.6063 21.7737 21.6033 21.7768C17.5021 25.8683 10.8606 25.8653 6.76312 21.7678Z" fill="white" fill-opacity="0.6"/>
</svg>
