<svg width="39" height="38" viewBox="0 0 39 38" fill="none" xmlns="http://www.w3.org/2000/svg">
<path d="M18.3447 0.490797C18.3447 0.257607 18.1449 0.0735664 17.9129 0.0969944C8.32686 1.06498 0.844727 9.15872 0.844727 19C0.844727 29.4934 9.35132 38 19.8447 38C25.1182 38 29.8902 35.8507 33.3315 32.383C33.4959 32.2173 33.4778 31.9467 33.2963 31.8L18.9019 20.1666C18.5495 19.8818 18.3447 19.4531 18.3447 19V0.490797Z" fill="white" fill-opacity="0.6"/>
<path d="M35.1836 29.4681C35.365 29.6147 35.6332 29.5759 35.7608 29.3806C37.3789 26.9044 38.4351 24.0269 38.7478 20.9309C38.7712 20.6988 38.5871 20.5 38.3539 20.5H25.2184C24.8413 20.5 24.6737 20.9741 24.967 21.2111L35.1836 29.4681Z" fill="white" fill-opacity="0.6"/>
<path d="M38.3539 17.5C38.5871 17.5 38.7712 17.3003 38.7477 17.0683C37.8439 8.11737 30.7274 1.00078 21.7764 0.096984C21.5444 0.0735573 21.3447 0.257608 21.3447 0.490797V16.9C21.3447 17.2314 21.6134 17.5 21.9447 17.5H38.3539Z" fill="white" fill-opacity="0.6"/>
</svg>
