<svg width="110" height="131" viewBox="0 0 110 131" fill="none" xmlns="http://www.w3.org/2000/svg">
<path fill-rule="evenodd" clip-rule="evenodd" d="M80.2509 -23.1042C80.2509 -24.203 79.3602 -25.0938 78.2614 -25.0938H22.553C10.466 -25.0938 0.667603 -15.2953 0.667603 -3.20833V108.208C0.667603 120.295 10.466 130.094 22.553 130.094H102.136C114.223 130.094 124.022 120.295 124.022 108.208V29.7953C124.022 28.6965 123.131 27.8058 122.032 27.8058H86.2197C82.9232 27.8058 80.2509 25.1335 80.2509 21.837V-23.1042ZM78.5121 61.7663C81.0862 59.707 84.8423 60.1243 86.9015 62.6984C88.9608 65.2725 88.5435 69.0286 85.9694 71.0879L66.1217 86.966C65.0975 87.8038 63.7898 88.308 62.3644 88.3125L62.3451 88.3125L62.2948 88.3123C60.8937 88.3007 59.6078 87.8064 58.595 86.9876L38.7204 71.0879C36.1463 69.0286 35.729 65.2725 37.7883 62.6984C39.8475 60.1243 43.6036 59.707 46.1777 61.7663L56.3764 69.9252V42.5521C56.3764 39.2556 59.0487 36.5833 62.3451 36.5833C65.6416 36.5833 68.3139 39.2556 68.3139 42.5521V69.9248L78.5121 61.7663Z" fill="#E8EFFF"/>
<path d="M92.1884 -20.5246C92.1884 -21.9929 93.7215 -22.9251 94.864 -22.0028C95.8263 -21.226 96.6912 -20.3159 97.4292 -19.2878L121.409 14.1205C121.955 14.8811 121.364 15.8683 120.427 15.8683H94.178C93.0792 15.8683 92.1884 14.9775 92.1884 13.8787V-20.5246Z" fill="#E8EFFF"/>
</svg>
