<svg width="108" height="141" viewBox="0 0 108 141" fill="none" xmlns="http://www.w3.org/2000/svg">
<path fill-rule="evenodd" clip-rule="evenodd" d="M80.2511 -13.1042C80.2511 -14.203 79.3603 -15.0938 78.2615 -15.0938H22.5531C10.4662 -15.0938 0.667725 -5.29531 0.667725 6.79167V118.208C0.667725 130.295 10.4662 140.094 22.5531 140.094H102.136C114.223 140.094 124.022 130.295 124.022 118.208V39.7953C124.022 38.6965 123.131 37.8058 122.032 37.8058H86.2198C82.9234 37.8058 80.2511 35.1335 80.2511 31.837V-13.1042ZM86.2198 64.4896C89.5163 64.4896 92.1886 67.1619 92.1886 70.4583C92.1886 73.7548 89.5163 76.4271 86.2198 76.4271H38.4698C35.1734 76.4271 32.5011 73.7548 32.5011 70.4583C32.5011 67.1619 35.1734 64.4896 38.4698 64.4896H86.2198ZM86.2198 96.3229C89.5163 96.3229 92.1886 98.9952 92.1886 102.292C92.1886 105.588 89.5163 108.26 86.2198 108.26H38.4698C35.1734 108.26 32.5011 105.588 32.5011 102.292C32.5011 98.9952 35.1734 96.3229 38.4698 96.3229H86.2198Z" fill="#FFEBB4"/>
<path d="M92.1886 -10.5246C92.1886 -11.9929 93.7216 -12.9251 94.8641 -12.0028C95.8264 -11.226 96.6913 -10.3159 97.4293 -9.28775L121.409 24.1205C121.955 24.8811 121.364 25.8683 120.427 25.8683H94.1781C93.0793 25.8683 92.1886 24.9775 92.1886 23.8787V-10.5246Z" fill="#FFEBB4"/>
</svg>
