<svg width="107" height="145" viewBox="0 0 107 145" fill="none" xmlns="http://www.w3.org/2000/svg">
<path d="M128.695 -12.2837C131.026 -14.6147 131.026 -18.3939 128.695 -20.7248C126.364 -23.0558 122.584 -23.0558 120.254 -20.7248L114.626 -15.0974C110.683 -11.1546 110.885 -5.02774 114.325 -1.1893C137.424 24.5858 136.586 64.2358 111.812 89.0093C98.9993 101.822 82.2065 108.233 65.4122 108.24L65.3864 108.24L65.3622 108.24C49.7023 108.234 34.0445 102.662 21.6138 91.5216C17.7754 88.0817 11.6485 87.8802 7.70568 91.823L2.07829 97.4504C-0.252657 99.7813 -0.252658 103.561 2.07828 105.891C4.40923 108.222 8.18843 108.222 10.5194 105.891L14.9 101.511C27.7908 112.578 43.4512 118.724 59.4177 119.948V132.115H45.4906C42.1942 132.115 39.5219 134.787 39.5219 138.083C39.5219 141.38 42.1942 144.052 45.4906 144.052H85.2823C88.5787 144.052 91.251 141.38 91.251 138.083C91.251 134.787 88.5787 132.115 85.2823 132.115H71.3552V119.949C89.1793 118.582 106.621 111.083 120.254 97.4504C149.136 68.5681 150.489 22.5859 124.314 -7.90308L128.695 -12.2837Z" fill="#C1FDDA"/>
<path fill-rule="evenodd" clip-rule="evenodd" d="M13.6573 42.5833C13.6573 14.0141 36.8172 -9.14583 65.3864 -9.14583C93.9557 -9.14583 117.116 14.0141 117.116 42.5833C117.116 71.1526 93.9557 94.3125 65.3864 94.3125C36.8172 94.3125 13.6573 71.1526 13.6573 42.5833ZM81.3031 12.7396C69.2161 12.7396 59.4177 22.538 59.4177 34.625C59.4177 46.712 69.2161 56.5104 81.3031 56.5104C93.3901 56.5104 103.189 46.712 103.189 34.625C103.189 22.538 93.3901 12.7396 81.3031 12.7396ZM27.5844 62.4792C27.5844 56.9851 32.0382 52.5313 37.5323 52.5313C43.0264 52.5313 47.4802 56.9851 47.4802 62.4792C47.4802 67.9733 43.0264 72.4271 37.5323 72.4271C32.0382 72.4271 27.5844 67.9733 27.5844 62.4792Z" fill="#C1FDDA"/>
</svg>
