<svg width="76" height="130" viewBox="0 0 76 130" fill="none" xmlns="http://www.w3.org/2000/svg">
<rect width="86.6025" height="86.6025" rx="20" transform="matrix(0.866025 0.5 0 1 0.476562 0)" fill="white"/>
<path d="M39.4605 59.0348L35.7955 63.6843V56.9188L33.2314 55.4384V67.3483L35.7955 68.8286L39.4605 64.1792V70.9446L42.0244 72.4249V60.5151L39.4605 59.0348ZM57.4095 78.4127V76.6594L61.6177 79.0889V76.3596L57.4095 73.9301V72.2925L62.0083 74.9476V72.0528L54.8456 67.9174V79.8272L62.1617 84.0512V81.1564L57.4095 78.4127ZM52.337 75.4841V66.4691L44.9647 62.2127V63.1225C44.9647 67.2083 44.7979 70.2051 44.0173 70.6807L42.9726 70.0776V74.8581L45.5365 76.3384V74.4526L51.2362 77.7433V79.6291L53.8001 81.1094V76.3288L52.337 75.4841ZM49.7731 67.8835V74.0038L46.7347 72.2496C47.1665 71.3906 47.376 69.3778 47.376 66.632V66.4996L49.7731 67.8835ZM62.9834 78.5707C62.9834 82.1602 65.269 86.0933 68.2236 87.7991C71.1221 89.4726 73.4495 88.1697 73.4495 84.6133C73.4495 81.0238 71.164 77.0907 68.2094 75.3849C65.3109 73.7114 62.9834 75.0143 62.9834 78.5707ZM70.8429 83.1249C70.8429 84.8121 69.9232 85.8029 68.2513 84.8376C66.5233 83.84 65.5893 81.8121 65.5893 80.0586C65.5893 78.3714 66.5091 77.3807 68.1817 78.3464C69.9097 79.344 70.8429 81.3716 70.8429 83.1249ZM30.2352 59.3823C30.9877 59.4694 31.7402 59.1099 31.7402 57.6046C31.7402 55.6858 30.5279 53.8775 28.6605 52.7994L23.7831 49.9835V61.8933L28.7163 64.7415C30.6115 65.8356 32.0468 65.5726 32.0468 63.3561C32.0468 61.8012 31.2664 60.325 30.2352 59.3493V59.3823ZM26.3472 53.9781L28.1867 55.0402C28.7163 55.3459 29.1343 55.9347 29.1343 56.6625C29.1343 57.4234 28.6466 57.4561 28.1867 57.1906L26.3472 56.1285V53.9781ZM29.4409 61.4545C29.4409 62.2817 28.9253 62.3478 28.354 62.018L26.3472 60.8594V58.4444L28.3679 59.611C29.0089 59.9811 29.4409 60.6937 29.4409 61.4545ZM20.9542 60.5081C21.7764 60.9828 22.4314 60.6001 22.4314 59.6241C22.4314 58.6482 21.7764 57.5091 20.9542 57.0344C20.132 56.5597 19.477 56.9425 19.477 57.9184C19.477 58.8944 20.132 60.0334 20.9542 60.5081ZM4.64969 51.0947C6.53097 52.1809 7.5204 50.5025 8.3844 47.9577L8.52375 48.0382C8.17538 50.4672 8.28681 53.1946 10.3632 54.3934C12.2305 55.4715 13.1225 53.7203 13.9029 51.1438L14.0422 51.2242C13.6798 53.5955 13.7774 56.3646 15.9096 57.5956C17.7769 58.6737 18.822 57.0606 19.2262 54.2338L17.9163 53.4775C17.763 54.0672 17.4982 54.576 17.0104 54.2943C15.9932 53.707 16.5506 52.0108 16.9965 49.7375L17.6376 46.4353L14.5021 44.6251C14.5021 44.6251 12.8438 51.8887 11.5338 51.1324C10.5723 50.5773 11.0461 48.6012 11.4502 46.5022L12.0773 43.2251L8.94179 41.4148C8.35649 43.8063 7.11627 48.5819 5.95958 47.9141C5.58337 47.6969 5.48578 47.3594 5.48578 46.9955C5.48578 46.7639 5.54154 46.548 5.61121 46.3731L2.74051 44.7157C2.58724 45.3551 2.50357 46.0015 2.50357 46.7128C2.50357 48.4993 3.06104 50.1775 4.64969 51.0947Z" fill="#ED1E24"/>
</svg>
