<svg width="40" height="40" viewBox="0 0 40 40" fill="none" xmlns="http://www.w3.org/2000/svg">
<rect width="40" height="40" rx="10" fill="#E6F7FF"/>
<mask id="path-2-inside-1_6693_1130" fill="white">
<path fill-rule="evenodd" clip-rule="evenodd" d="M29.4186 18.393C29.5369 17.9486 29.6 17.4817 29.6 17C29.6 14.0176 27.1823 11.6 24.2 11.6C22.3848 11.6 20.7787 12.4957 19.7997 13.8692C19.0567 13.2043 18.0756 12.8 17 12.8C14.884 12.8 13.1335 14.3647 12.8425 16.4002L12.8 16.4C10.8118 16.4 9.2 18.0118 9.2 20C9.2 20.5621 9.32886 21.0942 9.55865 21.5683C8.6297 22.0781 8 23.0655 8 24.2C8 25.8568 9.34315 27.2 11 27.2C11.9121 27.2 12.7292 26.7929 13.2794 26.1505C13.982 27.4878 15.3845 28.4 17 28.4C18.2944 28.4 19.4521 27.8144 20.2225 26.8937C20.7096 27.0912 21.2421 27.2 21.8 27.2C22.2173 27.2 22.6204 27.1391 23.0009 27.0258C23.9562 27.8804 25.2174 28.4 26.6 28.4C29.5823 28.4 32 25.9823 32 23C32 21.0506 30.967 19.3424 29.4186 18.393Z"/>
</mask>
<path d="M29.4186 18.393L28.4523 18.1358L28.2605 18.856L28.8959 19.2456L29.4186 18.393ZM19.7997 13.8692L19.1329 14.6144L19.9655 15.3594L20.614 14.4496L19.7997 13.8692ZM12.8425 16.4002L12.8367 17.4002L13.709 17.4052L13.8324 16.5418L12.8425 16.4002ZM12.8 16.4L12.8058 15.4H12.8V16.4ZM9.55865 21.5683L10.0398 22.4449L10.8732 21.9875L10.4585 21.1321L9.55865 21.5683ZM13.2794 26.1505L14.1647 25.6854L13.479 24.3802L12.5199 25.5L13.2794 26.1505ZM20.2225 26.8937L20.5983 25.967L19.9232 25.6932L19.4556 26.2519L20.2225 26.8937ZM23.0009 27.0258L23.6677 26.2805L23.2511 25.9078L22.7154 26.0674L23.0009 27.0258ZM28.6 17C28.6 17.394 28.5484 17.7745 28.4523 18.1358L30.3849 18.6503C30.5254 18.1227 30.6 17.5693 30.6 17H28.6ZM24.2 12.6C26.6301 12.6 28.6 14.5699 28.6 17H30.6C30.6 13.4654 27.7346 10.6 24.2 10.6V12.6ZM20.614 14.4496C21.4134 13.328 22.7217 12.6 24.2 12.6V10.6C22.0478 10.6 20.144 11.6633 18.9854 13.2887L20.614 14.4496ZM17 13.8C17.8201 13.8 18.5661 14.1072 19.1329 14.6144L20.4665 13.124C19.5473 12.3014 18.331 11.8 17 11.8V13.8ZM13.8324 16.5418C14.054 14.9918 15.3887 13.8 17 13.8V11.8C14.3794 11.8 12.213 13.7376 11.8526 16.2587L13.8324 16.5418ZM12.7942 17.4L12.8367 17.4002L12.8483 15.4002L12.8058 15.4L12.7942 17.4ZM10.2 20C10.2 18.564 11.3641 17.4 12.8 17.4V15.4C10.2595 15.4 8.2 17.4595 8.2 20H10.2ZM10.4585 21.1321C10.2932 20.791 10.2 20.4078 10.2 20H8.2C8.2 20.7165 8.36453 21.3974 8.65879 22.0045L10.4585 21.1321ZM9 24.2C9 23.445 9.41792 22.7862 10.0398 22.4449L9.0775 20.6916C7.84148 21.37 7 22.686 7 24.2H9ZM11 26.2C9.89543 26.2 9 25.3045 9 24.2H7C7 26.4091 8.79086 28.2 11 28.2V26.2ZM12.5199 25.5C12.1516 25.93 11.6079 26.2 11 26.2V28.2C12.2164 28.2 13.3068 27.6558 14.0389 26.801L12.5199 25.5ZM17 27.4C15.7705 27.4 14.7013 26.7069 14.1647 25.6854L12.3942 26.6156C13.2627 28.2688 14.9984 29.4 17 29.4V27.4ZM19.4556 26.2519C18.8671 26.9553 17.9859 27.4 17 27.4V29.4C18.603 29.4 20.0372 28.6735 20.9895 27.5354L19.4556 26.2519ZM21.8 26.2C21.3731 26.2 20.968 26.1169 20.5983 25.967L19.8467 27.8204C20.4511 28.0655 21.1111 28.2 21.8 28.2V26.2ZM22.7154 26.0674C22.4266 26.1534 22.1196 26.2 21.8 26.2V28.2C22.315 28.2 22.8142 28.1248 23.2864 27.9842L22.7154 26.0674ZM26.6 27.4C25.4728 27.4 24.4467 26.9774 23.6677 26.2805L22.3342 27.7711C23.4656 28.7833 24.962 29.4 26.6 29.4V27.4ZM31 23C31 25.43 29.0301 27.4 26.6 27.4V29.4C30.1346 29.4 33 26.5346 33 23H31ZM28.8959 19.2456C30.1602 20.0207 31 21.4127 31 23H33C33 20.6884 31.7739 18.6641 29.9413 17.5405L28.8959 19.2456Z" fill="#5A575F" mask="url(#path-2-inside-1_6693_1130)"/>
</svg>
