<svg width="40" height="40" viewBox="0 0 40 40" fill="none" xmlns="http://www.w3.org/2000/svg">
<rect width="40" height="40" rx="10" fill="#E6F7FF"/>
<circle cx="20" cy="20" r="11.5" stroke="#5A575F"/>
<path d="M20 13.0333V8.59998C21.4971 8.59998 22.9795 8.89485 24.3626 9.46775C25.0494 9.75222 25.705 10.1025 26.3207 10.5127M20 13.0333L23.7297 9.29728M20 13.0333V16.8333M20 16.8333V20H20.6333M20 16.8333L26.3207 10.5127M26.3207 10.5127C26.9449 10.9285 27.5281 11.406 28.061 11.939C29.1196 12.9975 29.9593 14.2543 30.5322 15.6374C31.1051 17.0205 31.4 18.5029 31.4 20H27.8M20.6333 20L28.2703 12.3784M20.6333 20L24.2 20M24.2 20L29.7297 14.3243M24.2 20L27.8 20M27.8 20L30.9587 16.8587" stroke="#1450D0"/>
</svg>
