<svg width="40" height="40" viewBox="0 0 40 40" fill="none" xmlns="http://www.w3.org/2000/svg">
<rect width="40" height="40" rx="10" fill="#E6F7FF"/>
<path d="M19.9999 10.5946L19.9999 29.4054M10.3999 20L29.4053 20M10.3999 14L10.3999 26C10.3999 27.9882 12.0117 29.6 13.9999 29.6H25.9999C27.9881 29.6 29.5999 27.9882 29.5999 26V14C29.5999 12.0118 27.9881 10.4 25.9999 10.4L13.9999 10.4C12.0117 10.4 10.3999 12.0118 10.3999 14Z" stroke="#5A575F" stroke-width="0.8"/>
<path d="M12.2932 17.8919C12.7231 17.1749 13.6652 16.6842 15.135 16.6842C16.6049 16.6842 17.547 17.1749 17.9769 17.8919M16.3026 14.1946C16.3026 14.8394 15.7799 15.3622 15.135 15.3622C14.4902 15.3622 13.9675 14.8394 13.9675 14.1946C13.9675 13.5498 14.4902 13.027 15.135 13.027C15.7799 13.027 16.3026 13.5498 16.3026 14.1946Z" stroke="#1450D0" stroke-width="0.8" stroke-linecap="round"/>
<path d="M22.1689 22.8378L24.3328 24.3914C24.4578 24.4811 24.6232 24.4811 24.7482 24.3914L26.9121 22.8378M22.3513 26.8108H26.7297C27.1327 26.8108 27.4594 26.472 27.4594 26.054V23.027C27.4594 22.6091 27.1327 22.2703 26.7297 22.2703H22.3513C21.9483 22.2703 21.6216 22.6091 21.6216 23.027V26.054C21.6216 26.472 21.9483 26.8108 22.3513 26.8108Z" stroke="#5A575F" stroke-width="0.8" stroke-linecap="round" stroke-linejoin="round"/>
</svg>
