<svg width="40" height="40" viewBox="0 0 40 40" fill="none" xmlns="http://www.w3.org/2000/svg">
<rect width="40" height="40" rx="10" fill="#E6F7FF"/>
<ellipse cx="9.89474" cy="12.421" rx="1.89474" ry="1.89474" fill="#5A575F"/>
<ellipse cx="9.89474" cy="17.4737" rx="1.89474" ry="1.89474" fill="#5A575F"/>
<ellipse cx="14.9475" cy="12.421" rx="1.89474" ry="1.89474" fill="#5A575F"/>
<ellipse cx="14.9475" cy="17.4737" rx="1.89474" ry="1.89474" fill="#5A575F"/>
<ellipse cx="20" cy="12.421" rx="1.89474" ry="1.89474" fill="#5A575F"/>
<ellipse cx="20" cy="17.4737" rx="1.89474" ry="1.89474" fill="#5A575F"/>
<ellipse cx="25.0527" cy="17.4737" rx="1.89474" ry="1.89474" fill="#1450D0"/>
<ellipse cx="30.1052" cy="17.4737" rx="1.89474" ry="1.89474" fill="#1450D0"/>
<ellipse cx="9.89474" cy="22.5263" rx="1.89474" ry="1.89474" fill="#5A575F"/>
<ellipse cx="9.89474" cy="27.5789" rx="1.89474" ry="1.89474" fill="#5A575F"/>
<ellipse cx="14.9475" cy="22.5263" rx="1.89474" ry="1.89474" fill="#5A575F"/>
<circle cx="14.9475" cy="27.5789" r="1.89474" fill="#5A575F"/>
<ellipse cx="20" cy="22.5263" rx="1.89474" ry="1.89474" fill="#5A575F"/>
<ellipse cx="25.0527" cy="22.5263" rx="1.89474" ry="1.89474" fill="#1450D0"/>
</svg>
