<svg width="40" height="40" viewBox="0 0 40 40" fill="none" xmlns="http://www.w3.org/2000/svg">
<rect width="40" height="40" rx="10" fill="#E6F7FF"/>
<path d="M8.63159 28.5263L11.6363 17.7093C11.7011 17.4762 12.001 17.4117 12.1558 17.5975L14.7506 20.7113C14.8585 20.8407 15.0518 20.856 15.1787 20.745L19.8272 16.6776C19.9292 16.5883 20.0783 16.5785 20.1911 16.6537L23.5152 18.8698C23.6623 18.9679 23.8619 18.9181 23.9458 18.7624L27.8197 11.568C27.9525 11.3214 28.3208 11.3752 28.3776 11.6495L32 29.1579" stroke="#1450D0" stroke-linecap="round"/>
<path d="M31.552 29.1579H8.56056C8.32095 29.1579 8.17803 28.8908 8.31094 28.6915L11.6231 23.7233C11.715 23.5854 11.9012 23.5482 12.0391 23.6401L15.36 25.854C15.4853 25.9375 15.6531 25.9153 15.7522 25.802L19.7742 21.2054C19.8938 21.0688 20.1062 21.0688 20.2258 21.2054L24.1037 25.6373C24.25 25.8045 24.521 25.7602 24.6064 25.5551L27.3004 19.0896C27.4032 18.8429 27.7529 18.8436 27.8547 19.0907L31.8294 28.7436C31.9107 28.9411 31.7656 29.1579 31.552 29.1579Z" stroke="#5A575F"/>
<path d="M8.63159 29.1579L13.0526 24.7368" stroke="#5A575F" stroke-linecap="round"/>
<path d="M11.158 29.1579L14.3159 26" stroke="#5A575F" stroke-linecap="round"/>
<path d="M16.2104 29.1579L21.8947 23.4737" stroke="#5A575F" stroke-linecap="round"/>
<path d="M13.6843 29.1579L20.6317 22.2105" stroke="#5A575F" stroke-linecap="round"/>
<path d="M18.7368 29.1579L23.1579 24.7368" stroke="#5A575F" stroke-linecap="round"/>
<path d="M23.7896 29.1579L29.4738 23.4737" stroke="#5A575F" stroke-linecap="round"/>
<path d="M21.2632 29.1579L28.8421 21.5789" stroke="#5A575F" stroke-linecap="round"/>
<path d="M28.842 29.1579L30.7368 27.2632" stroke="#5A575F" stroke-linecap="round"/>
<path d="M26.3157 29.1579L30.1051 25.3684" stroke="#5A575F" stroke-linecap="round"/>
</svg>
