<svg width="40" height="40" viewBox="0 0 40 40" fill="none" xmlns="http://www.w3.org/2000/svg">
<rect width="40" height="40" rx="10" fill="#E6F7FF"/>
<mask id="path-2-inside-1_6693_1072" fill="white">
<rect x="14.6667" y="8" width="10.6667" height="4" rx="0.5"/>
</mask>
<rect x="14.6667" y="8" width="10.6667" height="4" rx="0.5" stroke="#5A575F" stroke-width="2" mask="url(#path-2-inside-1_6693_1072)"/>
<path d="M16.3536 19.6464L19.6464 16.3536C19.8417 16.1583 20.1583 16.1583 20.3536 16.3536L23.6464 19.6464C23.8417 19.8417 23.8417 20.1583 23.6464 20.3536L20.3536 23.6464C20.1583 23.8417 19.8417 23.8417 19.6464 23.6464L16.3536 20.3536C16.1583 20.1583 16.1583 19.8417 16.3536 19.6464Z" stroke="#1450D0" stroke-linecap="round"/>
<path d="M14.1667 28.6666C14.1667 30.2315 12.8981 31.5 11.3333 31.5C9.76853 31.5 8.5 30.2315 8.5 28.6666C8.5 27.1018 9.76853 25.8333 11.3333 25.8333C12.8981 25.8333 14.1667 27.1018 14.1667 28.6666Z" stroke="#5A575F"/>
<rect x="25.8333" y="25.8333" width="5.66667" height="5.66667" stroke="#1450D0"/>
<path d="M20 12V16" stroke="#5A575F" stroke-linecap="round"/>
<path d="M15.9999 20H11.8333C11.5571 20 11.3333 20.2239 11.3333 20.5V26" stroke="#5A575F" stroke-linecap="round"/>
<path d="M24 20H28.1667C28.4428 20 28.6667 20.2239 28.6667 20.5V26" stroke="#1450D0" stroke-linecap="round"/>
</svg>
