<svg width="40" height="40" viewBox="0 0 40 40" fill="none" xmlns="http://www.w3.org/2000/svg">
<rect width="40" height="40" rx="10" fill="#E6F7FF"/>
<path d="M13.2307 31.2996C13.135 31.1604 12.4656 30.9084 12.1787 30.9084C12.1035 30.9084 11.9191 30.9681 11.762 31.0476L11.4887 31.1935L11.2223 31.0145C11.072 30.9216 10.9149 30.8421 10.8739 30.8421C10.8056 30.8421 10.6007 30.7559 9.7741 30.3978C9.63065 30.3381 9.54867 30.2585 9.54867 30.1789C9.54867 29.9866 9.42571 29.9535 9.14564 30.0728L8.88605 30.1856L8.4352 29.9468C7.94336 29.6816 7.94335 29.6816 8.07315 29.1511L8.14829 28.8195L8.524 28.7864C8.89288 28.7532 8.89972 28.7466 9.06366 28.4349C9.22761 28.1034 9.27543 28.0835 9.6853 28.1763C10.02 28.2559 10.0883 28.2161 10.1362 27.9111C10.184 27.6326 10.1498 27.6591 10.9012 27.354C11.0925 27.2745 11.1198 27.228 11.1062 27.0424C11.0993 26.9164 11.1472 26.7506 11.2086 26.6578C11.3589 26.4522 11.3521 26.3196 11.1882 26.0145C10.9969 25.6697 11.0105 25.484 11.2428 25.3912C11.4204 25.3116 11.9191 24.8408 12.3768 24.3103C12.5066 24.1578 12.6295 23.9257 12.6568 23.7798C12.7115 23.4681 12.8754 23.1366 13.0052 23.0636C13.0599 23.0305 13.1009 22.9575 13.1009 22.8912C13.1009 22.8249 13.1419 22.7188 13.1965 22.6459C13.2921 22.5199 13.299 22.5265 13.3673 22.7188C13.4902 23.0504 13.5449 23.11 13.8728 23.2825C14.1324 23.4151 14.2553 23.5543 14.5764 24.0716L14.9658 24.6883L14.8155 25.3116L14.672 25.9283L14.8223 26.2201C14.9589 26.5052 14.9589 26.5318 14.8633 26.923L14.754 27.3275L14.9589 27.4933C15.0682 27.5795 15.1844 27.6591 15.2049 27.6591C15.2322 27.6591 15.3415 27.732 15.444 27.8249C15.6011 27.9707 15.6284 28.0437 15.6284 28.3752C15.6352 28.5808 15.6762 28.8262 15.7309 28.919C15.7855 29.0052 15.8333 29.2373 15.8333 29.423V29.7612L15.5806 29.801C15.1844 29.8673 14.9111 29.854 14.8292 29.7678C14.7062 29.6551 14.2622 30.6365 14.2622 31.0145C14.2622 31.1736 14.2485 31.3062 14.228 31.3062C14.2075 31.3062 14.0982 31.2598 13.9821 31.2002C13.7908 31.1073 13.7703 31.1073 13.5517 31.2731L13.3263 31.4389L13.2307 31.2996Z" fill="#1450D0"/>
<path d="M22.3211 30.2843C21.7324 30.0676 21.5339 29.9495 21.5339 29.8116C21.5339 29.7722 21.3289 29.398 21.0775 28.9844L20.6277 28.2359L19.8803 27.8091C19.1923 27.4218 19.1262 27.3955 19.06 27.5071C18.7425 28.0389 18.3192 28.3081 17.5056 28.4985C17.155 28.5839 16.778 28.702 16.6721 28.7546C16.3282 28.9318 16.1959 28.8924 16.0437 28.5642C15.9644 28.3869 15.9115 28.1374 15.9115 27.9208V27.5662L15.5476 27.3233C15.1508 27.0607 15.1375 27.0213 15.2566 26.5158C15.3228 26.2335 15.3161 26.1678 15.1905 25.9446L15.0449 25.6885L15.1838 25.0714L15.3294 24.4542L14.9126 23.7583C14.5488 23.1412 14.4628 23.0492 14.2049 22.9311C13.9866 22.8391 13.8874 22.7472 13.8146 22.5634C13.6559 22.1892 13.6889 21.9266 14.013 21.1124C14.3239 20.3377 14.3901 20.2458 15.0119 19.7797C15.2169 19.6221 15.25 19.5565 15.25 19.3332C15.25 19.11 15.2963 19.0181 15.541 18.762C15.8188 18.4732 15.8453 18.46 15.9974 18.5454C16.1562 18.6242 16.1959 18.611 16.6457 18.2959C16.9103 18.1121 17.1947 17.9611 17.2807 17.9611C17.4262 17.9611 17.4328 17.9873 17.4328 18.3747C17.4328 18.7161 17.3931 18.8605 17.2278 19.1625L17.0227 19.5368L17.2608 19.8519L17.4924 20.167L18.2067 20.2524C18.6499 20.3049 19.0468 20.3903 19.2585 20.4822C19.5892 20.6332 19.5958 20.6397 19.5892 20.9155C19.5826 21.1912 19.5958 21.2109 19.9067 21.3882L20.2308 21.5786L20.7137 21.4342L21.2032 21.2897L21.5207 21.5523C21.8051 21.7887 21.8382 21.8412 21.8713 22.1695C21.8911 22.3927 21.9969 22.7078 22.1623 23.0295L22.4203 23.5416H22.8436C23.2537 23.5416 23.2802 23.5482 23.7168 23.8962C24.1269 24.2179 24.2129 24.2573 24.7486 24.3492L25.3307 24.4542L25.7938 24.9532L26.2568 25.4456H26.8918H27.5334L27.9105 25.137L28.2875 24.8285L28.6645 25.2355C29.0217 25.6163 29.0614 25.6426 29.3392 25.6426C29.5509 25.6426 29.7295 25.7017 30.0271 25.8724C30.2454 26.0037 30.4703 26.135 30.5232 26.1612C30.5828 26.1941 30.6158 26.2794 30.6026 26.3845C30.5629 26.7062 30.8209 27.1329 31.1781 27.3561C31.3633 27.4677 31.4956 27.5925 31.4758 27.6253C31.3964 27.7435 30.5299 28.2687 30.4042 28.2687C30.338 28.2687 30.2256 28.2096 30.1594 28.1374C30.0933 28.0652 30.0007 28.0061 29.9544 28.0061C29.9081 28.0061 29.6369 28.144 29.3591 28.3147L28.8563 28.6233L28.3669 28.3738C27.884 28.1243 27.8641 28.1243 27.3813 28.1637C26.8918 28.2096 26.8852 28.2096 26.8124 28.0389C26.7661 27.947 26.6669 27.8551 26.5941 27.842C26.3163 27.7894 25.2514 27.7501 25.1852 27.796C25.1455 27.8223 24.9934 28.1571 24.8479 28.5379C24.4774 29.5161 24.4774 29.5161 24.1798 29.5161C23.9417 29.5161 23.8954 29.549 23.5117 30.002C23.2802 30.2777 23.0421 30.4944 22.9891 30.4944C22.9362 30.4944 22.632 30.3959 22.3211 30.2843Z" fill="#5A575F"/>
<path d="M30.3305 25.4984C29.9529 25.2748 29.7475 25.2024 29.5488 25.2024C29.3103 25.2024 29.2441 25.163 28.9393 24.8341C28.4425 24.3013 28.4425 24.3013 27.9986 24.6762L27.6144 25.0051H27.0447H26.4683L26.0245 24.5184L25.5806 24.0316L24.9778 23.9198C24.4213 23.808 24.3352 23.7685 23.9245 23.4462C23.4873 23.1108 23.4541 23.0976 23.05 23.091H22.6327L22.3809 22.5517C22.2219 22.1965 22.1358 21.9136 22.1358 21.736C22.1358 21.4861 22.1027 21.4335 21.7913 21.1572C21.5992 20.9928 21.3939 20.8612 21.3342 20.8612C21.268 20.8612 21.0361 20.9138 20.8043 20.9862L20.3935 21.1178L20.1153 20.9533C19.8636 20.8086 19.8371 20.7691 19.8371 20.5192C19.8371 20.0982 19.4992 19.9338 18.373 19.8022C17.6973 19.7233 17.6907 19.7233 17.5317 19.4865C17.3263 19.1905 17.3263 19.1642 17.5317 18.809C17.6642 18.5722 17.6973 18.4341 17.6973 18.0197V17.5132L17.8961 17.4738C18.0021 17.4474 18.2405 17.2962 18.4194 17.1383C18.7241 16.862 18.797 16.8357 19.3336 16.7436C20.1286 16.6055 20.0689 16.6318 20.5923 16.1385C20.9368 15.8096 21.0891 15.6123 21.1488 15.4084C21.2216 15.165 21.2216 15.1124 21.1355 15.0664C20.844 14.8888 20.844 14.9019 21.0958 14.5336C21.2349 14.3428 21.3409 14.1455 21.3409 14.106C21.3409 14.0666 21.2614 13.8758 21.1686 13.6916C20.9964 13.3496 20.9964 13.1654 21.162 13.1654C21.2084 13.1654 21.5396 13.6061 21.8973 14.1521C22.3611 14.8493 22.5863 15.1387 22.6724 15.1387C22.7519 15.1387 22.8778 15.0203 23.0037 14.823C23.262 14.4152 23.2951 14.2639 23.1626 14.06C23.0765 13.9284 23.0633 13.8166 23.103 13.5206C23.1494 13.1457 23.1494 13.1457 22.9043 12.9418L22.6525 12.7379L22.8115 12.5405C22.891 12.4353 23.0765 12.113 23.209 11.8236C23.4409 11.3171 23.4475 11.2908 23.3481 11.1198C23.1693 10.8172 23.2686 10.6528 23.8847 10.2713C24.3816 9.96213 24.4942 9.85031 24.9447 9.24517C25.2693 8.80447 25.4945 8.5611 25.574 8.5611C25.6999 8.5611 26.4352 8.81105 26.5213 8.88998C26.5545 8.91629 26.5545 9.0873 26.528 9.27806C26.4882 9.56747 26.4153 9.69902 26.0311 10.1792C25.7794 10.4949 25.574 10.8041 25.574 10.883C25.574 10.9553 25.6204 11.1921 25.68 11.4026C25.786 11.7775 25.786 11.7907 25.6138 12.3038C25.521 12.5932 25.4415 12.8826 25.4415 12.9484C25.4415 13.0141 25.3355 13.3825 25.2097 13.7574C25.0838 14.1323 24.9778 14.5007 24.9778 14.573C24.9778 14.6454 25.0573 14.8888 25.15 15.1058L25.3157 15.5071L25.044 16.0135C24.8917 16.2898 24.7459 16.52 24.7128 16.52C24.6797 16.52 24.4743 16.7371 24.2491 17.0133C23.8582 17.4935 23.845 17.5066 23.5469 17.5066C23.3879 17.5066 23.0434 17.4409 22.7983 17.3685C21.8708 17.0857 21.7052 17.2962 22.3478 17.9473C22.8049 18.4144 23.2951 18.684 23.6727 18.6906C24.0702 18.6906 24.8387 18.3025 25.1302 17.9408C25.2693 17.7697 25.5608 17.5132 25.7794 17.3685L26.1702 17.1054V16.3556C26.1702 15.5136 26.2034 15.4347 26.6141 15.3623C26.9917 15.29 27.1705 15.4281 27.2832 15.8622C27.5018 16.7436 27.4885 16.7173 27.6806 16.7173C27.78 16.7173 27.9589 16.6516 28.0847 16.5792L28.3034 16.4476L28.257 15.9741C28.2305 15.711 28.1841 15.4347 28.1576 15.3623C28.1245 15.2834 27.8993 15.0795 27.6541 14.9019C27.2765 14.6322 27.1308 14.573 26.7399 14.5138C26.3292 14.4546 26.2696 14.4283 26.2299 14.2836C26.1172 13.8692 26.1636 13.6587 26.5015 13.1325C26.6869 12.8431 26.8327 12.58 26.8327 12.5405C26.8327 12.5011 26.7598 12.1788 26.6737 11.817C26.4882 11.0803 26.5081 10.9948 26.9122 10.6265C27.25 10.3107 27.727 9.99501 27.7469 10.0608C27.7601 10.1003 27.6608 10.4028 27.5349 10.7514C27.4024 11.0935 27.2964 11.4092 27.2964 11.4487C27.2964 11.5934 28.5617 12.3103 28.8267 12.3103C28.9791 12.3103 29.1447 12.1393 29.1513 11.988C29.1513 11.942 28.9592 11.6855 28.7207 11.4224C28.4822 11.1593 28.2901 10.8961 28.2901 10.8435C28.2901 10.6659 28.4226 10.6396 28.5816 10.7909C28.7472 10.9422 28.893 10.9619 29.0917 10.8567C29.2639 10.7712 29.2507 10.6462 29.0453 10.2976C28.9062 10.0608 28.8863 9.98844 28.9526 9.90293C29.1513 9.67271 29.4295 9.8832 29.2639 10.1463C29.1977 10.2515 29.2043 10.291 29.2838 10.3568C29.3434 10.3962 29.5223 10.5738 29.6813 10.7514L29.9661 11.0672L29.6614 11.3763C29.4892 11.5473 29.3501 11.7183 29.3501 11.7578C29.3501 11.8039 29.4825 11.9815 29.6482 12.1656C29.9661 12.5077 29.9926 12.6326 29.8734 13.0404C29.8138 13.2312 29.6879 13.3759 29.3434 13.639C29.0983 13.8298 28.8797 14.0205 28.8598 14.0666C28.8267 14.1389 29.1248 14.6125 29.4958 15.0729C29.6747 15.2966 29.6813 15.2966 29.9595 15.2242C30.1185 15.1782 30.2643 15.165 30.2908 15.1913C30.3172 15.2176 30.4166 15.4544 30.5094 15.7175L30.675 16.1911L30.3437 16.8423L30.0125 17.4869L30.0854 18.0065C30.1384 18.3617 30.2245 18.638 30.3636 18.8879C30.5425 19.2037 30.569 19.3286 30.5955 19.8746C30.6286 20.5521 30.6816 20.7297 30.8605 20.7297C31.0857 20.7297 31.1387 20.8678 31.1387 21.4598C31.1387 22.0978 31.1851 22.1702 31.6356 22.2754C31.9668 22.3543 31.9999 22.4201 31.9999 22.9266C31.9999 23.3804 31.9867 23.4199 31.7283 23.7817L31.4501 24.1632L31.5627 24.5052C31.6223 24.696 31.6687 24.8933 31.6687 24.9459C31.6687 25.0643 31.0195 25.7944 30.9201 25.7944C30.8737 25.7944 30.6087 25.6563 30.3305 25.4984Z" fill="#5A575F"/>
<ellipse cx="19" cy="25.0611" rx="0.5" ry="0.5" fill="white"/>
<ellipse cx="20" cy="18.0611" rx="0.5" ry="0.5" fill="white"/>
<ellipse cx="26.5" cy="21.5611" rx="0.5" ry="0.5" fill="white"/>
<ellipse cx="13" cy="27.5611" rx="0.5" ry="0.5" fill="white"/>
</svg>
