<svg width="40" height="40" viewBox="0 0 40 40" fill="none" xmlns="http://www.w3.org/2000/svg">
<rect width="40" height="40" rx="10" fill="#E6F7FF"/>
<mask id="path-2-inside-1_6693_1187" fill="white">
<rect x="16.3999" y="10.4" width="7.2" height="3.6" rx="0.5"/>
</mask>
<rect x="16.3999" y="10.4" width="7.2" height="3.6" rx="0.5" stroke="#1450D0" stroke-width="1.6" mask="url(#path-2-inside-1_6693_1187)"/>
<mask id="path-3-inside-2_6693_1187" fill="white">
<rect x="11.6001" y="17.6" width="4.8" height="3.6" rx="0.5"/>
</mask>
<rect x="11.6001" y="17.6" width="4.8" height="3.6" rx="0.5" stroke="#5A575F" stroke-width="1.6" mask="url(#path-3-inside-2_6693_1187)"/>
<mask id="path-4-inside-3_6693_1187" fill="white">
<rect x="8" y="26" width="4.8" height="3.6" rx="0.5"/>
</mask>
<rect x="8" y="26" width="4.8" height="3.6" rx="0.5" stroke="#5A575F" stroke-width="1.6" mask="url(#path-4-inside-3_6693_1187)"/>
<mask id="path-5-inside-4_6693_1187" fill="white">
<rect x="14" y="26" width="4.8" height="3.6" rx="0.5"/>
</mask>
<rect x="14" y="26" width="4.8" height="3.6" rx="0.5" stroke="#5A575F" stroke-width="1.6" mask="url(#path-5-inside-4_6693_1187)"/>
<mask id="path-6-inside-5_6693_1187" fill="white">
<rect x="21.2" y="26" width="4.8" height="3.6" rx="0.5"/>
</mask>
<rect x="21.2" y="26" width="4.8" height="3.6" rx="0.5" stroke="#5A575F" stroke-width="1.6" mask="url(#path-6-inside-5_6693_1187)"/>
<mask id="path-7-inside-6_6693_1187" fill="white">
<rect x="27.2" y="26" width="4.8" height="3.6" rx="0.5"/>
</mask>
<rect x="27.2" y="26" width="4.8" height="3.6" rx="0.5" stroke="#5A575F" stroke-width="1.6" mask="url(#path-7-inside-6_6693_1187)"/>
<mask id="path-8-inside-7_6693_1187" fill="white">
<rect x="23.6001" y="17.6" width="4.8" height="3.6" rx="0.5"/>
</mask>
<rect x="23.6001" y="17.6" width="4.8" height="3.6" rx="0.5" stroke="#5A575F" stroke-width="1.6" mask="url(#path-8-inside-7_6693_1187)"/>
<path d="M20 13.4V15.8M20 15.8H25C25.5523 15.8 26 16.2477 26 16.8V18.2M20 15.8H15C14.4477 15.8 14 16.2477 14 16.8V18.2" stroke="#5A575F" stroke-width="0.8" stroke-linecap="round"/>
<path d="M13.9999 20.6V23.6M13.9999 23.6H11.3999C10.8476 23.6 10.3999 24.0478 10.3999 24.6V26.6M13.9999 23.6H15.3999C15.9522 23.6 16.3999 24.0478 16.3999 24.6V26.6" stroke="#5A575F" stroke-width="0.8" stroke-linecap="round"/>
<path d="M26.0001 20.6V23.6M26.0001 23.6H25.6001C24.4955 23.6 23.6001 24.4955 23.6001 25.6V26.6M26.0001 23.6H27.6001C28.7047 23.6 29.6001 24.4955 29.6001 25.6V26.6" stroke="#5A575F" stroke-width="0.8" stroke-linecap="round"/>
</svg>
