<svg width="22" height="23" viewBox="0 0 22 23" fill="none" xmlns="http://www.w3.org/2000/svg">
<path d="M20.2435 15.1387L20.2435 2.2562L13.7027 8.8311C16.0908 6.43035 20.19 8.10372 20.2157 11.4899L20.2435 15.1387Z" fill="#1450D0"/>
<path d="M20.2435 2.2562L11.6552 2.2562L7.36101 2.2562L10.9885 2.26933C14.4052 2.28169 16.1123 6.40886 13.7027 8.8311L20.2435 2.2562Z" fill="#1450D0"/>
<path d="M1.49748 21.0022L13.7027 8.8311M20.2435 2.2562L11.6552 2.2562L7.36101 2.2562M20.2435 2.2562L20.2435 15.1387M20.2435 2.2562L13.7027 8.8311M3.06686 2.2562L7.36101 2.2562M20.2435 19.4328V15.1387M7.36101 2.2562L10.9885 2.26933C14.4052 2.28169 16.1123 6.40886 13.7027 8.8311V8.8311M20.2435 15.1387L20.2157 11.4899C20.19 8.10372 16.0908 6.43035 13.7027 8.8311V8.8311" stroke="#1450D0" stroke-width="3" stroke-linecap="round" stroke-linejoin="round"/>
</svg>
