<svg width="36" height="27" viewBox="0 0 36 27" fill="none" xmlns="http://www.w3.org/2000/svg">
<path d="M35.3129 22.5961C36.1792 17.855 36.2336 13.0012 35.474 8.2418L35.3485 7.45566C35.0211 5.40455 33.2519 3.89532 31.1748 3.89532L14.1121 3.89532C14.0479 3.89532 13.9959 3.84328 13.9959 3.77909C13.9959 1.83578 12.4205 0.260422 10.4772 0.260422H5.98959C3.82915 0.260422 2.00941 1.87472 1.75182 4.01974L1.21821 8.46343C0.662662 13.0897 0.806038 17.7732 1.64353 22.3569C1.9853 24.2274 3.5497 25.6296 5.44637 25.7653L8.4113 25.9774C15.1286 26.458 21.8716 26.458 28.5888 25.9774L31.7963 25.7479C33.5502 25.6224 34.9969 24.3259 35.3129 22.5961Z" fill="#286BFC"/>
</svg>
