<svg width="237" height="44" viewBox="0 0 237 44" fill="none" xmlns="http://www.w3.org/2000/svg">
<path fill-rule="evenodd" clip-rule="evenodd" d="M33.7682 22.8624C31.6402 21.497 31.1021 18.7645 31.7041 16.4878C32.2057 14.5912 32.2388 12.524 31.71 10.4285C29.9738 3.54817 22.8365 -1.03125 15.7686 0.200084C8.7006 1.43142 4.37842 8.00721 6.11469 14.8875C6.63624 16.9543 7.64512 18.8134 8.99308 20.3698C10.6219 22.2505 11.4304 24.9116 10.1504 26.859L9.90015 27.2397C8.80709 28.9027 6.47395 29.3218 4.43083 29.7023C2.98968 29.9708 1.68712 30.7668 0.85521 32.0324C-0.834821 34.6037 0.0574904 38.1396 2.84825 39.9302C5.639 41.7209 9.27139 41.088 10.9614 38.5168C11.8184 37.2131 12.0114 35.6613 11.6296 34.2147C11.0777 32.1235 10.4007 29.7081 11.5489 27.9613L12.2841 26.8426C13.3203 25.2663 15.3904 24.7664 17.3769 25.1116C19.5323 25.4861 21.6809 26.8295 22.1986 28.881L22.3823 29.609C22.8825 31.5913 21.6655 33.4838 20.6059 35.1532C19.8568 36.3335 19.5855 37.8129 19.9671 39.3252C20.7455 42.4094 23.9449 44.4623 27.1133 43.9103C30.2817 43.3583 32.2192 40.4106 31.4409 37.3263C31.0449 35.757 30.0221 34.4548 28.6956 33.6268C26.773 32.4267 24.5201 31.0673 23.9882 28.9595L23.8552 28.4322C23.3563 26.4554 24.6082 24.5752 26.336 23.5521C27.9295 22.6085 29.9908 22.3947 31.6404 23.4531L33.4531 24.6162C35.2581 25.7743 35.8444 28.0463 36.372 30.0368C36.7441 31.4408 37.6579 32.7452 39.0316 33.6266C41.8224 35.4172 45.4548 34.7844 47.1448 32.2132C48.8348 29.642 47.9425 26.106 45.1518 24.3154C43.7367 23.4074 42.1052 23.1226 40.6203 23.3976C38.4737 23.7951 35.9967 24.2922 34.1008 23.0758L33.7682 22.8624Z" fill="url(#paint0_linear_70_9179)"/>
<path d="M24.4536 15.025C25.3161 18.4429 23.0741 21.7261 19.446 22.3581C15.8178 22.9902 12.1774 20.7319 11.3149 17.314C10.4524 13.8961 12.6944 10.6129 16.3225 9.98088C19.9506 9.34881 23.591 11.6072 24.4536 15.025Z" fill="url(#paint1_linear_70_9179)"/>
<path fill-rule="evenodd" clip-rule="evenodd" d="M19.0295 20.7078C21.7742 20.2297 23.378 17.7763 22.7582 15.3204C22.1385 12.8645 19.4836 11.153 16.739 11.6312C13.9943 12.1093 12.3905 14.5628 13.0102 17.0186C13.63 19.4745 16.2848 21.186 19.0295 20.7078ZM19.446 22.3581C23.0741 21.7261 25.3161 18.4429 24.4536 15.025C23.591 11.6072 19.9506 9.34881 16.3225 9.98088C12.6944 10.6129 10.4524 13.8961 11.3149 17.314C12.1774 20.7319 15.8178 22.9902 19.446 22.3581Z" fill="#EDEBF0"/>
<path d="M229.849 17.875L226.105 30H222.129L227.772 14.6487H230.292L229.849 17.875ZM232.95 30L229.196 17.875L228.71 14.6487H231.263L236.937 30H232.95ZM232.803 24.2749V27.1322H224.924V24.2749H232.803Z" fill="#286BFC"/>
<path d="M216.275 14.6487V30H212.573V14.6487H216.275ZM220.894 14.6487V17.506H208.059V14.6487H220.894Z" fill="#286BFC"/>
<path d="M199.728 17.875L195.984 30H192.008L197.651 14.6487H200.171L199.728 17.875ZM202.829 30L199.074 17.875L198.589 14.6487H201.142L206.816 30H202.829ZM202.682 24.2749V27.1322H194.803V24.2749H202.682Z" fill="#286BFC"/>
<path d="M182.301 30H178.895L178.916 27.1533H182.301C183.004 27.1533 183.599 26.9846 184.084 26.6472C184.576 26.3098 184.949 25.8072 185.202 25.1394C185.462 24.4647 185.592 23.6352 185.592 22.6512V21.9869C185.592 21.2489 185.518 20.6022 185.371 20.0469C185.23 19.4846 185.019 19.0172 184.738 18.6447C184.456 18.2651 184.105 17.9804 183.683 17.7906C183.268 17.6009 182.79 17.506 182.249 17.506H178.831V14.6487H182.249C183.289 14.6487 184.242 14.8279 185.107 15.1864C185.979 15.5378 186.731 16.0439 187.364 16.7047C188.004 17.3584 188.496 18.1351 188.841 19.0348C189.192 19.9274 189.368 20.9185 189.368 22.008V22.6512C189.368 23.7337 189.192 24.7247 188.841 25.6244C188.496 26.5242 188.007 27.3009 187.374 27.9546C186.742 28.6083 185.993 29.1143 185.128 29.4728C184.27 29.8243 183.328 30 182.301 30ZM181.015 14.6487V30H177.312V14.6487H181.015Z" fill="#286BFC"/>
<path d="M159.758 21.3699V27.6749C159.498 27.9631 159.097 28.2724 158.556 28.6027C158.021 28.9261 157.346 29.2037 156.531 29.4357C155.715 29.6676 154.755 29.7836 153.651 29.7836C152.632 29.7836 151.707 29.6219 150.877 29.2986C150.048 28.9682 149.334 28.4868 148.736 27.8542C148.146 27.2145 147.689 26.4343 147.365 25.5135C147.049 24.5857 146.891 23.5243 146.891 22.3294V21.4753C146.891 20.2804 147.052 19.219 147.376 18.2912C147.699 17.3634 148.153 16.5832 148.736 15.9505C149.327 15.3109 150.02 14.8259 150.814 14.4955C151.616 14.1652 152.495 14 153.451 14C154.864 14 156.014 14.2249 156.9 14.6748C157.786 15.1176 158.457 15.7326 158.914 16.5199C159.371 17.3001 159.649 18.2033 159.748 19.2296H156.193C156.123 18.7235 155.989 18.2947 155.792 17.9433C155.603 17.5848 155.328 17.3142 154.97 17.1314C154.611 16.9416 154.147 16.8467 153.578 16.8467C153.135 16.8467 152.73 16.9416 152.365 17.1314C152.006 17.3212 151.7 17.6094 151.447 17.996C151.194 18.3756 150.997 18.8535 150.856 19.4299C150.723 20.0063 150.656 20.6811 150.656 21.4543V22.3294C150.656 23.0955 150.719 23.7668 150.846 24.3432C150.979 24.9195 151.176 25.401 151.436 25.7876C151.704 26.1672 152.041 26.4554 152.449 26.6522C152.864 26.842 153.353 26.9369 153.915 26.9369C154.309 26.9369 154.646 26.9052 154.928 26.842C155.209 26.7717 155.441 26.6873 155.624 26.5889C155.814 26.4835 155.958 26.3851 156.056 26.2937V23.9109H153.483V21.3699H159.758Z" fill="#286BFC"/>
<path d="M142.696 14.2214V29.5727H139.005L133.573 20.0203V29.5727H129.871V14.2214H133.573L139.005 23.7738V14.2214H142.696Z" fill="#286BFC"/>
<path d="M125.102 14.2214V29.5727H121.41V14.2214H125.102Z" fill="#286BFC"/>
<path d="M113.398 25.4924C113.398 25.2534 113.363 25.039 113.293 24.8493C113.222 24.6524 113.092 24.4697 112.903 24.301C112.713 24.1323 112.438 23.9636 112.08 23.7949C111.728 23.6192 111.264 23.4364 110.688 23.2466C110.013 23.0217 109.362 22.7687 108.736 22.4875C108.111 22.1993 107.552 21.8654 107.059 21.4859C106.567 21.0993 106.177 20.6494 105.889 20.1363C105.6 19.6162 105.456 19.0117 105.456 18.3228C105.456 17.6621 105.604 17.0682 105.899 16.541C106.195 16.0068 106.606 15.5534 107.133 15.1809C107.668 14.8013 108.293 14.5131 109.011 14.3163C109.728 14.1125 110.512 14.0105 111.363 14.0105C112.488 14.0105 113.479 14.2073 114.337 14.601C115.202 14.9876 115.877 15.5393 116.362 16.2563C116.854 16.9662 117.1 17.8062 117.1 18.7762H113.419C113.419 18.3896 113.339 18.0487 113.177 17.7535C113.022 17.4583 112.787 17.2263 112.47 17.0576C112.154 16.8889 111.756 16.8046 111.278 16.8046C110.814 16.8046 110.424 16.8749 110.108 17.0154C109.791 17.156 109.552 17.3458 109.39 17.5848C109.229 17.8167 109.148 18.0733 109.148 18.3545C109.148 18.5864 109.211 18.7973 109.338 18.9871C109.471 19.1698 109.658 19.342 109.897 19.5037C110.143 19.6654 110.438 19.82 110.783 19.9676C111.134 20.1152 111.528 20.2593 111.964 20.3999C112.78 20.66 113.504 20.9517 114.137 21.275C114.776 21.5913 115.314 21.9533 115.75 22.361C116.193 22.7616 116.527 23.2185 116.752 23.7316C116.984 24.2448 117.1 24.8247 117.1 25.4713C117.1 26.1602 116.967 26.7717 116.7 27.3059C116.432 27.8401 116.049 28.2935 115.55 28.666C115.051 29.0315 114.453 29.3092 113.757 29.4989C113.061 29.6887 112.284 29.7836 111.426 29.7836C110.638 29.7836 109.861 29.6852 109.095 29.4884C108.336 29.2846 107.647 28.9753 107.028 28.5606C106.409 28.1388 105.913 27.6011 105.541 26.9474C105.175 26.2867 104.992 25.503 104.992 24.5962H108.705C108.705 25.0461 108.765 25.4256 108.884 25.7349C109.004 26.0442 109.179 26.2937 109.411 26.4835C109.643 26.6663 109.928 26.7998 110.266 26.8842C110.603 26.9615 110.99 27.0001 111.426 27.0001C111.897 27.0001 112.277 26.9334 112.565 26.7998C112.853 26.6592 113.064 26.4765 113.198 26.2515C113.331 26.0196 113.398 25.7665 113.398 25.4924Z" fill="#286BFC"/>
<path d="M89.2383 14.2214H95.2818C96.4631 14.2214 97.4897 14.3971 98.3616 14.7486C99.2335 15.1 99.905 15.6202 100.376 16.309C100.854 16.9979 101.093 17.8484 101.093 18.8606C101.093 19.7392 100.956 20.4737 100.682 21.0641C100.408 21.6546 100.025 22.1431 99.5323 22.5297C99.0471 22.9093 98.4811 23.222 97.8342 23.4681L96.6213 24.1534H91.5481L91.527 21.2961H95.2818C95.7529 21.2961 96.1432 21.2118 96.4525 21.0431C96.7619 20.8744 96.994 20.6354 97.1486 20.3261C97.3104 20.0098 97.3912 19.6337 97.3912 19.1979C97.3912 18.7551 97.3104 18.3756 97.1486 18.0593C96.9869 17.7429 96.7479 17.5004 96.4314 17.3318C96.1221 17.1631 95.7388 17.0787 95.2818 17.0787H92.9403V29.5727H89.2383V14.2214ZM97.6444 29.5727L94.2482 22.7827L98.1717 22.7616L101.61 29.4146V29.5727H97.6444Z" fill="#286BFC"/>
<path d="M78.8572 17.4477L75.113 29.5727H71.1367L76.7794 14.2214H79.3002L78.8572 17.4477ZM81.9581 29.5727L78.2033 17.4477L77.7181 14.2214H80.2706L85.9449 29.5727H81.9581ZM81.8104 23.8476V26.7049H73.9317V23.8476H81.8104Z" fill="#286BFC"/>
<path d="M64.1279 24.3643H60.3098V21.507H64.1279C64.6482 21.507 65.0701 21.4191 65.3936 21.2434C65.717 21.0677 65.9526 20.8252 66.1002 20.5159C66.2549 20.1996 66.3323 19.8446 66.3323 19.451C66.3323 19.0293 66.2549 18.6391 66.1002 18.2807C65.9526 17.9222 65.717 17.634 65.3936 17.4161C65.0701 17.1912 64.6482 17.0787 64.1279 17.0787H61.7021V29.5727H58V14.2214H64.1279C65.3584 14.2214 66.4166 14.4463 67.3026 14.8962C68.1956 15.3461 68.8811 15.9646 69.3593 16.7519C69.8374 17.5321 70.0765 18.4248 70.0765 19.4299C70.0765 20.421 69.8374 21.2856 69.3593 22.0236C68.8811 22.7616 68.1956 23.338 67.3026 23.7527C66.4166 24.1604 65.3584 24.3643 64.1279 24.3643Z" fill="#286BFC"/>
<rect x="165.227" y="20.4653" width="6.62825" height="2.86367" fill="#286BFC"/>
<defs>
<linearGradient id="paint0_linear_70_9179" x1="24" y1="0" x2="24" y2="44" gradientUnits="userSpaceOnUse">
<stop stop-color="#1450D0"/>
<stop offset="1" stop-color="#286CFD"/>
</linearGradient>
<linearGradient id="paint1_linear_70_9179" x1="24" y1="0" x2="24" y2="44" gradientUnits="userSpaceOnUse">
<stop stop-color="#1450D0"/>
<stop offset="1" stop-color="#286CFD"/>
</linearGradient>
</defs>
</svg>
