<svg viewBox="0 0 151 169" fill="none" xmlns="http://www.w3.org/2000/svg">
<path d="M144.721 158.03L141.587 168.181H138.257L142.982 155.329H145.092L144.721 158.03ZM147.317 168.181L144.174 158.03L143.768 155.329H145.905L150.655 168.181H147.317ZM147.194 163.388V165.78H140.598V163.388H147.194Z" fill="#286BFC"/>
<path d="M133.358 155.329V168.181H130.259V155.329H133.358ZM137.226 155.329V157.721H126.479V155.329H137.226Z" fill="#286BFC"/>
<path d="M119.505 158.03L116.37 168.181H113.041L117.766 155.329H119.876L119.505 158.03ZM122.101 168.181L118.958 158.03L118.552 155.329H120.689L125.439 168.181H122.101ZM121.978 163.388V165.78H115.381V163.388H121.978Z" fill="#286BFC"/>
<path d="M104.91 168.181H102.058L102.076 165.798H104.91C105.499 165.798 105.996 165.657 106.403 165.374C106.815 165.092 107.127 164.671 107.339 164.112C107.556 163.547 107.665 162.852 107.665 162.029V161.472C107.665 160.855 107.604 160.313 107.48 159.848C107.362 159.377 107.186 158.986 106.95 158.674C106.715 158.356 106.42 158.118 106.067 157.959C105.72 157.8 105.319 157.721 104.866 157.721H102.005V155.329H104.866C105.737 155.329 106.535 155.479 107.259 155.779C107.989 156.073 108.619 156.497 109.149 157.05C109.685 157.597 110.097 158.248 110.385 159.001C110.679 159.748 110.827 160.578 110.827 161.49V162.029C110.827 162.935 110.679 163.765 110.385 164.518C110.097 165.271 109.688 165.921 109.158 166.469C108.628 167.016 108.001 167.44 107.277 167.74C106.559 168.034 105.77 168.181 104.91 168.181ZM103.833 155.329V168.181H100.734V155.329H103.833Z" fill="#286BFC"/>
<path d="M86.0387 160.956V166.235C85.8209 166.476 85.4853 166.735 85.032 167.011C84.5846 167.282 84.0195 167.515 83.3366 167.709C82.6537 167.903 81.8502 168 80.9259 168C80.0723 168 79.2982 167.865 78.6035 167.594C77.9089 167.317 77.3113 166.914 76.8109 166.385C76.3164 165.849 75.9338 165.196 75.663 164.425C75.3981 163.648 75.2656 162.76 75.2656 161.759V161.044C75.2656 160.044 75.401 159.155 75.6718 158.378C75.9426 157.601 76.3223 156.948 76.8109 156.419C77.3054 155.883 77.8853 155.477 78.5505 155.2C79.2216 154.924 79.9575 154.786 80.7581 154.786C81.9414 154.786 82.9039 154.974 83.6457 155.35C84.3874 155.721 84.9496 156.236 85.3323 156.895C85.7149 157.548 85.9475 158.305 86.0299 159.164H83.054C82.9952 158.74 82.8833 158.381 82.7185 158.087C82.5595 157.787 82.3299 157.56 82.0297 157.407C81.7295 157.248 81.3409 157.169 80.8641 157.169C80.4932 157.169 80.1547 157.248 79.8486 157.407C79.5484 157.566 79.2923 157.807 79.0804 158.131C78.8684 158.449 78.7036 158.849 78.5859 159.332C78.474 159.814 78.4181 160.379 78.4181 161.026V161.759C78.4181 162.401 78.4711 162.963 78.577 163.445C78.6889 163.928 78.8537 164.331 79.0715 164.654C79.2952 164.972 79.5778 165.214 79.9192 165.378C80.2666 165.537 80.6757 165.617 81.1467 165.617C81.4763 165.617 81.7589 165.59 81.9944 165.537C82.2299 165.478 82.4241 165.408 82.5772 165.325C82.7361 165.237 82.8568 165.155 82.9392 165.078V163.083H80.7846V160.956H86.0387Z" fill="#286BFC"/>
<path d="M71.7529 154.971V167.824H68.6623L64.1146 159.826V167.824H61.0151V154.971H64.1146L68.6623 162.969V154.971H71.7529Z" fill="#286BFC"/>
<path d="M57.0256 154.971V167.824H53.9349V154.971H57.0256Z" fill="#286BFC"/>
<path d="M47.2256 164.407C47.2256 164.207 47.1961 164.028 47.1373 163.869C47.0784 163.704 46.9695 163.551 46.8105 163.41C46.6516 163.269 46.422 163.127 46.1218 162.986C45.8274 162.839 45.4389 162.686 44.9562 162.527C44.391 162.339 43.8465 162.127 43.3225 161.891C42.7986 161.65 42.3306 161.371 41.9185 161.053C41.5064 160.729 41.1797 160.353 40.9383 159.923C40.697 159.488 40.5763 158.981 40.5763 158.405C40.5763 157.852 40.6999 157.354 40.9472 156.913C41.1944 156.466 41.5388 156.086 41.9803 155.774C42.4277 155.456 42.9517 155.215 43.5521 155.05C44.1526 154.88 44.809 154.794 45.5213 154.794C46.4632 154.794 47.2933 154.959 48.0115 155.289C48.7356 155.612 49.3007 156.074 49.7069 156.675C50.119 157.269 50.325 157.972 50.325 158.784H47.2432C47.2432 158.461 47.1755 158.175 47.0401 157.928C46.9106 157.681 46.7134 157.487 46.4485 157.345C46.1836 157.204 45.851 157.134 45.4507 157.134C45.0621 157.134 44.7354 157.192 44.4705 157.31C44.2056 157.428 44.0054 157.587 43.87 157.787C43.7346 157.981 43.6669 158.196 43.6669 158.431C43.6669 158.625 43.7199 158.802 43.8259 158.961C43.9377 159.114 44.0937 159.258 44.2939 159.393C44.4999 159.529 44.7472 159.658 45.0356 159.782C45.33 159.905 45.6597 160.026 46.0246 160.144C46.7075 160.361 47.3139 160.606 47.8437 160.876C48.3794 161.141 48.8298 161.444 49.1948 161.786C49.5656 162.121 49.8453 162.504 50.0336 162.933C50.2279 163.363 50.325 163.848 50.325 164.39C50.325 164.966 50.2132 165.478 49.9895 165.926C49.7658 166.373 49.4449 166.752 49.027 167.064C48.609 167.37 48.1086 167.603 47.5258 167.762C46.943 167.921 46.2925 168 45.5743 168C44.915 168 44.2644 167.918 43.6228 167.753C42.987 167.582 42.4101 167.323 41.892 166.976C41.374 166.623 40.9589 166.173 40.6469 165.625C40.3408 165.072 40.1877 164.416 40.1877 163.657H43.296C43.296 164.034 43.3461 164.351 43.4462 164.61C43.5462 164.869 43.6934 165.078 43.8877 165.237C44.082 165.39 44.3204 165.502 44.6029 165.572C44.8855 165.637 45.2093 165.67 45.5743 165.67C45.9687 165.67 46.2866 165.614 46.528 165.502C46.7693 165.384 46.9459 165.231 47.0578 165.043C47.1696 164.849 47.2256 164.637 47.2256 164.407Z" fill="#286BFC"/>
<path d="M26.9968 154.971H32.0566C33.0457 154.971 33.9051 155.118 34.6351 155.412C35.3651 155.707 35.9273 156.142 36.3217 156.719C36.722 157.295 36.9222 158.008 36.9222 158.855C36.9222 159.591 36.8074 160.206 36.5778 160.7C36.3482 161.194 36.0274 161.603 35.6153 161.927C35.2091 162.245 34.7352 162.507 34.1936 162.713L33.1781 163.286H28.9307L28.913 160.894H32.0566C32.4511 160.894 32.7778 160.823 33.0368 160.682C33.2958 160.541 33.4901 160.341 33.6196 160.082C33.755 159.817 33.8227 159.502 33.8227 159.137C33.8227 158.767 33.755 158.449 33.6196 158.184C33.4842 157.919 33.2841 157.716 33.0192 157.575C32.7601 157.434 32.4393 157.363 32.0566 157.363H30.0963V167.824H26.9968V154.971ZM34.0347 167.824L31.1913 162.139L34.4762 162.121L37.3549 167.691V167.824H34.0347Z" fill="#286BFC"/>
<path d="M18.3094 157.672L15.1746 167.824H11.8456L16.5698 154.971H18.6803L18.3094 157.672ZM20.9056 167.824L17.762 157.672L17.3558 154.971H19.4927L24.2435 167.824H20.9056ZM20.7819 163.03V165.423H14.1856V163.03H20.7819Z" fill="#286BFC"/>
<path d="M5.97519 163.463H2.77858V161.071H5.97519C6.41082 161.071 6.76404 160.997 7.03484 160.85C7.30564 160.703 7.50285 160.5 7.62648 160.241C7.75599 159.976 7.82074 159.679 7.82074 159.349C7.82074 158.996 7.75599 158.67 7.62648 158.369C7.50285 158.069 7.30564 157.828 7.03484 157.646C6.76404 157.457 6.41082 157.363 5.97519 157.363H3.9442V167.824H0.844727V154.971H5.97519C7.0054 154.971 7.89139 155.159 8.63314 155.536C9.38078 155.913 9.95476 156.43 10.3551 157.09C10.7554 157.743 10.9555 158.49 10.9555 159.332C10.9555 160.161 10.7554 160.885 10.3551 161.503C9.95476 162.121 9.38078 162.604 8.63314 162.951C7.89139 163.292 7.0054 163.463 5.97519 163.463Z" fill="#286BFC"/>
<path fill-rule="evenodd" clip-rule="evenodd" d="M105.612 71.3407C99.0304 67.08 97.3662 58.5535 99.2282 51.4493C100.779 45.531 100.882 39.0803 99.2465 32.5415C93.8768 11.0718 71.804 -3.21795 49.9455 0.62435C28.087 4.46665 14.7201 24.986 20.0897 46.4557C21.7027 52.9049 24.8228 58.7062 28.9915 63.5628C34.0288 69.4313 36.5293 77.7351 32.5707 83.8119L31.7968 84.9999C28.4163 90.1892 21.2008 91.4968 14.8822 92.6844C10.4253 93.5221 6.39696 96.0059 3.82416 99.9554C-1.40247 107.979 1.35712 119.012 9.98787 124.6C18.6186 130.187 29.8522 128.213 35.0789 120.189C37.7291 116.121 38.326 111.279 37.1453 106.765C35.4384 100.24 33.3447 92.7024 36.8956 87.2516L39.1695 83.7609C42.3738 78.842 48.776 77.282 54.9197 78.3591C61.5854 79.5278 68.23 83.7198 69.8311 90.1216L70.3992 92.3931C71.9463 98.5788 68.1825 104.484 64.9056 109.693C62.5889 113.377 61.7499 117.993 62.9301 122.712C65.3372 132.336 75.2319 138.742 85.0305 137.02C94.8292 135.297 100.821 126.099 98.4142 116.474C97.1895 111.578 94.0264 107.514 89.9239 104.93C83.9782 101.186 77.0108 96.9438 75.3658 90.3664L74.9543 88.7212C73.4116 82.5526 77.2831 76.6856 82.6265 73.493C87.5546 70.5485 93.9295 69.8812 99.0313 73.1841L104.637 76.8133C110.219 80.4272 112.032 87.517 113.664 93.7281C114.815 98.1093 117.641 102.179 121.889 104.93C130.52 110.517 141.754 108.543 146.98 100.519C152.207 92.496 149.447 81.4622 140.817 75.8747C136.44 73.0416 131.395 72.1527 126.803 73.0107C120.164 74.2512 112.504 75.8025 106.64 72.0065L105.612 71.3407Z" fill="url(#paint0_linear_6419_10600)"/>
<path d="M76.8049 46.8848C79.4724 57.5501 72.5388 67.7949 61.3183 69.7673C50.0979 71.7396 38.8395 64.6925 36.1721 54.0272C33.5047 43.3619 40.4383 33.1171 51.6587 31.1447C62.8791 29.1724 74.1375 36.2195 76.8049 46.8848Z" fill="url(#paint1_linear_6419_10600)"/>
<path fill-rule="evenodd" clip-rule="evenodd" d="M60.0304 64.6176C68.5186 63.1255 73.4786 55.4698 71.562 47.8064C69.6453 40.143 61.4349 34.8023 52.9467 36.2944C44.4584 37.7865 39.4984 45.4422 41.415 53.1056C43.3317 60.769 51.5422 66.1097 60.0304 64.6176ZM61.3183 69.7673C72.5388 67.7949 79.4724 57.5501 76.8049 46.8848C74.1375 36.2195 62.8791 29.1724 51.6587 31.1447C40.4383 33.1171 33.5047 43.3619 36.1721 54.0272C38.8395 64.6925 50.0979 71.7396 61.3183 69.7673Z" fill="#EDEBF0"/>
<rect x="90.6194" y="160.198" width="5.54938" height="2.39755" fill="#286BFC"/>
<defs>
<linearGradient id="paint0_linear_6419_10600" x1="75.4023" y1="0" x2="75.4023" y2="137.299" gradientUnits="userSpaceOnUse">
<stop stop-color="#1450D0"/>
<stop offset="1" stop-color="#286CFD"/>
</linearGradient>
<linearGradient id="paint1_linear_6419_10600" x1="75.4023" y1="0" x2="75.4023" y2="137.299" gradientUnits="userSpaceOnUse">
    <stop stop-color="#1450D0"/>
    <stop offset="1" stop-color="#286CFD"/>
</linearGradient>
</defs>
</svg>
